<?xml version="1.0" encoding="UTF-8" standalone="no"?>
<svg
   xmlns:dc="http://purl.org/dc/elements/1.1/"
   xmlns:cc="http://creativecommons.org/ns#"
   xmlns:rdf="http://www.w3.org/1999/02/22-rdf-syntax-ns#"
   xmlns:svg="http://www.w3.org/2000/svg"
   xmlns="http://www.w3.org/2000/svg"
   viewBox="0 0 501.33334 550.66669"
   height="550.66669"
   width="501.33334"
   xml:space="preserve"
   id="svg2"
   version="1.1"><metadata
     id="metadata8"><rdf:RDF><cc:Work
         rdf:about=""><dc:format>image/svg+xml</dc:format><dc:type
           rdf:resource="http://purl.org/dc/dcmitype/StillImage" /></cc:Work></rdf:RDF></metadata><defs
     id="defs6" /><g
     transform="matrix(1.3333333,0,0,-1.3333333,0,550.66667)"
     id="g10"><g
       transform="scale(0.1)"
       id="g12"><path
         id="path14"
         style="fill:#d3ffc1;fill-opacity:1;fill-rule:nonzero;stroke:none"
         d="M 4.37891,685.512 H 3543.5589 v 1975.82 H 4.37891 Z" /><path
         id="path16"
         style="fill:none;stroke:#000000;stroke-width:8.73071003;stroke-linecap:butt;stroke-linejoin:miter;stroke-miterlimit:4;stroke-dasharray:none;stroke-opacity:1"
         d="M 4.37891,685.512 H 3543.5589 v 1975.82 H 4.37891 Z" /><path
         id="path18"
         style="fill:#fec288;fill-opacity:1;fill-rule:nonzero;stroke:none"
         d="M 172.809,3021.83 H 981.911 V 4125.74 H 172.809 Z" /><path
         id="path20"
         style="fill:none;stroke:#090000;stroke-width:8.50393963;stroke-linecap:butt;stroke-linejoin:miter;stroke-miterlimit:4;stroke-dasharray:none;stroke-opacity:1"
         d="M 172.809,3021.83 H 981.911 V 4125.74 H 172.809 Z" /><path
         id="path22"
         style="fill:#fec288;fill-opacity:1;fill-rule:nonzero;stroke:none"
         d="m 1038.4,3021.84 h 1560.2 v 862.422 H 1038.4 Z" /><path
         id="path24"
         style="fill:none;stroke:#090000;stroke-width:8.50393963;stroke-linecap:butt;stroke-linejoin:miter;stroke-miterlimit:4;stroke-dasharray:none;stroke-opacity:1"
         d="m 1038.4,3021.84 h 1560.2 v 862.422 H 1038.4 Z" /><path
         id="path26"
         style="fill:#fec288;fill-opacity:1;fill-rule:nonzero;stroke:none"
         d="m 2651.99,3021.95 h 860.621 V 4125.62 H 2651.99 Z" /><path
         id="path28"
         style="fill:none;stroke:#090000;stroke-width:8.72789955;stroke-linecap:butt;stroke-linejoin:miter;stroke-miterlimit:4;stroke-dasharray:none;stroke-opacity:1"
         d="m 2651.99,3021.95 h 860.621 V 4125.62 H 2651.99 Z" /><path
         id="path30"
         style="fill:#d6d6d6;fill-opacity:1;fill-rule:nonzero;stroke:none"
         d="m 172.809,1676.41 h 3339.92 v 950.23 H 172.809 Z" /><path
         id="path32"
         style="fill:none;stroke:#090000;stroke-width:8.50393963;stroke-linecap:butt;stroke-linejoin:miter;stroke-miterlimit:4;stroke-dasharray:none;stroke-opacity:1"
         d="m 172.809,1676.41 h 3339.92 v 950.23 H 172.809 Z" /><path
         id="path34"
         style="fill:#ffffff;fill-opacity:1;fill-rule:nonzero;stroke:none"
         d="m 415.859,3496.96 h 539.41 v 578.629 h -539.41 z" /><path
         id="path36"
         style="fill:none;stroke:#090000;stroke-width:8.50393963;stroke-linecap:butt;stroke-linejoin:miter;stroke-miterlimit:4;stroke-dasharray:none;stroke-opacity:1"
         d="m 415.859,3496.96 h 539.41 v 578.629 h -539.41 z" /><path
         id="path38"
         style="fill:#ffffff;fill-opacity:1;fill-rule:nonzero;stroke:none"
         d="m 348.441,3369.96 h 537.848 v 577.027 H 348.441 Z" /><path
         id="path40"
         style="fill:none;stroke:#090000;stroke-width:8.50393963;stroke-linecap:butt;stroke-linejoin:miter;stroke-miterlimit:4;stroke-dasharray:none;stroke-opacity:1"
         d="m 348.441,3369.96 h 537.848 v 577.027 H 348.441 Z" /><path
         id="path42"
         style="fill:#ffffff;fill-opacity:1;fill-rule:nonzero;stroke:none"
         d="M 277.891,3238.24 H 820.43 V 3818.4 H 277.891 Z" /><path
         id="path44"
         style="fill:none;stroke:#090000;stroke-width:8.50393963;stroke-linecap:butt;stroke-linejoin:miter;stroke-miterlimit:4;stroke-dasharray:none;stroke-opacity:1"
         d="M 277.891,3238.24 H 820.43 V 3818.4 H 277.891 Z" /><path
         id="path46"
         style="fill:#ffffff;fill-opacity:1;fill-rule:nonzero;stroke:none"
         d="m 1140.31,3239.8 h 539.41 v 567.621 h -539.41 z" /><path
         id="path48"
         style="fill:none;stroke:#090000;stroke-width:8.50393963;stroke-linecap:butt;stroke-linejoin:miter;stroke-miterlimit:4;stroke-dasharray:none;stroke-opacity:1"
         d="m 1140.31,3239.8 h 539.41 v 567.621 h -539.41 z" /><path
         id="path50"
         style="fill:#ffffff;fill-opacity:1;fill-rule:nonzero;stroke:none"
         d="m 1952.54,3241.37 h 536.289 v 564.488 H 1952.54 Z" /><path
         id="path52"
         style="fill:none;stroke:#090000;stroke-width:8.50393963;stroke-linecap:butt;stroke-linejoin:miter;stroke-miterlimit:4;stroke-dasharray:none;stroke-opacity:1"
         d="m 1952.54,3241.37 h 536.289 v 564.488 H 1952.54 Z" /><path
         id="path54"
         style="fill:#ffffff;fill-opacity:1;fill-rule:nonzero;stroke:none"
         d="m 2874.57,3507.93 h 539.379 v 578.629 H 2874.57 Z" /><path
         id="path56"
         style="fill:none;stroke:#090000;stroke-width:8.50393963;stroke-linecap:butt;stroke-linejoin:miter;stroke-miterlimit:4;stroke-dasharray:none;stroke-opacity:1"
         d="m 2874.57,3507.93 h 539.379 v 578.629 H 2874.57 Z" /><path
         id="path58"
         style="fill:#ffffff;fill-opacity:1;fill-rule:nonzero;stroke:none"
         d="m 2808.71,3379.38 h 537.809 v 577.031 H 2808.71 Z" /><path
         id="path60"
         style="fill:none;stroke:#090000;stroke-width:8.50393963;stroke-linecap:butt;stroke-linejoin:miter;stroke-miterlimit:4;stroke-dasharray:none;stroke-opacity:1"
         d="m 2808.71,3379.38 h 537.809 v 577.031 H 2808.71 Z" /><path
         id="path62"
         style="fill:#ffffff;fill-opacity:1;fill-rule:nonzero;stroke:none"
         d="m 2742.85,3252.35 h 537.809 v 577.027 H 2742.85 Z" /><path
         id="path64"
         style="fill:none;stroke:#090000;stroke-width:8.50393963;stroke-linecap:butt;stroke-linejoin:miter;stroke-miterlimit:4;stroke-dasharray:none;stroke-opacity:1"
         d="m 2742.85,3252.35 h 537.809 v 577.027 H 2742.85 Z" /><path
         id="path66"
         style="fill:#ffffff;fill-opacity:1;fill-rule:nonzero;stroke:none"
         d="m 226.129,1947.69 h 801.293 v 620.938 H 226.129 Z" /><path
         id="path68"
         style="fill:none;stroke:#090000;stroke-width:8.50393963;stroke-linecap:butt;stroke-linejoin:miter;stroke-miterlimit:4;stroke-dasharray:none;stroke-opacity:1"
         d="m 226.129,1947.69 h 801.293 v 620.938 H 226.129 Z" /><path
         id="path70"
         style="fill:#ffffff;fill-opacity:1;fill-rule:nonzero;stroke:none"
         d="m 1027.42,1947.69 h 804.379 v 620.938 H 1027.42 Z" /><path
         id="path72"
         style="fill:none;stroke:#090000;stroke-width:8.50393963;stroke-linecap:butt;stroke-linejoin:miter;stroke-miterlimit:4;stroke-dasharray:none;stroke-opacity:1"
         d="m 1027.42,1947.69 h 804.379 v 620.938 H 1027.42 Z" /><path
         id="path74"
         style="fill:#ffffff;fill-opacity:1;fill-rule:nonzero;stroke:none"
         d="m 1830.27,1947.69 h 821.602 v 620.938 H 1830.27 Z" /><path
         id="path76"
         style="fill:none;stroke:#090000;stroke-width:8.51189995;stroke-linecap:butt;stroke-linejoin:miter;stroke-miterlimit:4;stroke-dasharray:none;stroke-opacity:1"
         d="m 1830.27,1947.69 h 821.602 v 620.938 H 1830.27 Z" /><path
         id="path78"
         style="fill:#ffffff;fill-opacity:1;fill-rule:nonzero;stroke:none"
         d="m 2651.88,1947.69 h 807.539 v 620.938 H 2651.88 Z" /><path
         id="path80"
         style="fill:none;stroke:#090000;stroke-width:8.51461029;stroke-linecap:butt;stroke-linejoin:miter;stroke-miterlimit:4;stroke-dasharray:none;stroke-opacity:1"
         d="m 2651.88,1947.69 h 807.539 v 620.938 H 2651.88 Z" /><path
         id="path82"
         style="fill:#ffffff;fill-opacity:1;fill-rule:nonzero;stroke:none"
         d="m 226.129,1812.82 h 1604.14 v 134.879 H 226.129 Z" /><path
         id="path84"
         style="fill:none;stroke:#090000;stroke-width:8.47593975;stroke-linecap:butt;stroke-linejoin:miter;stroke-miterlimit:4;stroke-dasharray:none;stroke-opacity:1"
         d="m 226.129,1812.82 h 1604.14 v 134.879 H 226.129 Z" /><path
         id="path86"
         style="fill:#ffffff;fill-opacity:1;fill-rule:nonzero;stroke:none"
         d="M 1830.27,1812.86 H 3459.41 V 1947.7 H 1830.27 Z" /><path
         id="path88"
         style="fill:none;stroke:#090000;stroke-width:8.48351955;stroke-linecap:butt;stroke-linejoin:miter;stroke-miterlimit:4;stroke-dasharray:none;stroke-opacity:1"
         d="M 1830.27,1812.86 H 3459.41 V 1947.7 H 1830.27 Z" /><g
         transform="scale(10)"
         id="g90"><text
           id="text98"
           style="font-variant:normal;font-size:6px;font-family:Helvetica;-inkscape-font-specification:f-0-0;writing-mode:lr-tb;fill:#000000;fill-opacity:1;fill-rule:nonzero;stroke:none"
           transform="matrix(1,0,0,-1,53.2641,397.992)"><tspan
             id="tspan92"
             y="0"
             x="0 4.3319998 7.9980001 12.666 16.667999 18.336 20.004 21.672001 23.34 25.007999">RTOS ... N</tspan><tspan
             id="tspan94"
             y="12.5445"
             x="-4.95508 -0.62308002 3.0429201 7.7109199 11.71292 13.38092">RTOS 2</tspan><tspan
             id="tspan96"
             y="26.855"
             x="-9.9726601 -5.6406598 -1.97466 2.6933401 6.6953402 8.3633404">RTOS 1</tspan></text>
<text
           id="text108"
           style="font-variant:normal;font-size:6px;font-family:Helvetica;-inkscape-font-specification:f-1-0;writing-mode:lr-tb;fill:#000000;fill-opacity:1;fill-rule:nonzero;stroke:none"
           transform="matrix(1,0,0,-1,40.19691,353.4597)"><tspan
             id="tspan100"
             y="0"
             x="0 4.3319998 7.6680002 11.004 12.353908 15.353908 18.689907 20.357908 23.693907">Choice of</tspan><tspan
             id="tspan102"
             y="6"
             x="1.66406 5.66606 9.6680603 13.687888 18.019888 22.021889">AAPCS,</tspan><tspan
             id="tspan104"
             y="12"
             x="-5.6718798 -0.67387998 2.6621201 7.6781201 11.01412 13.01212 16.012119 17.68012 22.67812 26.01412 29.367968">memory map,</tspan><tspan
             id="tspan106"
             y="18"
             x="6.1816201 9.5176201 11.18562 14.18562 15.85362 17.52162">etc...</tspan></text>
<text
           id="text116"
           style="font-variant:normal;font-size:6px;font-family:Helvetica;-inkscape-font-specification:f-0-0;writing-mode:lr-tb;fill:#000000;fill-opacity:1;fill-rule:nonzero;stroke:none"
           transform="matrix(1,0,0,-1,30.52543,314.3335)"><tspan
             id="tspan110"
             y="0"
             x="0 4.3319998 7.6680002 10.002 13.338 15.006 17.004 19.866018 23.532017 26.868017 29.202017 32.538017 34.206017 39.540016 42.876019 44.874016 48.210018 49.878017 52.722019">Bare (&quot;bare metal&quot;)</tspan><tspan
             id="tspan112"
             y="6"
             x="5.8593798 9.5253801 11.19338 14.52938 16.52738 18.525379 22.209379 24.543381 29.87738 31.54538 33.543381 36.879379 42.213379 43.881378 45.549381">platform family</tspan><tspan
             id="tspan114"
             y="-56.803501"
             x="89.78318 93.785179 97.121178 98.789177 104.12318 105.79118 110.45918 114.46118 116.12918 120.46118 124.79318">Palm OS ABI</tspan></text>
<text
           id="text126"
           style="font-variant:normal;font-size:6px;font-family:Helvetica;-inkscape-font-specification:f-1-0;writing-mode:lr-tb;fill:#000000;fill-opacity:1;fill-rule:nonzero;stroke:none"
           transform="matrix(1,0,0,-1,287.19261,355.4979)"><tspan
             id="tspan118"
             y="0"
             x="0 4.0019999 7.3379998 10.674 12.023822 13.355823 16.355822 19.691822 21.359823 22.691822 26.027822">Application</tspan><tspan
             id="tspan120"
             y="6"
             x="-1.07813 1.92187 3.58987 6.9258699 10.26187 13.59787 16.93387 18.949986 22.285986 25.285986 26.953985">standards +</tspan><tspan
             id="tspan122"
             y="12"
             x="8.34375 11.67975 15.01575 16.34775 17.697645">build</tspan><tspan
             id="tspan124"
             y="18"
             x="-0.49805 2.83795 6.1739502 8.1719503 11.525772 16.523773 19.859772 21.527773 24.863771 26.861773">parameters</tspan></text>
<text
           id="text132"
           style="font-variant:normal;font-size:6px;font-family:Helvetica;-inkscape-font-specification:f-0-0;writing-mode:lr-tb;fill:#000000;fill-opacity:1;fill-rule:nonzero;stroke:none"
           transform="matrix(1,0,0,-1,204.23406,371.137)"><tspan
             id="tspan128"
             y="0"
             x="0 4.0019999 7.3379998 12.672 16.337999 18.006001 21.341999 25.007999 26.676001 31.344">Symbian OS</tspan><tspan
             id="tspan130"
             y="6"
             x="12.5098 16.841801 21.1738">ABI</tspan></text>
<text
           id="text150"
           style="font-variant:normal;font-size:6px;font-family:Helvetica;-inkscape-font-specification:f-1-0;writing-mode:lr-tb;fill:#000000;fill-opacity:1;fill-rule:nonzero;stroke:none"
           transform="matrix(1,0,0,-1,126.93726,356.57059)"><tspan
             id="tspan134"
             y="0"
             x="0 4.0019999 7.3379998 10.674 12.023834 13.355834 16.355835 19.691835 21.359835 22.691835 26.027834">Application</tspan><tspan
             id="tspan136"
             y="6"
             x="-1.07813 1.92187 3.58987 6.9258699 10.26187 13.59787 16.93387 18.949997 22.285997 25.285997 26.953997">standards +</tspan><tspan
             id="tspan138"
             y="12"
             x="8.34375 11.67975 15.01575 16.34775 17.697659">build</tspan><tspan
             id="tspan140"
             y="18"
             x="-0.49805 2.83795 6.1739502 8.1719503 11.525784 16.523785 19.859785 21.527784 24.863785 26.861784">parameters</tspan><tspan
             id="tspan142"
             y="0.1566"
             x="79.029251 83.03125 86.367249 89.703247 91.05307 92.385071 95.385071 98.721069 100.38907 101.72107 105.05708">Application</tspan><tspan
             id="tspan144"
             y="6.1566"
             x="77.951118 80.951118 82.619118 85.955116 89.291122 92.627121 95.96312 97.979233 101.31524 104.31524 105.98324">standards +</tspan><tspan
             id="tspan146"
             y="12.1566"
             x="87.373001 90.709 94.044998 95.376999 96.726898">build</tspan><tspan
             id="tspan148"
             y="18.156601"
             x="78.531197 81.867203 85.203201 87.201202 90.555023 95.553024 98.889023 100.55702 103.89302 105.89102">parameters</tspan></text>
<text
           id="text174"
           style="font-variant:normal;font-size:6px;font-family:Helvetica;-inkscape-font-specification:f-0-0;writing-mode:lr-tb;fill:#000000;fill-opacity:1;fill-rule:nonzero;stroke:none"
           transform="matrix(1,0,0,-1,312.55746,399.08979)"><tspan
             id="tspan152"
             y="0"
             x="0 1.668 3.336">...</tspan><tspan
             id="tspan154"
             y="13.3285"
             x="-11.0641 -6.3961 -2.0641">QNX</tspan><tspan
             id="tspan156"
             y="27.9527"
             x="-28.020399 -23.6884 -21.354401 -16.020399 -14.3524 -10.6864 -9.0184002 -5.3523998 -1.6864001">Arm Linux</tspan><tspan
             id="tspan158"
             y="33.952702"
             x="-18.35243 -14.02043 -9.6884298">ABI</tspan><tspan
             id="tspan160"
             y="153.0397"
             x="-272.47443 -269.63043 -265.29843 -261.96243 -259.62842 -256.29242 -254.62444 -250.95844 -249.29044 -245.95444 -243.93849 -241.94049 -238.27449 -235.94049 -230.60649 -182.14438 -177.81238 -174.14638 -170.48038 -168.48238 -166.81438 -165.14638 -161.81038 -99.821732 -95.489731 -91.82373 -88.15773 -86.159729 -84.49173 -82.82373 -79.487732 -20.075611 -16.073612 -12.071611 -9.7376118 -6.4016118 -4.3857651 -2.7177651 -1.049765 2.2862349">&quot;Bare platform&quot;DLL-likeDLL-likeSVr4-like</tspan><tspan
             id="tspan162"
             y="212.6252"
             x="-241.45453 -237.45253 -235.78453 -232.11853 -228.45253 -226.78453 -223.44853 -221.78053 -218.44453 -214.77853 -211.11253 -208.77853 -205.44254 -202.08852 -198.75252 -197.08452 -193.74852 -190.08252 -186.74651 -183.41051 -91.74791 -86.749916 -83.083916 -81.415909 -79.417915 -77.749916 -74.083916 -72.415909 -69.07991 -67.411911 -64.075912 -62.407913 -60.073914 -58.075912 -54.409912 -51.073914 -49.405914 -47.737911 -44.401913 -40.735912 -37.069912 -34.735912 -31.381895 -28.045895 -24.709894 -23.041895 -19.705894 -16.039894 -12.703895 -9.3678951 -6.013926">Single address spaceMultiple virtual address spaces</tspan><tspan
             id="tspan164"
             y="226.744"
             x="-158.85452 -154.52254 -151.18652 -147.85052 -144.49672 -142.82872 -138.82672 -137.15872 -133.82272 -131.82472 -129.82672 -126.16072 -123.82672 -118.49272 -116.82472 -112.49272 -108.16072">Base Platform ABI</tspan><tspan
             id="tspan166"
             y="84.755997"
             x="-145.20534 -140.87334 -137.20734 -133.54134 -131.54333 -127.85924 -124.52324 -121.18724 -117.85124">DLL-based</tspan><tspan
             id="tspan168"
             y="90.755997"
             x="-151.19946 -147.53346 -145.86546 -142.52946 -140.53146 -138.53346 -134.84947 -132.51547 -127.18147 -125.51347 -123.51547 -120.17947 -114.84547 -113.17747 -111.50947">platform family</tspan><tspan
             id="tspan170"
             y="84.755997"
             x="-14.09047 -10.08847 -6.0864701 -3.75247">SVr4</tspan><tspan
             id="tspan172"
             y="90.755997"
             x="-28.75647 -25.090469 -23.42247 -20.08647 -18.08847 -16.090469 -12.406477 -10.072476 -4.7384768 -3.0704768 -1.0724769 2.2635231 7.5975232 9.265523 10.933523">platform family</tspan></text>
<text
           id="text210"
           style="font-variant:normal;font-size:6px;font-family:Helvetica;-inkscape-font-specification:f-1-0;writing-mode:lr-tb;fill:#000000;fill-opacity:1;fill-rule:nonzero;stroke:none"
           transform="matrix(1,0,0,-1,29.82799,231.83809)"><tspan
             id="tspan176"
             y="0"
             x="0 4.3319998 7.6680002 9.3360004 12.672 15.672 19.007999 22.362108 27.360109 28.69211 31.69211 35.028111 36.360107 37.710155 40.710155 42.378159 43.710155 47.046158 50.382156 53.718159 57.072266">No dynamically loaded</tspan><tspan
             id="tspan178"
             y="6"
             x="0 3.336 6.336 9.6719999 12.672 16.007999 17.676001 21.011999 24.366018 25.698017 29.034018 32.034019 33.702019 35.370018 39.036018 42.372017">executables. The</tspan><tspan
             id="tspan180"
             y="12"
             x="0 4.3319998 7.9980001 12.666 16.667999 18.336 19.667999 22.667999 24.336 27.336 29.004 32.34 34.007999 35.34 38.34 41.675999 43.007999 44.357815">RTOS is statically</tspan><tspan
             id="tspan182"
             y="18"
             x="0 1.332 2.664 6 9 12.353908 15.689908 17.357908 21.689907 23.021908 24.689907 28.025908 29.693907 31.361908 34.697906">linked with the</tspan><tspan
             id="tspan184"
             y="24"
             x="0 3.336 6.336 9.6719999 12.672 16.007999 17.676001 21.011999 24.366018 25.698017 29.034018 30.702017 32.034019 35.370018 37.038017 41.370018 46.038017 51.036018">executable in ROM.</tspan><tspan
             id="tspan186"
             y="0"
             x="80.2836 84.285599 85.953598 88.953598 92.289597 95.625603 97.641411 100.97741 104.31341 105.98141 107.31341 108.64541 111.98141 113.99727 117.33327 119.33127 122.33127 123.99927 125.99727 130.34727 133.68327 137.01927">A shared library (DLL)</tspan><tspan
             id="tspan188"
             y="6"
             x="80.2836 83.2836 86.619598 89.955597 91.623596 94.959602 98.295601 99.9636 101.6316 104.9676 106.9656 110.31954 113.65555 116.99155 120.32755 123.66354 125.33154 128.66754">can be threaded by</tspan><tspan
             id="tspan190"
             y="12"
             x="80.2836 85.281601 88.617599 89.9496 91.617599 92.9496 96.30352 97.635521 100.97152 102.63952 105.97552 107.97352 111.32735 114.32735 117.66335 120.66335 123.66335 126.99935 129.99936 131.66736 132.99936">multiple processes in</tspan><tspan
             id="tspan192"
             y="18"
             x="80.2836 83.619598 86.955597 90.291603 91.959602 95.295601 98.64962 101.98562 103.98362 107.31962 110.31962 113.31962 114.98762 117.98762 121.32362 124.65961 127.65961 131.01369">one address space.</tspan><tspan
             id="tspan194"
             y="0"
             x="160.88091 164.8829 166.5509 170.8829 174.2189 177.5549 179.2229 182.2229 185.5589 188.91295 190.58095 193.91695 197.25294 198.92094 203.91895 207.25494 210.59094 213.94498 217.28099">A DLL can be mapped</tspan><tspan
             id="tspan196"
             y="6"
             x="160.88091 164.2169 165.8849 167.5529 169.2209 172.5569 175.8929 177.5609 180.5609 183.8969 188.8949 192.2309 193.8989 197.23489 200.57091 203.92503 205.92303 209.25903 212.25903 215.25903 216.92703 218.25903">at the same address in</tspan><tspan
             id="tspan198"
             y="12"
             x="160.88091 165.87891 169.2149 170.54691 172.2149 173.54691 176.90082 178.23282 181.56882 183.23682 186.23682 187.56882 189.56682 191.23482 194.57082 197.92464 199.25664 200.92464 204.26064 207.59665 210.93265 212.94847 216.28447 219.28447">multiple virtual address</tspan><tspan
             id="tspan200"
             y="18"
             x="160.88091 163.88091 167.2169 170.5529 173.5529 176.8889 179.8889">spaces.</tspan><tspan
             id="tspan202"
             y="0"
             x="242.2621 246.2641 247.9321 252.2641 256.26611 260.93411 262.60211 265.60211 268.93811 272.27411 273.94211 277.27811 280.63202 282.30002 287.29803 290.63403 293.97003 297.30603 300.64203">A DSO can be mapped</tspan><tspan
             id="tspan204"
             y="6"
             x="242.2621 245.5981 247.2661 248.9341 252.2701 253.9381 257.27411 258.60611 260.27411 261.94211 265.27811 267.27609 270.61209 273.94809 275.61609 277.28409 280.62009 283.95609 287.31015 289.30814 292.64413 295.64413">at a different address</tspan><tspan
             id="tspan206"
             y="12"
             x="242.2621 243.5941 246.9301 248.5981 251.9341 255.2701 258.27011 261.62421 263.29221 266.6282 268.62622 271.96222 274.96222 278.29822 281.29822 284.29822 285.96622 287.63422 290.97021 294.30621">in each process that</tspan><tspan
             id="tspan208"
             y="18"
             x="242.2621 243.9301 247.2661 249.2641 252.6001 255.9361 259.29022 262.29022 263.95822 265.29022 266.95822">threads it.</tspan></text>
</g><path
         id="path212"
         style="fill:#ffffff;fill-opacity:1;fill-rule:nonzero;stroke:none"
         d="m 3512.62,3021.95 h 237.34 v 1103.67 h -237.34 z" /><path
         id="path214"
         style="fill:none;stroke:#090000;stroke-width:8.67693996;stroke-linecap:butt;stroke-linejoin:miter;stroke-miterlimit:4;stroke-dasharray:none;stroke-opacity:1"
         d="m 3512.62,3021.95 h 237.34 v 1103.67 h -237.34 z" /><g
         transform="scale(10)"
         id="g216"><text
           id="text220"
           style="font-variant:normal;font-weight:bold;font-size:6px;font-family:Helvetica;-inkscape-font-specification:DejaVuSans-Bold;writing-mode:lr-tb;fill:#000000;fill-opacity:1;fill-rule:nonzero;stroke:none"
           transform="matrix(0,1,1,0,364.525,307.838)"><tspan
             id="tspan218"
             y="0"
             x="0 4.4039998 8.526 12.798 16.373968 19.331968 23.399969 26.267969 30.335968 32.423969 36.719967 38.777969 42.845936 45.713936 48.323936 52.445938 55.403938 61.674103 63.7621 67.3321 70.200104 74.250099 78.540268 82.836266 86.886269 89.862236 94.158234">Concrete platform standards</tspan></text>
</g><path
         id="path222"
         style="fill:#d6d6d6;fill-opacity:1;fill-rule:nonzero;stroke:none"
         d="m 215.039,960.469 h 660.82 v 674.141 h -660.82 z" /><path
         id="path224"
         style="fill:none;stroke:#000000;stroke-width:8.73071003;stroke-linecap:butt;stroke-linejoin:miter;stroke-miterlimit:4;stroke-dasharray:none;stroke-opacity:1"
         d="m 215.039,960.469 h 660.82 v 674.141 h -660.82 z" /><path
         id="path226"
         style="fill:#d6d6d6;fill-opacity:1;fill-rule:nonzero;stroke:none"
         d="m 875.859,1359.61 h 966.84 v 275 h -966.84 z" /><path
         id="path228"
         style="fill:none;stroke:#000000;stroke-width:8.73071003;stroke-linecap:butt;stroke-linejoin:miter;stroke-miterlimit:4;stroke-dasharray:none;stroke-opacity:1"
         d="m 875.859,1359.61 h 966.84 v 275 h -966.84 z" /><path
         id="path230"
         style="fill:#d6d6d6;fill-opacity:1;fill-rule:nonzero;stroke:none"
         d="m 875.859,960.469 h 478.98 v 399.141 h -478.98 z" /><path
         id="path232"
         style="fill:none;stroke:#000000;stroke-width:8.7550602;stroke-linecap:butt;stroke-linejoin:miter;stroke-miterlimit:4;stroke-dasharray:none;stroke-opacity:1"
         d="m 875.859,960.469 h 478.98 v 399.141 h -478.98 z" /><path
         id="path234"
         style="fill:#d6d6d6;fill-opacity:1;fill-rule:nonzero;stroke:none"
         d="m 1842.7,1250.98 h 538.871 v 383.629 H 1842.7 Z" /><path
         id="path236"
         style="fill:none;stroke:#000000;stroke-width:8.73071003;stroke-linecap:butt;stroke-linejoin:miter;stroke-miterlimit:4;stroke-dasharray:none;stroke-opacity:1"
         d="m 1842.7,1250.98 h 538.871 v 383.629 H 1842.7 Z" /><path
         id="path238"
         style="fill:#d6d6d6;fill-opacity:1;fill-rule:nonzero;stroke:none"
         d="m 2381.56,1199.96 h 538.871 v 434.648 H 2381.56 Z" /><path
         id="path240"
         style="fill:none;stroke:#000000;stroke-width:8.73071003;stroke-linecap:butt;stroke-linejoin:miter;stroke-miterlimit:4;stroke-dasharray:none;stroke-opacity:1"
         d="m 2381.56,1199.96 h 538.871 v 434.648 H 2381.56 Z" /><path
         id="path242"
         style="fill:#d6d6d6;fill-opacity:1;fill-rule:nonzero;stroke:none"
         d="m 2920.43,1199.96 h 536.641 v 434.648 H 2920.43 Z" /><path
         id="path244"
         style="fill:none;stroke:#000000;stroke-width:8.75306988;stroke-linecap:butt;stroke-linejoin:miter;stroke-miterlimit:4;stroke-dasharray:none;stroke-opacity:1"
         d="m 2920.43,1199.96 h 536.641 v 434.648 H 2920.43 Z" /><path
         id="path246"
         style="fill:#ffffff;fill-opacity:1;fill-rule:nonzero;stroke:none"
         d="m 215.039,740.941 h 1139.8 v 219.527 h -1139.8 z" /><path
         id="path248"
         style="fill:none;stroke:#000000;stroke-width:8.73071003;stroke-linecap:butt;stroke-linejoin:miter;stroke-miterlimit:4;stroke-dasharray:none;stroke-opacity:1"
         d="m 215.039,740.941 h 1139.8 v 219.527 h -1139.8 z" /><path
         id="path250"
         style="fill:#89bfff;fill-opacity:1;fill-rule:nonzero;stroke:none"
         d="m 1354.84,740.941 h 487.852 v 618.668 H 1354.84 Z" /><path
         id="path252"
         style="fill:none;stroke:#000000;stroke-width:8.79804993;stroke-linecap:butt;stroke-linejoin:miter;stroke-miterlimit:4;stroke-dasharray:none;stroke-opacity:1"
         d="m 1354.84,740.941 h 487.852 v 618.668 H 1354.84 Z" /><path
         id="path254"
         style="fill:#89bfff;fill-opacity:1;fill-rule:nonzero;stroke:none"
         d="m 1842.7,740.941 h 538.871 V 1250.98 H 1842.7 Z" /><path
         id="path256"
         style="fill:none;stroke:#000000;stroke-width:8.74975014;stroke-linecap:butt;stroke-linejoin:miter;stroke-miterlimit:4;stroke-dasharray:none;stroke-opacity:1"
         d="m 1842.7,740.941 h 538.871 V 1250.98 H 1842.7 Z" /><path
         id="path258"
         style="fill:#89bfff;fill-opacity:1;fill-rule:nonzero;stroke:none"
         d="m 2381.56,740.941 h 538.871 v 459.02 H 2381.56 Z" /><path
         id="path260"
         style="fill:none;stroke:#000000;stroke-width:8.75187969;stroke-linecap:butt;stroke-linejoin:miter;stroke-miterlimit:4;stroke-dasharray:none;stroke-opacity:1"
         d="m 2381.56,740.941 h 538.871 v 459.02 H 2381.56 Z" /><path
         id="path262"
         style="fill:#d6d6d6;fill-opacity:1;fill-rule:nonzero;stroke:none"
         d="m 2920.43,902.809 h 536.641 v 297.152 H 2920.43 Z" /><path
         id="path264"
         style="fill:none;stroke:#000000;stroke-width:8.71273041;stroke-linecap:butt;stroke-linejoin:miter;stroke-miterlimit:4;stroke-dasharray:none;stroke-opacity:1"
         d="m 2920.43,902.809 h 536.641 v 297.152 H 2920.43 Z" /><path
         id="path266"
         style="fill:#89bfff;fill-opacity:1;fill-rule:nonzero;stroke:none"
         d="m 2920.43,740.93 h 536.641 V 902.809 H 2920.43 Z" /><path
         id="path268"
         style="fill:none;stroke:#000000;stroke-width:8.87117004;stroke-linecap:butt;stroke-linejoin:miter;stroke-miterlimit:4;stroke-dasharray:none;stroke-opacity:1"
         d="m 2920.43,740.93 h 536.641 V 902.809 H 2920.43 Z" /><path
         id="path270"
         style="fill:#fec288;fill-opacity:1;fill-rule:nonzero;stroke:none"
         d="m 62.0313,11.3594 h 3421.64 v 649.73 H 62.0313 Z" /><path
         id="path272"
         style="fill:none;stroke:#000000;stroke-width:8.73071003;stroke-linecap:butt;stroke-linejoin:miter;stroke-miterlimit:4;stroke-dasharray:none;stroke-opacity:1"
         d="m 62.0313,11.3594 h 3421.64 v 649.73 H 62.0313 Z" /><path
         id="path274"
         style="fill:#ffffff;fill-opacity:1;fill-rule:nonzero;stroke:none"
         d="m 332.578,124.449 h 924.691 V 581.25 H 332.578 Z" /><path
         id="path276"
         style="fill:none;stroke:#000000;stroke-width:8.73071003;stroke-linecap:butt;stroke-linejoin:miter;stroke-miterlimit:4;stroke-dasharray:none;stroke-opacity:1"
         d="m 332.578,124.449 h 924.691 V 581.25 H 332.578 Z" /><path
         id="path278"
         style="fill:#ffffff;fill-opacity:1;fill-rule:nonzero;stroke:none"
         d="m 217.27,69.0195 h 924.691 v 456.801 H 217.27 Z" /><path
         id="path280"
         style="fill:none;stroke:#000000;stroke-width:8.73071003;stroke-linecap:butt;stroke-linejoin:miter;stroke-miterlimit:4;stroke-dasharray:none;stroke-opacity:1"
         d="m 217.27,69.0195 h 924.691 v 456.801 H 217.27 Z" /><path
         id="path282"
         style="fill:#ffffff;fill-opacity:1;fill-rule:nonzero;stroke:none"
         d="m 1729.61,171.02 h 649.73 v 461.25 h -649.73 z" /><path
         id="path284"
         style="fill:none;stroke:#000000;stroke-width:8.73071003;stroke-linecap:butt;stroke-linejoin:miter;stroke-miterlimit:4;stroke-dasharray:none;stroke-opacity:1"
         d="m 1729.61,171.02 h 649.73 v 461.25 h -649.73 z" /><path
         id="path286"
         style="fill:#ffffff;fill-opacity:1;fill-rule:nonzero;stroke:none"
         d="m 1623.16,120 h 649.77 v 461.25 h -649.77 z" /><path
         id="path288"
         style="fill:none;stroke:#000000;stroke-width:8.73071003;stroke-linecap:butt;stroke-linejoin:miter;stroke-miterlimit:4;stroke-dasharray:none;stroke-opacity:1"
         d="m 1623.16,120 h 649.77 v 461.25 h -649.77 z" /><path
         id="path290"
         style="fill:#ffffff;fill-opacity:1;fill-rule:nonzero;stroke:none"
         d="m 1514.53,66.8008 h 649.73 v 461.25 h -649.73 z" /><path
         id="path292"
         style="fill:none;stroke:#000000;stroke-width:8.73071003;stroke-linecap:butt;stroke-linejoin:miter;stroke-miterlimit:4;stroke-dasharray:none;stroke-opacity:1"
         d="m 1514.53,66.8008 h 649.73 v 461.25 h -649.73 z" /><path
         id="path294"
         style="fill:#ffffff;fill-opacity:1;fill-rule:nonzero;stroke:none"
         d="m 2652.11,120 h 649.73 v 459.059 h -649.73 z" /><path
         id="path296"
         style="fill:none;stroke:#000000;stroke-width:8.73071003;stroke-linecap:butt;stroke-linejoin:miter;stroke-miterlimit:4;stroke-dasharray:none;stroke-opacity:1"
         d="m 2652.11,120 h 649.73 v 459.059 h -649.73 z" /><path
         id="path298"
         style="fill:#ffffff;fill-opacity:1;fill-rule:nonzero;stroke:none"
         d="m 2539.02,69.0313 h 649.73 v 459.02 h -649.73 z" /><path
         id="path300"
         style="fill:none;stroke:#000000;stroke-width:8.73071003;stroke-linecap:butt;stroke-linejoin:miter;stroke-miterlimit:4;stroke-dasharray:none;stroke-opacity:1"
         d="m 2539.02,69.0313 h 649.73 v 459.02 h -649.73 z" /><g
         transform="scale(10)"
         id="g302"><text
           id="text312"
           style="font-variant:normal;font-weight:normal;font-size:6px;font-family:Helvetica;-inkscape-font-specification:DejaVuSans;writing-mode:lr-tb;fill:#000000;fill-opacity:1;fill-rule:nonzero;stroke:none"
           transform="matrix(1,0,0,-1,45.0406,153.481)"><tspan
             id="tspan304"
             y="0"
             x="0 4.265914 8.3699141 11.987914 16.175915">AAPCS</tspan><tspan
             id="tspan306"
             y="16.631599"
             x="-16.662901 -13.147048 -10.80722 -7.1352196 -3.8352199 -0.1452198 3.6647801 7.46878 9.8209124 13.510913 15.418913 19.606913 23.284912 24.952913">Procedure Call</tspan><tspan
             id="tspan308"
             y="22.631599"
             x="-16.662901 -12.8529 -10.5009 -6.8228998 -3.0188999 0.79110003 4.4691 6.8509207 10.66092 12.56892 14.680921 18.352921 20.81892 22.726921 25.07892 28.882921">Standard for the</tspan><tspan
             id="tspan310"
             y="28.631599"
             x="-16.662901 -12.5589 -10.195048 -4.351048 -2.4430482 1.2349519 3.5870843 6.8870845 10.691085 12.359084 14.711084 18.401085 21.719053 24.071053 27.875053 30.227186">Arm architecture</tspan></text>
<text
           id="text402"
           style="font-variant:normal;font-size:6px;font-family:Helvetica;-inkscape-font-specification:f-1-0;writing-mode:lr-tb;fill:#000000;fill-opacity:1;fill-rule:nonzero;stroke:none"
           transform="matrix(1,0,0,-1,102.8937,152.5939)"><tspan
             id="tspan314"
             y="0"
             x="0 4.3319998 8.3339996 12.353908 16.355907 20.357908 22.025908 23.693907 25.691908 27.359907 31.691908 35.195908 38.699909 40.367908 44.369907 48.371906 50.039909 51.707909 53.375908 56.711906 58.709908 60.377907 62.045906 65.381905">CPPABI - C++ ABI for the</tspan><tspan
             id="tspan316"
             y="6"
             x="12.3398 16.341801 18.3398 23.355818 25.023817 28.359818 30.357817 33.357819 36.693817 38.025818 39.693817 43.029816 46.029816 47.697819 51.033817 53.049957">Arm architecture</tspan><tspan
             id="tspan318"
             y="0"
             x="90.741798 94.743797 98.745796 102.76562 106.10162 109.76762 111.43562 113.43362 115.10162 119.10362 122.43962">AAELF - ELF</tspan><tspan
             id="tspan320"
             y="6"
             x="93.583603 95.251602 98.587601 100.5856 102.2536 103.9216 107.2576 110.5936 112.2616 116.2636 118.2616">for the Arm</tspan><tspan
             id="tspan322"
             y="12"
             x="92.745712 96.081711 98.079712 101.07971 104.41571 105.76563 107.43363 110.76963 113.76963 115.43763 118.77363 120.77163">architecture</tspan><tspan
             id="tspan324"
             y="0"
             x="144.80661 148.80861 152.81061 157.16051 162.82451 166.82651 171.15851 174.82451 176.49251">AADWARF -</tspan><tspan
             id="tspan326"
             y="6"
             x="146.31247 150.64447 156.30847 160.31047 164.64247 168.30847 169.97647 171.64447 174.98047">DWARF for</tspan><tspan
             id="tspan328"
             y="12"
             x="151.14059 152.80859 156.14459 159.48061 161.14861 165.1506 167.14861">the Arm</tspan><tspan
             id="tspan330"
             y="18"
             x="145.96677 149.30276 151.30077 154.30077 157.63676 158.98669 160.65469 163.99069 166.99069 168.65869 171.99469 173.99269">architecture</tspan><tspan
             id="tspan332"
             y="-0.2219"
             x="205.08437 209.41637 213.08237 217.08437 221.10429 222.77229 224.44029">RTABI -</tspan><tspan
             id="tspan334"
             y="5.7781"
             x="197.90663 202.23863 205.57465 208.91064 210.92656 212.59456 213.92656 218.92456 222.26056 223.92856 227.93056 231.95038">Run-time ABI</tspan><tspan
             id="tspan336"
             y="11.7781"
             x="200.91251 202.58051 205.9165 207.91451 209.5825 211.2505 214.5865 217.9225 219.5905 223.5925 225.5905">for the Arm</tspan><tspan
             id="tspan338"
             y="17.778099"
             x="200.07462 203.41061 205.40862 208.40862 211.74461 213.09453 214.76253 218.09853 221.09853 222.76653 226.10252 228.10052">architecture</tspan><tspan
             id="tspan340"
             y="26.610519"
             x="-3.756392 0.245608 4.5776081 8.5975161 12.599516 14.267516 15.935515">EHABI -</tspan><tspan
             id="tspan342"
             y="32.610519"
             x="-6.0942822 -2.0922821 0.907718 3.9077179 7.2437181 10.579718 12.247718 13.579718 16.933846">Exception</tspan><tspan
             id="tspan344"
             y="38.610519"
             x="-10.436082 -6.1040821 -2.7680819 0.567918 3.9217281 5.2537279 6.5857282 9.9217281 13.257728 14.925728 18.927729 22.947905">Handling ABI</tspan><tspan
             id="tspan346"
             y="44.610519"
             x="-7.7583518 -6.0903521 -2.7543521 -0.75635201 0.91164798 2.579648 5.915648 9.2516479 10.919648 14.921648 16.919647">for the Arm</tspan><tspan
             id="tspan348"
             y="50.610519"
             x="-8.5962429 -5.2602429 -3.262243 -0.262243 3.0737569 4.423677 6.0916767 9.4276772 12.427677 14.095677 17.431677 19.429676">architecture</tspan><tspan
             id="tspan350"
             y="27.053921"
             x="52.253757 55.919758 59.255756">The</tspan><tspan
             id="tspan352"
             y="33.053921"
             x="46.915867 51.583866 54.919868 58.255867 61.591866 63.589867 64.939705">Generic</tspan><tspan
             id="tspan354"
             y="39.053921"
             x="46.083836 50.415836 53.919834 57.423836 59.091835 63.093838 67.095833">C++ ABI</tspan><tspan
             id="tspan356"
             y="58.099621"
             x="38.692425 40.690426 44.026424 47.026424 50.362427 52.030426 53.698425 55.366425 58.702427 62.038425 63.370426 66.724457">(aka Itanium</tspan><tspan
             id="tspan358"
             y="64.099617"
             x="42.864307 47.196304 50.700306 54.204308 55.872307 59.874306 63.876305 65.544304">C++ ABI)</tspan><tspan
             id="tspan360"
             y="37.032822"
             x="93.019005 96.685005 100.021 103.357 105.02501 108.36101 111.69701 115.05105 118.38705 120.38505 121.71705">The generic</tspan><tspan
             id="tspan362"
             y="43.032822"
             x="103.36671 107.36871 110.7047">ELF</tspan><tspan
             id="tspan364"
             y="49.032822"
             x="97.190926 100.19093 101.85892 105.19492 108.53093 111.86693 115.20293 117.21904">standard</tspan><tspan
             id="tspan366"
             y="67.635117"
             x="90.413193 92.411194 96.413193 100.43311 102.43111 105.76711 107.43512 112.10312 116.10512 120.10712 121.77512">(SVr4 GABI)</tspan><tspan
             id="tspan368"
             y="43.68552"
             x="145.42259 149.75459 155.41859 159.42059 163.75259 167.41859 169.08659 172.42259 174.09059">DWARF 3.0</tspan><tspan
             id="tspan370"
             y="41.91169"
             x="202.4124 206.7444 210.7464 214.0824 215.7504 219.77022 223.77222 225.44022 227.10822">CBLIABI -</tspan><tspan
             id="tspan372"
             y="47.91169"
             x="205.75224 209.75424 214.08624 218.10612 219.77412 221.44214">ANSI C</tspan><tspan
             id="tspan374"
             y="53.91169"
             x="199.4124 200.7444 202.0764 205.4124 207.42842 210.76442 212.76242 215.76242 217.43042 221.43242 225.45224 227.12024 228.78824 230.45624">library ABI...</tspan><tspan
             id="tspan376"
             y="72.735489"
             x="202.41786 205.75386 207.75186 209.41986 211.08786 214.42386 216.42186 221.43779 224.77379">ar format</tspan><tspan
             id="tspan378"
             y="109.76829"
             x="-58.509132 -56.841133 -53.505135 -51.837135 -48.501133 -47.169132 -45.501133 -41.499134 -37.497135 -34.497135 -31.143116 -29.811117 -26.475117 -24.807116 -20.805117 -16.803116">Intel XScale ABI</tspan><tspan
             id="tspan380"
             y="125.95659"
             x="-63.008743 -61.340744 -59.672745 -58.004745 -56.354839 -53.018837 -49.682838 -46.346836 -44.678837 -40.658741 -36.656742 -34.988743 -31.988741 -30.320742 -28.65274 -25.316742 -23.318741 -21.650742 -18.314741 -16.646742 -13.310741 -9.974741">... and ABIs for other</tspan><tspan
             id="tspan382"
             y="131.95659"
             x="-68.850548 -64.518547 -60.516544 -56.184544 -53.184544 -51.516544 -49.848545 -46.512543 -43.176544 -41.508545 -39.840546 -38.508545 -33.492729 -30.156729 -28.824728 -25.488728 -20.472809 -17.136808 -13.800808 -12.132808 -10.464808 -8.7968082 -5.4608078">CPUs that implement the</tspan><tspan
             id="tspan384"
             y="137.95659"
             x="-57.512646 -53.510643 -51.512646 -46.496628 -44.828625 -41.492626 -39.494625 -36.494625 -33.158627 -31.826626 -30.158627 -26.822626 -23.822626 -22.154627 -18.818626 -16.802481">Arm architecture</tspan><tspan
             id="tspan386"
             y="110.43359"
             x="65.035355 69.037354 71.035355 76.051376 77.719376 82.051376 83.719376 88.051376 91.555374">Arm C/C++</tspan><tspan
             id="tspan388"
             y="116.43359"
             x="67.689659 69.021652 72.357658 75.693657 79.047462 82.383469 85.719467 89.055466">language</tspan><tspan
             id="tspan390"
             y="122.43359"
             x="65.697464 69.033463 72.033463 73.701469 77.037468 80.373466 83.373466 84.705467 88.059578 91.395584">extensions</tspan><tspan
             id="tspan392"
             y="134.43359"
             x="66.716995 70.718994 72.386993 75.386993 77.054993 78.723 82.058998 83.726997 86.726997 88.394997 90.062996 91.713089">Etc, etc ...</tspan><tspan
             id="tspan394"
             y="110.43359"
             x="167.707 171.709 175.045 178.045 179.377 182.377 184.045 188.06482 190.06282">Basic Arm</tspan><tspan
             id="tspan396"
             y="116.43359"
             x="168.70894 172.04495 175.04495 178.04495 181.38095 186.37895 189.73277 191.06477">assembly</tspan><tspan
             id="tspan398"
             y="122.43359"
             x="169.03122 170.3632 173.69922 177.03522 180.38904 183.72504 187.06104 190.39703">language</tspan><tspan
             id="tspan400"
             y="134.43359"
             x="173.72458 177.72658 179.39458 182.39458 184.06258 185.73058 187.39857">Etc ...</tspan></text>
<text
           id="text408"
           style="font-variant:normal;font-size:6px;font-family:Helvetica;-inkscape-font-specification:f-0-0;writing-mode:lr-tb;fill:#000000;fill-opacity:1;fill-rule:nonzero;stroke:none"
           transform="matrix(0,1,1,0,11.6941,72.6195)"><tspan
             id="tspan404"
             y="0"
             x="0 4.3319998 8.6639996 10.332 12 13.998 17.664 19.997999 21.666 23.664 27.33 30.666 32.334 36.666 39 44.334 46.001999 50.334 52.667999 56.004002 59.669998 61.338001 63.353909 66.689911 70.025909 72.023911 75.689911 78.023911 81.377739 83.045746 85.043739 88.70974 92.045746 95.381744 98.717743 100.38574 103.72174 105.73791 109.07391 112.73991 116.40591 119.74191 122.0759 125.74191">ABI for the Arm Architecture (base standard)</tspan><tspan
             id="tspan406"
             y="5.7656298"
             x="-67.259804 -62.927799 -59.591801 -57.923801 -54.587799 -52.589802 -49.23597 -45.569969 -43.90197 -40.565971 -38.56797 -35.231972 -31.565969 -27.899971 -24.546124 -22.212124 -18.546124">Related standards</tspan></text>
<text
           id="text414"
           style="font-variant:normal;font-size:6px;font-family:Helvetica;-inkscape-font-specification:f-0-0;writing-mode:lr-tb;fill:#000000;fill-opacity:1;fill-rule:nonzero;stroke:none"
           transform="matrix(1,0,0,-1,45.2633,86.068)"><tspan
             id="tspan410"
             y="0"
             x="0 4.3319998 7.6680002 11.334 15 18.666 20.334 24.666 29.016018 30.684017 32.352016 34.350018 38.016018 40.350018 42.018017 44.016018 47.682018 51.018017 52.686016 57.018017 59.352016">Debug ABI for the Arm</tspan><tspan
             id="tspan412"
             y="6"
             x="15.1582 18.4942 20.828199 24.1642 27.8302 29.498199 31.496201 34.832199 38.186329 40.184326 43.850327 46.184326">architecture</tspan></text>
<text
           id="text418"
           style="font-variant:normal;font-size:6px;font-family:Helvetica;-inkscape-font-specification:f-1-0;writing-mode:lr-tb;fill:#000000;fill-opacity:1;fill-rule:nonzero;stroke:none"
           transform="matrix(1,0,0,-1,149.675,291.634)"><tspan
             id="tspan416"
             y="0"
             x="0 4.6680002 8.0039997 11.34 14.676 16.674 18.023834 21.023834 22.691835 26.027834 29.363834 30.695835 32.027836 35.363834 37.031834 40.367836 43.721889 45.719887 49.055889 54.071888 57.40789 59.07589 62.411888 64.409889">Generic build parameters</tspan></text>
<text
           id="text422"
           style="font-variant:normal;font-size:6px;font-family:Helvetica;-inkscape-font-specification:f-4-0;writing-mode:lr-tb;fill:#000000;fill-opacity:1;fill-rule:nonzero;stroke:none"
           transform="matrix(1,0,0,-1,71.8258,281.4336)"><tspan
             id="tspan420"
             y="0"
             x="0 1.668 5.0040002 6.6719999 10.008 12.006 13.674 17.01 20.01 23.346001 25.014 28.35 31.686001 33.354 37.686001 41.039848 44.375847 47.711845 49.379848 52.715847 56.051846 57.383846 60.7379 63.7379 65.405899 67.073898 70.409904 72.407898 75.743904 79.079903 82.415901 85.415901 86.766029 90.102028 93.438026 95.106026 96.774025 100.11003 103.44603 104.77803 107.77803 109.44603 112.78203 116.11803 119.47189 121.13988 124.13988 125.80788 129.14389 130.81189 132.14389 135.14389 136.81189 140.14789 143.14789 146.48389 149.48389 152.81989 154.48788 155.81989 159.15588 162.49188 164.15988 167.49588 170.85002 173.85002 175.18202 177.18002 180.51602 183.86995 188.86795 192.20395 195.53995 197.20795 200.20795 201.87595 203.87395 208.54195 212.54395 215.87994 218.87994">Interface between object producing tools and static execution environments (OSes)</tspan></text>
<text
           id="text426"
           style="font-variant:normal;font-size:6px;font-family:Helvetica;-inkscape-font-specification:f-1-0;writing-mode:lr-tb;fill:#000000;fill-opacity:1;fill-rule:nonzero;stroke:none"
           transform="matrix(1,0,0,-1,72.934,271.67618)"><tspan
             id="tspan424"
             y="0"
             x="0 4.0019999 7.3379998 10.338 13.674 15.342 18.677999 20.028128 23.364128 25.032127 26.700127 30.036127 32.034126 37.032127 38.700127 42.036129 45.036129 48.372128 51.372128 54.726181 56.39418 59.730183 63.066181 64.398178 67.734184 70.734184 72.402184 74.400185 76.068184 79.404182 81.420319 83.088318 86.424324 87.756325 91.092323 92.760323 94.428322 97.76432 99.762321 104.77813 106.77613 109.77613 113.11213 116.44813 119.44813 120.79805 122.46605 123.79805 126.79805 128.46605 131.80205 135.13805 138.13805 139.80605 141.80405 143.13605 144.46805 147.82187 150.82187 152.15387 155.48987 158.82587 160.49387 163.82988 167.16588 170.51991 172.18791 176.51991 181.18791 186.18591 187.85391 191.18991 194.52591 197.86191 201.19792 203.21405 206.55005 208.21805 209.55005 212.88606 216.22206">Base platform executables (for platform-specific post-linking and ROM generation)</tspan></text>
</g><path
         id="path428"
         style="fill:none;stroke:#000000;stroke-width:7.51180983;stroke-linecap:butt;stroke-linejoin:miter;stroke-miterlimit:4;stroke-dasharray:none;stroke-opacity:1"
         d="m 2239.65,2982.85 v -77.62" /><path
         id="path430"
         style="fill:#000000;fill-opacity:1;fill-rule:evenodd;stroke:none"
         d="m 2248.75,2919.73 -9.06,-24.65 -9.07,24.65 c 5.36,-3.95 12.66,-3.91 18.13,0 z" /><path
         id="path432"
         style="fill:none;stroke:#000000;stroke-width:1.40846002;stroke-linecap:butt;stroke-linejoin:round;stroke-miterlimit:4;stroke-dasharray:none;stroke-opacity:1"
         d="m 2248.75,2919.73 -9.06,-24.65 -9.07,24.65 c 5.36,-3.95 12.66,-3.91 18.13,0 z" /><path
         id="path434"
         style="fill:none;stroke:#000000;stroke-width:7.51180983;stroke-linecap:butt;stroke-linejoin:miter;stroke-miterlimit:4;stroke-dasharray:none;stroke-opacity:1"
         d="M 3011.37,2701.25 V 2770" /><path
         id="path436"
         style="fill:#000000;fill-opacity:1;fill-rule:evenodd;stroke:none"
         d="m 3002.27,2755.51 9.06,24.65 9.06,-24.65 c -5.35,3.94 -12.69,3.9 -18.12,0 z" /><path
         id="path438"
         style="fill:none;stroke:#000000;stroke-width:1.40846002;stroke-linecap:butt;stroke-linejoin:round;stroke-miterlimit:4;stroke-dasharray:none;stroke-opacity:1"
         d="m 3002.27,2755.51 9.06,24.65 9.06,-24.65 c -5.35,3.94 -12.69,3.9 -18.12,0 z" /></g></g></svg>