<?xml version="1.0" encoding="UTF-8" standalone="no"?>
<svg
   xmlns:dc="http://purl.org/dc/elements/1.1/"
   xmlns:cc="http://creativecommons.org/ns#"
   xmlns:rdf="http://www.w3.org/1999/02/22-rdf-syntax-ns#"
   xmlns:svg="http://www.w3.org/2000/svg"
   xmlns="http://www.w3.org/2000/svg"
   viewBox="0 0 478.66666 265.33334"
   height="265.33334"
   width="478.66666"
   xml:space="preserve"
   id="svg2"
   version="1.1"><metadata
     id="metadata8"><rdf:RDF><cc:Work
         rdf:about=""><dc:format>image/svg+xml</dc:format><dc:type
           rdf:resource="http://purl.org/dc/dcmitype/StillImage" /></cc:Work></rdf:RDF></metadata><defs
     id="defs6" /><g
     transform="matrix(1.3333333,0,0,-1.3333333,0,265.33333)"
     id="g10"><g
       transform="scale(0.1)"
       id="g12"><path
         id="path14"
         style="fill:#fdfdfd;fill-opacity:1;fill-rule:nonzero;stroke:none"
         d="m 899.18,1146.49 h 432.621 v 220.391 H 899.18 Z" /><path
         id="path16"
         style="fill:none;stroke:#000000;stroke-width:7.51180983;stroke-linecap:butt;stroke-linejoin:miter;stroke-miterlimit:4;stroke-dasharray:none;stroke-opacity:1"
         d="m 899.18,1146.49 h 432.621 v 220.391 H 899.18 Z" /><path
         id="path18"
         style="fill:#f5f5f5;fill-opacity:1;fill-rule:nonzero;stroke:none"
         d="m 899.18,1017.18 h 434.379 v 129.301 H 899.18 Z" /><path
         id="path20"
         style="fill:none;stroke:#000000;stroke-width:7.51180983;stroke-linecap:butt;stroke-linejoin:miter;stroke-miterlimit:4;stroke-dasharray:none;stroke-opacity:1"
         d="m 899.18,1017.18 h 434.379 v 129.301 H 899.18 Z" /><g
         transform="scale(10)"
         id="g22"><text
           id="text30"
           style="font-variant:normal;font-size:6px;font-family:Helvetica;-inkscape-font-specification:f-0-0;writing-mode:lr-tb;fill:#000000;fill-opacity:1;fill-rule:nonzero;stroke:none"
           transform="matrix(1,0,0,-1,95.7512,127.177)"><tspan
             id="tspan24"
             y="0"
             x="0 4.3319998 7.6680002 9 12.353908 15.353908 18.689907 20.357908 23.693907 27.029907 28.361908">Relocatable</tspan><tspan
             id="tspan26"
             y="7.2750001"
             x="12.0176 13.6856 15.0176 16.3496">file</tspan><tspan
             id="tspan28"
             y="20.761299"
             x="2.9437699 6.9457698 8.6137695 10.28177 12.27977 13.61177 16.947769 20.30158 21.96958 25.30558">Attributes</tspan></text>
</g><path
         id="path32"
         style="fill:#fdfdfd;fill-opacity:1;fill-rule:nonzero;stroke:none"
         d="m 836.52,1082.7 h 432.66 v 220.391 H 836.52 Z" /><path
         id="path34"
         style="fill:none;stroke:#000000;stroke-width:7.51180983;stroke-linecap:butt;stroke-linejoin:miter;stroke-miterlimit:4;stroke-dasharray:none;stroke-opacity:1"
         d="m 836.52,1082.7 h 432.66 v 220.391 H 836.52 Z" /><path
         id="path36"
         style="fill:#fdfdfd;fill-opacity:1;fill-rule:nonzero;stroke:none"
         d="m 836.52,953.359 h 434.379 v 129.34 H 836.52 Z" /><path
         id="path38"
         style="fill:none;stroke:#000000;stroke-width:7.51180983;stroke-linecap:butt;stroke-linejoin:miter;stroke-miterlimit:4;stroke-dasharray:none;stroke-opacity:1"
         d="m 836.52,953.359 h 434.379 v 129.34 H 836.52 Z" /><g
         transform="scale(10)"
         id="g40"><text
           id="text48"
           style="font-variant:normal;font-size:6px;font-family:Helvetica;-inkscape-font-specification:f-0-0;writing-mode:lr-tb;fill:#000000;fill-opacity:1;fill-rule:nonzero;stroke:none"
           transform="matrix(1,0,0,-1,89.4879,120.798)"><tspan
             id="tspan42"
             y="0"
             x="0 4.3319998 7.6680002 9 12.353908 15.353908 18.689907 20.357908 23.693907 27.029907 28.361908">Relocatable</tspan><tspan
             id="tspan44"
             y="7.2750001"
             x="12.0176 13.6856 15.0176 16.3496">file</tspan><tspan
             id="tspan46"
             y="20.7617"
             x="2.9437699 6.9457698 8.6137695 10.28177 12.27977 13.61177 16.947769 20.30158 21.96958 25.30558">Attributes</tspan></text>
</g><path
         id="path50"
         style="fill:#fdfdfd;fill-opacity:1;fill-rule:nonzero;stroke:none"
         d="m 766.641,1018.63 h 432.66 v 220.391 h -432.66 z" /><path
         id="path52"
         style="fill:none;stroke:#000000;stroke-width:7.51180983;stroke-linecap:butt;stroke-linejoin:miter;stroke-miterlimit:4;stroke-dasharray:none;stroke-opacity:1"
         d="m 766.641,1018.63 h 432.66 v 220.391 h -432.66 z" /><path
         id="path54"
         style="fill:#f5f5f5;fill-opacity:1;fill-rule:nonzero;stroke:none"
         d="m 766.641,889.289 h 434.379 v 129.34 H 766.641 Z" /><path
         id="path56"
         style="fill:none;stroke:#000000;stroke-width:7.51180983;stroke-linecap:butt;stroke-linejoin:miter;stroke-miterlimit:4;stroke-dasharray:none;stroke-opacity:1"
         d="m 766.641,889.289 h 434.379 v 129.34 H 766.641 Z" /><g
         transform="scale(10)"
         id="g58"><text
           id="text66"
           style="font-variant:normal;font-size:6px;font-family:Helvetica;-inkscape-font-specification:f-0-0;writing-mode:lr-tb;fill:#000000;fill-opacity:1;fill-rule:nonzero;stroke:none"
           transform="matrix(1,0,0,-1,82.4996,114.389)"><tspan
             id="tspan60"
             y="0"
             x="0 4.3319998 7.6680002 9 12.353908 15.353908 18.689907 20.357908 23.693907 27.029907 28.361908">Relocatable</tspan><tspan
             id="tspan62"
             y="7.2750001"
             x="12.0176 13.6856 15.0176 16.3496">file</tspan><tspan
             id="tspan64"
             y="20.761299"
             x="2.9437699 6.9457698 8.6137695 10.28177 12.27977 13.61177 16.947769 20.30158 21.96958 25.30558">Attributes</tspan></text>
</g><path
         id="path68"
         style="fill:#ffffff;fill-opacity:1;fill-rule:nonzero;stroke:none"
         d="m 611.52,1804.14 c 0,-8.32 -7.54,-15.08 -16.79,-15.08 -9.3,0 -16.839,6.76 -16.839,15.08 0,8.32 7.539,15.08 16.839,15.08 9.25,0 16.79,-6.76 16.79,-15.08 z" /><path
         id="path70"
         style="fill:none;stroke:#000000;stroke-width:7.5;stroke-linecap:butt;stroke-linejoin:miter;stroke-miterlimit:4;stroke-dasharray:22.5, 22.5;stroke-dashoffset:0;stroke-opacity:1"
         d="m 611.52,1804.14 c 0,-8.32 -7.54,-15.08 -16.79,-15.08 -9.3,0 -16.839,6.76 -16.839,15.08 0,8.32 7.539,15.08 16.839,15.08 9.25,0 16.79,-6.76 16.79,-15.08 z" /><path
         id="path72"
         style="fill:#ffffff;fill-opacity:1;fill-rule:nonzero;stroke:none"
         d="m 594.141,1758.91 c 0,-16.02 -14.301,-28.99 -31.911,-28.99 -17.621,0 -31.878,12.97 -31.878,28.99 0,16.01 14.257,28.98 31.878,28.98 17.61,0 31.911,-12.97 31.911,-28.98 z" /><path
         id="path74"
         style="fill:none;stroke:#000000;stroke-width:7.5;stroke-linecap:butt;stroke-linejoin:miter;stroke-miterlimit:4;stroke-dasharray:22.5, 22.5;stroke-dashoffset:0;stroke-opacity:1"
         d="m 594.141,1758.91 c 0,-16.02 -14.301,-28.99 -31.911,-28.99 -17.621,0 -31.878,12.97 -31.878,28.99 0,16.01 14.257,28.98 31.878,28.98 17.61,0 31.911,-12.97 31.911,-28.98 z" /><path
         id="path76"
         style="fill:#ffffff;fill-opacity:1;fill-rule:nonzero;stroke:none"
         d="m 575.59,1686.41 c 0,-24.65 -22.86,-44.65 -51.059,-44.65 -28.16,0 -51.011,20 -51.011,44.65 0,24.68 22.851,44.64 51.011,44.64 28.199,0 51.059,-19.96 51.059,-44.64 z" /><path
         id="path78"
         style="fill:none;stroke:#000000;stroke-width:7.5;stroke-linecap:butt;stroke-linejoin:miter;stroke-miterlimit:4;stroke-dasharray:22.5, 22.5;stroke-dashoffset:0;stroke-opacity:1"
         d="m 575.59,1686.41 c 0,-24.65 -22.86,-44.65 -51.059,-44.65 -28.16,0 -51.011,20 -51.011,44.65 0,24.68 22.851,44.64 51.011,44.64 28.199,0 51.059,-19.96 51.059,-44.64 z" /><path
         id="path80"
         style="fill:#ffffff;fill-opacity:1;fill-rule:nonzero;stroke:none"
         d="m 340.699,1693.95 c -22.179,0 -42.808,-11.06 -54.879,-29.3 -11.09,7.73 -24.34,11.91 -37.89,11.91 -25.352,-0.04 -48.399,-14.41 -59.219,-36.91 -8.359,3.67 -17.461,5.58 -26.641,5.58 -17.379,0 -34.019,-6.75 -46.332,-18.82 -12.297,-12.07 -19.1794,-28.48 -19.1794,-45.55 0,-7.85 1.4922,-15.66 4.3394,-23.05 -2.3785,0.28 -4.8082,0.43 -7.2691,0.43 -36.168,0 -65.5078,-28.79 -65.5078,-64.37 0,-16.02 6.1406,-31.49 17.1484,-43.32 -25.039,-9.69 -41.5195,-33.44 -41.5195,-59.89 0.03906,-23 12.5391,-44.25 32.8516,-55.74 -12.1133,-12.03 -18.9024,-28.24 -18.9024,-45.19 0,-30.94 22.4219,-57.46 53.3906,-63.21 -0.8203,-4.02 -1.2109,-8.08 -1.2109,-12.18 0,-35.55 29.3399,-64.34 65.5121,-64.34 12.5,0 24.73,3.48 35.269,10.08 5.59,-30.67 32.738,-53.01 64.5,-53.01 21.91,0 42.34,10.78 54.488,28.71 12.153,-17.93 32.622,-28.71 54.532,-28.71 31.761,0.04 58.91,22.42 64.449,53.16 12.391,-13.16 29.812,-20.66 48.051,-20.7 33.121,0.04 61.019,24.34 65,56.64 8.398,-3.67 17.461,-5.58 26.64,-5.58 36.211,0 65.508,28.82 65.508,64.37 0,5.16 -0.668,10.31 -1.918,15.31 31.801,4.96 55.281,31.88 55.281,63.56 0,16.44 -6.453,32.26 -17.929,44.22 25.429,9.45 42.297,33.4 42.297,60.15 0,25.82 -15.7,49.14 -39.918,59.26 13.589,12.19 21.328,29.42 21.371,47.46 0,35.55 -29.34,64.38 -65.551,64.38 -0.859,-0.04 -1.68,-0.04 -2.539,-0.08 -4.922,31.37 -32.383,54.57 -64.723,54.61 -20.59,-0.04 -39.929,-9.57 -52.269,-25.74 -9.571,25.19 -34.02,41.95 -61.41,41.95 -12.34,0 -24.489,-3.44 -34.918,-9.96 -12.461,15.12 -31.133,23.87 -50.903,23.87 z" /><path
         id="path82"
         style="fill:none;stroke:#000000;stroke-width:7.5;stroke-linecap:butt;stroke-linejoin:miter;stroke-miterlimit:4;stroke-dasharray:22.5, 22.5;stroke-dashoffset:0;stroke-opacity:1"
         d="m 340.699,1693.95 c -22.179,0 -42.808,-11.06 -54.879,-29.3 -11.09,7.73 -24.34,11.91 -37.89,11.91 -25.352,-0.04 -48.399,-14.41 -59.219,-36.91 -8.359,3.67 -17.461,5.58 -26.641,5.58 -17.379,0 -34.019,-6.75 -46.332,-18.82 -12.297,-12.07 -19.1794,-28.48 -19.1794,-45.55 0,-7.85 1.4922,-15.66 4.3394,-23.05 -2.3785,0.28 -4.8082,0.43 -7.2691,0.43 -36.168,0 -65.5078,-28.79 -65.5078,-64.37 0,-16.02 6.1406,-31.49 17.1484,-43.32 -25.039,-9.69 -41.5195,-33.44 -41.5195,-59.89 0.03906,-23 12.5391,-44.25 32.8516,-55.74 -12.1133,-12.03 -18.9024,-28.24 -18.9024,-45.19 0,-30.94 22.4219,-57.46 53.3906,-63.21 -0.8203,-4.02 -1.2109,-8.08 -1.2109,-12.18 0,-35.55 29.3399,-64.34 65.5121,-64.34 12.5,0 24.73,3.48 35.269,10.08 5.59,-30.67 32.738,-53.01 64.5,-53.01 21.91,0 42.34,10.78 54.488,28.71 12.153,-17.93 32.622,-28.71 54.532,-28.71 31.761,0.04 58.91,22.42 64.449,53.16 12.391,-13.16 29.812,-20.66 48.051,-20.7 33.121,0.04 61.019,24.34 65,56.64 8.398,-3.67 17.461,-5.58 26.64,-5.58 36.211,0 65.508,28.82 65.508,64.37 0,5.16 -0.668,10.31 -1.918,15.31 31.801,4.96 55.281,31.88 55.281,63.56 0,16.44 -6.453,32.26 -17.929,44.22 25.429,9.45 42.297,33.4 42.297,60.15 0,25.82 -15.7,49.14 -39.918,59.26 13.589,12.19 21.328,29.42 21.371,47.46 0,35.55 -29.34,64.38 -65.551,64.38 -0.859,-0.04 -1.68,-0.04 -2.539,-0.08 -4.922,31.37 -32.383,54.57 -64.723,54.61 -20.59,-0.04 -39.929,-9.57 -52.269,-25.74 -9.571,25.19 -34.02,41.95 -61.41,41.95 -12.34,0 -24.489,-3.44 -34.918,-9.96 -12.461,15.12 -31.133,23.87 -50.903,23.87 z" /><path
         id="path84"
         style="fill:#ffffff;fill-opacity:1;fill-rule:nonzero;stroke:none"
         d="m 679.961,401.879 c 0,-8.988 -7.262,-16.258 -16.25,-16.258 -8.941,0 -16.211,7.27 -16.211,16.258 0,8.941 7.27,16.242 16.211,16.242 8.988,0 16.25,-7.301 16.25,-16.242 z" /><path
         id="path86"
         style="fill:none;stroke:#000000;stroke-width:7.5;stroke-linecap:butt;stroke-linejoin:miter;stroke-miterlimit:4;stroke-dasharray:22.5, 22.5;stroke-dashoffset:0;stroke-opacity:1"
         d="m 679.961,401.879 c 0,-8.988 -7.262,-16.258 -16.25,-16.258 -8.941,0 -16.211,7.27 -16.211,16.258 0,8.941 7.27,16.242 16.211,16.242 8.988,0 16.25,-7.301 16.25,-16.242 z" /><path
         id="path88"
         style="fill:#ffffff;fill-opacity:1;fill-rule:nonzero;stroke:none"
         d="m 659.059,447.109 c 0,-16.679 -16.598,-30.16 -37.11,-30.16 -20.469,0 -37.109,13.481 -37.109,30.16 0,16.641 16.64,30.161 37.109,30.161 20.512,0 37.11,-13.52 37.11,-30.161 z" /><path
         id="path90"
         style="fill:none;stroke:#000000;stroke-width:7.5;stroke-linecap:butt;stroke-linejoin:miter;stroke-miterlimit:4;stroke-dasharray:22.5, 22.5;stroke-dashoffset:0;stroke-opacity:1"
         d="m 659.059,447.109 c 0,-16.679 -16.598,-30.16 -37.11,-30.16 -20.469,0 -37.109,13.481 -37.109,30.16 0,16.641 16.64,30.161 37.109,30.161 20.512,0 37.11,-13.52 37.11,-30.161 z" /><path
         id="path92"
         style="fill:#ffffff;fill-opacity:1;fill-rule:nonzero;stroke:none"
         d="m 621.949,499.879 c 0,-19.527 -26.48,-35.391 -59.14,-35.391 -32.649,0 -59.137,15.864 -59.137,35.391 0,19.531 26.488,35.351 59.137,35.351 32.66,0 59.14,-15.82 59.14,-35.351 z" /><path
         id="path94"
         style="fill:none;stroke:#000000;stroke-width:7.5;stroke-linecap:butt;stroke-linejoin:miter;stroke-miterlimit:4;stroke-dasharray:22.5, 22.5;stroke-dashoffset:0;stroke-opacity:1"
         d="m 621.949,499.879 c 0,-19.527 -26.48,-35.391 -59.14,-35.391 -32.649,0 -59.137,15.864 -59.137,35.391 0,19.531 26.488,35.351 59.137,35.351 32.66,0 59.14,-15.82 59.14,-35.351 z" /><path
         id="path96"
         style="fill:#ffffff;fill-opacity:1;fill-rule:nonzero;stroke:none"
         d="m 383.051,905.23 c -31.25,0 -60.352,-10.148 -77.313,-26.992 -16.949,9.883 -38.976,15.391 -61.867,15.391 -50.941,0 -92.23,-26.438 -92.23,-59.141 0,-0.738 0.039,-1.476 0.121,-2.187 -5.59,0.668 -11.25,1.019 -16.961,1.058 -50.8908,0 -92.1799,-26.519 -92.1799,-59.179 0.0391,-10.629 4.5273,-21.02 13,-30.16 C 25.5117,733.789 6.67969,713.711 6.64063,691.84 6.67969,671.129 23.6289,651.91 51.2891,641.25 41.1289,631.52 35.6602,620.039 35.6602,608.32 c 0,-32.66 41.289,-59.14 92.1918,-59.14 6.918,0.039 13.789,0.55 20.546,1.558 9.762,-26.718 46.872,-45.617 89.653,-45.617 28.937,0 56.168,8.75 73.551,23.59 14.769,-21.371 47.738,-35.191 84.179,-35.191 50.938,0 92.231,26.48 92.231,59.14 0,1.32 -0.082,2.61 -0.242,3.942 11.761,-3.364 24.5,-5.082 37.351,-5.122 50.93,0 92.219,26.489 92.219,59.141 -0.039,5.508 -1.211,10.938 -3.59,16.219 5.781,-0.75 11.641,-1.102 17.5,-1.141 50.941,0 92.23,26.492 92.191,59.18 -0.043,18.012 -12.851,35.043 -34.851,46.25 18.519,11.172 29.031,26.723 29.07,43.051 0,30.429 -35.941,55.859 -83.129,58.871 0.469,2.418 0.739,4.84 0.778,7.258 0,32.66 -41.289,59.14 -92.219,59.14 -31.328,-0.039 -60.512,-10.269 -77.469,-27.148 -15.5,20.16 -47.531,32.929 -82.609,32.929 z" /><path
         id="path98"
         style="fill:none;stroke:#000000;stroke-width:7.5;stroke-linecap:butt;stroke-linejoin:miter;stroke-miterlimit:4;stroke-dasharray:22.5, 22.5;stroke-dashoffset:0;stroke-opacity:1"
         d="m 383.051,905.23 c -31.25,0 -60.352,-10.148 -77.313,-26.992 -16.949,9.883 -38.976,15.391 -61.867,15.391 -50.941,0 -92.23,-26.438 -92.23,-59.141 0,-0.738 0.039,-1.476 0.121,-2.187 -5.59,0.668 -11.25,1.019 -16.961,1.058 -50.8908,0 -92.1799,-26.519 -92.1799,-59.179 0.0391,-10.629 4.5273,-21.02 13,-30.16 C 25.5117,733.789 6.67969,713.711 6.64063,691.84 6.67969,671.129 23.6289,651.91 51.2891,641.25 41.1289,631.52 35.6602,620.039 35.6602,608.32 c 0,-32.66 41.289,-59.14 92.1918,-59.14 6.918,0.039 13.789,0.55 20.546,1.558 9.762,-26.718 46.872,-45.617 89.653,-45.617 28.937,0 56.168,8.75 73.551,23.59 14.769,-21.371 47.738,-35.191 84.179,-35.191 50.938,0 92.231,26.48 92.231,59.14 0,1.32 -0.082,2.61 -0.242,3.942 11.761,-3.364 24.5,-5.082 37.351,-5.122 50.93,0 92.219,26.489 92.219,59.141 -0.039,5.508 -1.211,10.938 -3.59,16.219 5.781,-0.75 11.641,-1.102 17.5,-1.141 50.941,0 92.23,26.492 92.191,59.18 -0.043,18.012 -12.851,35.043 -34.851,46.25 18.519,11.172 29.031,26.723 29.07,43.051 0,30.429 -35.941,55.859 -83.129,58.871 0.469,2.418 0.739,4.84 0.778,7.258 0,32.66 -41.289,59.14 -92.219,59.14 -31.328,-0.039 -60.512,-10.269 -77.469,-27.148 -15.5,20.16 -47.531,32.929 -82.609,32.929 z" /><path
         id="path100"
         style="fill:#ffffff;fill-opacity:1;fill-rule:nonzero;stroke:none"
         d="m 2701.6,1783.28 c 0,-10.27 -8.83,-18.55 -19.72,-18.55 -10.9,0 -19.73,8.28 -19.73,18.55 0,10.24 8.83,18.56 19.73,18.56 10.89,0 19.72,-8.32 19.72,-18.56 z" /><path
         id="path102"
         style="fill:none;stroke:#000000;stroke-width:7.5;stroke-linecap:butt;stroke-linejoin:miter;stroke-miterlimit:4;stroke-dasharray:22.5, 22.5;stroke-dashoffset:0;stroke-opacity:1"
         d="m 2701.6,1783.28 c 0,-10.27 -8.83,-18.55 -19.72,-18.55 -10.9,0 -19.73,8.28 -19.73,18.55 0,10.24 8.83,18.56 19.73,18.56 10.89,0 19.72,-8.32 19.72,-18.56 z" /><path
         id="path104"
         style="fill:#ffffff;fill-opacity:1;fill-rule:nonzero;stroke:none"
         d="m 2788.59,1742.11 c 0,-16.99 -17.38,-30.74 -38.86,-30.74 -21.45,0 -38.83,13.75 -38.83,30.74 0,16.95 17.38,30.7 38.83,30.7 21.48,0 38.86,-13.75 38.86,-30.7 z" /><path
         id="path106"
         style="fill:none;stroke:#000000;stroke-width:7.5;stroke-linecap:butt;stroke-linejoin:miter;stroke-miterlimit:4;stroke-dasharray:22.5, 22.5;stroke-dashoffset:0;stroke-opacity:1"
         d="m 2788.59,1742.11 c 0,-16.99 -17.38,-30.74 -38.86,-30.74 -21.45,0 -38.83,13.75 -38.83,30.74 0,16.95 17.38,30.7 38.83,30.7 21.48,0 38.86,-13.75 38.86,-30.7 z" /><path
         id="path108"
         style="fill:#ffffff;fill-opacity:1;fill-rule:nonzero;stroke:none"
         d="m 2910.39,1694.53 c 0,-26.56 -23.63,-48.12 -52.77,-48.12 -29.14,0 -52.78,21.56 -52.78,48.12 0,26.6 23.64,48.13 52.78,48.13 29.14,0 52.77,-21.53 52.77,-48.13 z" /><path
         id="path110"
         style="fill:none;stroke:#000000;stroke-width:7.5;stroke-linecap:butt;stroke-linejoin:miter;stroke-miterlimit:4;stroke-dasharray:22.5, 22.5;stroke-dashoffset:0;stroke-opacity:1"
         d="m 2910.39,1694.53 c 0,-26.56 -23.63,-48.12 -52.77,-48.12 -29.14,0 -52.78,21.56 -52.78,48.12 0,26.6 23.64,48.13 52.78,48.13 29.14,0 52.77,-21.53 52.77,-48.13 z" /><path
         id="path112"
         style="fill:#ffffff;fill-opacity:1;fill-rule:nonzero;stroke:none"
         d="m 3319.8,1851.72 c -33.16,-0.04 -64.1,-14.96 -82.3,-39.77 -18.48,16.53 -43.52,25.82 -69.61,25.82 -44.77,-0.04 -83.83,-27.03 -95.23,-65.7 -13.36,5.82 -27.97,8.83 -42.82,8.87 -53.67,-0.04 -97.42,-38.44 -98.47,-86.41 -50.12,-4.73 -88.21,-42.5 -88.28,-87.58 0.03,-17.57 5.97,-34.76 17.03,-49.33 -18.28,-16.49 -28.56,-38.75 -28.6,-62 0.04,-30.58 17.86,-58.98 47.03,-75 -0.43,-3.2 -0.62,-6.44 -0.66,-9.68 0.04,-48.67 44.14,-88.13 98.59,-88.13 6.33,0 12.66,0.59 18.83,1.68 3.79,-46.05 46.68,-81.72 98.32,-81.72 23.87,0.04 46.96,7.82 64.89,21.92 17.38,-27.81 50.23,-45.08 85.89,-45.12 44.73,0.08 83.79,26.99 95.2,65.66 11.76,-4.29 24.34,-6.48 37.03,-6.52 54.45,0 98.59,39.49 98.59,88.17 -0.03,6.83 -0.97,13.63 -2.77,20.27 50.27,4.57 88.56,42.42 88.59,87.58 0,17.34 -5.74,34.29 -16.48,48.71 22.19,16.72 35,41.33 35.04,67.3 0,38.64 -28.13,72.74 -69.41,84.18 7.5,12.66 11.4,26.76 11.44,41.1 0,48.67 -44.14,88.12 -98.59,88.12 -5.08,-0.04 -10.12,-0.39 -15.12,-1.09 -16.72,29.8 -50.82,48.63 -88.13,48.67 z" /><path
         id="path114"
         style="fill:none;stroke:#000000;stroke-width:7.5;stroke-linecap:butt;stroke-linejoin:miter;stroke-miterlimit:4;stroke-dasharray:22.5, 22.5;stroke-dashoffset:0;stroke-opacity:1"
         d="m 3319.8,1851.72 c -33.16,-0.04 -64.1,-14.96 -82.3,-39.77 -18.48,16.53 -43.52,25.82 -69.61,25.82 -44.77,-0.04 -83.83,-27.03 -95.23,-65.7 -13.36,5.82 -27.97,8.83 -42.82,8.87 -53.67,-0.04 -97.42,-38.44 -98.47,-86.41 -50.12,-4.73 -88.21,-42.5 -88.28,-87.58 0.03,-17.57 5.97,-34.76 17.03,-49.33 -18.28,-16.49 -28.56,-38.75 -28.6,-62 0.04,-30.58 17.86,-58.98 47.03,-75 -0.43,-3.2 -0.62,-6.44 -0.66,-9.68 0.04,-48.67 44.14,-88.13 98.59,-88.13 6.33,0 12.66,0.59 18.83,1.68 3.79,-46.05 46.68,-81.72 98.32,-81.72 23.87,0.04 46.96,7.82 64.89,21.92 17.38,-27.81 50.23,-45.08 85.89,-45.12 44.73,0.08 83.79,26.99 95.2,65.66 11.76,-4.29 24.34,-6.48 37.03,-6.52 54.45,0 98.59,39.49 98.59,88.17 -0.03,6.83 -0.97,13.63 -2.77,20.27 50.27,4.57 88.56,42.42 88.59,87.58 0,17.34 -5.74,34.29 -16.48,48.71 22.19,16.72 35,41.33 35.04,67.3 0,38.64 -28.13,72.74 -69.41,84.18 7.5,12.66 11.4,26.76 11.44,41.1 0,48.67 -44.14,88.12 -98.59,88.12 -5.08,-0.04 -10.12,-0.39 -15.12,-1.09 -16.72,29.8 -50.82,48.63 -88.13,48.67 z" /><path
         id="path116"
         style="fill:#ffffff;fill-opacity:1;fill-rule:nonzero;stroke:none"
         d="m 2760.74,396.641 c 0,-11.211 -8.83,-20.27 -19.69,-20.27 -10.89,0 -19.72,9.059 -19.72,20.27 0,11.211 8.83,20.308 19.72,20.308 10.86,0 19.69,-9.097 19.69,-20.308 z" /><path
         id="path118"
         style="fill:none;stroke:#000000;stroke-width:7.5;stroke-linecap:butt;stroke-linejoin:miter;stroke-miterlimit:4;stroke-dasharray:22.5, 22.5;stroke-dashoffset:0;stroke-opacity:1"
         d="m 2760.74,396.641 c 0,-11.211 -8.83,-20.27 -19.69,-20.27 -10.89,0 -19.72,9.059 -19.72,20.27 0,11.211 8.83,20.308 19.72,20.308 10.86,0 19.69,-9.097 19.69,-20.308 z" /><path
         id="path120"
         style="fill:#ffffff;fill-opacity:1;fill-rule:nonzero;stroke:none"
         d="m 2837.3,437.809 c 0,-16.637 -17.65,-30.149 -39.41,-30.149 -21.8,0 -39.45,13.512 -39.45,30.149 0,16.679 17.65,30.16 39.45,30.16 21.76,0 39.41,-13.481 39.41,-30.16 z" /><path
         id="path122"
         style="fill:none;stroke:#000000;stroke-width:7.5;stroke-linecap:butt;stroke-linejoin:miter;stroke-miterlimit:4;stroke-dasharray:22.5, 22.5;stroke-dashoffset:0;stroke-opacity:1"
         d="m 2837.3,437.809 c 0,-16.637 -17.65,-30.149 -39.41,-30.149 -21.8,0 -39.45,13.512 -39.45,30.149 0,16.679 17.65,30.16 39.45,30.16 21.76,0 39.41,-13.481 39.41,-30.16 z" /><path
         id="path124"
         style="fill:#ffffff;fill-opacity:1;fill-rule:nonzero;stroke:none"
         d="m 2947.5,491.172 c 0,-21.133 -27.27,-38.281 -60.9,-38.281 -33.63,0 -60.9,17.148 -60.9,38.281 0,21.129 27.27,38.277 60.9,38.277 33.63,0 60.9,-17.148 60.9,-38.277 z" /><path
         id="path126"
         style="fill:none;stroke:#000000;stroke-width:7.5;stroke-linecap:butt;stroke-linejoin:miter;stroke-miterlimit:4;stroke-dasharray:22.5, 22.5;stroke-dashoffset:0;stroke-opacity:1"
         d="m 2947.5,491.172 c 0,-21.133 -27.27,-38.281 -60.9,-38.281 -33.63,0 -60.9,17.148 -60.9,38.281 0,21.129 27.27,38.277 60.9,38.277 33.63,0 60.9,-17.148 60.9,-38.277 z" /><path
         id="path128"
         style="fill:#ffffff;fill-opacity:1;fill-rule:nonzero;stroke:none"
         d="m 3250.23,879.73 c -34.8,0 -67.53,-8.441 -88.16,-22.699 -19.41,7.93 -43.55,12.231 -68.44,12.27 -60.51,0 -109.57,-24.922 -109.61,-55.672 v -0.039 c -60.27,-0.149 -109.02,-25 -109.02,-55.66 0,-8.871 4.22,-17.621 12.23,-25.508 -32.78,-10.082 -52.78,-28.082 -52.82,-47.543 0.04,-18.899 18.99,-36.52 50.32,-46.758 -15.28,-9.801 -23.6,-21.949 -23.64,-34.449 0.04,-27.031 38.4,-50.152 90.86,-54.801 10.12,-26.062 55.12,-44.891 107.46,-44.922 15.94,0 31.68,1.789 46.14,5.231 20.27,-15.59 54.57,-24.918 91.33,-24.961 43.55,0 82.96,13.121 100.39,33.402 18.47,-6.641 40.5,-10.199 63.16,-10.199 60.51,0 109.57,24.918 109.57,55.668 -0.04,2.461 -0.39,4.922 -1.09,7.379 55.39,3.16 97.3,26.91 97.38,55.23 -0.04,15 -11.99,29.34 -33.09,39.813 32.07,10.148 51.6,28.008 51.64,47.187 -0.04,24.289 -31.01,45.781 -76.6,53.082 9.88,8.52 15.08,18.239 15.12,28.129 0,30.738 -49.06,55.66 -109.61,55.66 -20.94,0 -41.48,-3.05 -59.14,-8.789 -14.34,23.168 -56.6,38.91 -104.38,38.949 z" /><path
         id="path130"
         style="fill:none;stroke:#000000;stroke-width:7.5;stroke-linecap:butt;stroke-linejoin:miter;stroke-miterlimit:4;stroke-dasharray:22.5, 22.5;stroke-dashoffset:0;stroke-opacity:1"
         d="m 3250.23,879.73 c -34.8,0 -67.53,-8.441 -88.16,-22.699 -19.41,7.93 -43.55,12.231 -68.44,12.27 -60.51,0 -109.57,-24.922 -109.61,-55.672 v -0.039 c -60.27,-0.149 -109.02,-25 -109.02,-55.66 0,-8.871 4.22,-17.621 12.23,-25.508 -32.78,-10.082 -52.78,-28.082 -52.82,-47.543 0.04,-18.899 18.99,-36.52 50.32,-46.758 -15.28,-9.801 -23.6,-21.949 -23.64,-34.449 0.04,-27.031 38.4,-50.152 90.86,-54.801 10.12,-26.062 55.12,-44.891 107.46,-44.922 15.94,0 31.68,1.789 46.14,5.231 20.27,-15.59 54.57,-24.918 91.33,-24.961 43.55,0 82.96,13.121 100.39,33.402 18.47,-6.641 40.5,-10.199 63.16,-10.199 60.51,0 109.57,24.918 109.57,55.668 -0.04,2.461 -0.39,4.922 -1.09,7.379 55.39,3.16 97.3,26.91 97.38,55.23 -0.04,15 -11.99,29.34 -33.09,39.813 32.07,10.148 51.6,28.008 51.64,47.187 -0.04,24.289 -31.01,45.781 -76.6,53.082 9.88,8.52 15.08,18.239 15.12,28.129 0,30.738 -49.06,55.66 -109.61,55.66 -20.94,0 -41.48,-3.05 -59.14,-8.789 -14.34,23.168 -56.6,38.91 -104.38,38.949 z" /><path
         id="path132"
         style="fill:#ffffff;fill-opacity:1;fill-rule:nonzero;stroke:none"
         d="m 1190.31,1800.66 c 0,-102.5 -126.44,-185.58 -282.419,-185.58 -156.012,0 -282.461,83.08 -282.461,185.58 0,102.5 126.449,185.59 282.461,185.59 155.979,0 282.419,-83.09 282.419,-185.59 z" /><path
         id="path134"
         style="fill:none;stroke:#000000;stroke-width:7.51180983;stroke-linecap:butt;stroke-linejoin:miter;stroke-miterlimit:4;stroke-dasharray:none;stroke-opacity:1"
         d="m 1190.31,1800.66 c 0,-102.5 -126.44,-185.58 -282.419,-185.58 -156.012,0 -282.461,83.08 -282.461,185.58 0,102.5 126.449,185.59 282.461,185.59 155.979,0 282.419,-83.09 282.419,-185.59 z" /><g
         transform="scale(10)"
         id="g136"><text
           id="text140"
           style="font-variant:normal;font-size:8px;font-family:Helvetica;-inkscape-font-specification:f-0-0;writing-mode:lr-tb;fill:#000000;fill-opacity:1;fill-rule:nonzero;stroke:none"
           transform="matrix(1,0,0,-1,16.4012,4.57891)"><tspan
             id="tspan138"
             y="0"
             x="0 4.888 9.3360004 13.784 15.56 17.784 21.784 26.232 30.703907 32.479908 36.927906 39.151909">Tool chain A</tspan></text>
</g><path
         id="path142"
         style="fill:#ffffff;fill-opacity:1;fill-rule:nonzero;stroke:none"
         d="m 2649.41,1800.66 c 0,-102.5 -126.44,-185.58 -282.42,-185.58 -155.97,0 -282.42,83.08 -282.42,185.58 0,102.5 126.45,185.59 282.42,185.59 155.98,0 282.42,-83.09 282.42,-185.59 z" /><path
         id="path144"
         style="fill:none;stroke:#000000;stroke-width:7.51180983;stroke-linecap:butt;stroke-linejoin:miter;stroke-miterlimit:4;stroke-dasharray:none;stroke-opacity:1"
         d="m 2649.41,1800.66 c 0,-102.5 -126.44,-185.58 -282.42,-185.58 -155.97,0 -282.42,83.08 -282.42,185.58 0,102.5 126.45,185.59 282.42,185.59 155.98,0 282.42,-83.09 282.42,-185.59 z" /><g
         transform="scale(10)"
         id="g146"><text
           id="text150"
           style="font-variant:normal;font-size:8px;font-family:Helvetica;-inkscape-font-specification:f-0-0;writing-mode:lr-tb;fill:#000000;fill-opacity:1;fill-rule:nonzero;stroke:none"
           transform="matrix(1,0,0,-1,278.299,4.57891)"><tspan
             id="tspan148"
             y="0"
             x="0 4.888 9.3360004 13.784 15.56 17.784 21.784 26.232 30.703901 32.4799 36.927902 39.151901">Tool chain B</tspan></text>
</g><path
         id="path152"
         style="fill:#ffffff;fill-opacity:1;fill-rule:nonzero;stroke:none"
         d="m 2712.03,354.301 c 0,-102.461 -126.44,-185.551 -282.42,-185.551 -155.98,0 -282.42,83.09 -282.42,185.551 0,102.5 126.44,185.578 282.42,185.578 155.98,0 282.42,-83.078 282.42,-185.578 z" /><path
         id="path154"
         style="fill:none;stroke:#000000;stroke-width:7.51180983;stroke-linecap:butt;stroke-linejoin:miter;stroke-miterlimit:4;stroke-dasharray:none;stroke-opacity:1"
         d="m 2712.03,354.301 c 0,-102.461 -126.44,-185.551 -282.42,-185.551 -155.98,0 -282.42,83.09 -282.42,185.551 0,102.5 126.44,185.578 282.42,185.578 155.98,0 282.42,-83.078 282.42,-185.578 z" /><path
         id="path156"
         style="fill:none;stroke:#000000;stroke-width:7.51180983;stroke-linecap:butt;stroke-linejoin:miter;stroke-miterlimit:4;stroke-dasharray:none;stroke-opacity:1"
         d="M 851.602,1610.43 C 730.98,1477.07 748.398,1448.09 797.109,1337.89" /><path
         id="path158"
         style="fill:#000000;fill-opacity:1;fill-rule:evenodd;stroke:none"
         d="m 784.961,1365.35 -19.801,7.66 35,-41.99 -7.539,54.18 z" /><path
         id="path160"
         style="fill:none;stroke:#000000;stroke-width:4.00629997;stroke-linecap:butt;stroke-linejoin:miter;stroke-miterlimit:4;stroke-dasharray:none;stroke-opacity:1"
         d="m 784.957,1365.36 -19.801,7.66 34.996,-42.01 -7.527,54.18 z" /><path
         id="path162"
         style="fill:#ffffff;fill-opacity:1;fill-rule:nonzero;stroke:none"
         d="m 1250.62,354.301 c 0,-102.461 -126.44,-185.551 -282.421,-185.551 -156.008,0 -282.461,83.09 -282.461,185.551 0,102.5 126.453,185.578 282.461,185.578 155.981,0 282.421,-83.078 282.421,-185.578 z" /><path
         id="path164"
         style="fill:none;stroke:#000000;stroke-width:7.51180983;stroke-linecap:butt;stroke-linejoin:miter;stroke-miterlimit:4;stroke-dasharray:none;stroke-opacity:1"
         d="m 1250.62,354.301 c 0,-102.461 -126.44,-185.551 -282.421,-185.551 -156.008,0 -282.461,83.09 -282.461,185.551 0,102.5 126.453,185.578 282.461,185.578 155.981,0 282.421,-83.078 282.421,-185.578 z" /><path
         id="path166"
         style="fill:none;stroke:#000000;stroke-width:7.51180983;stroke-linecap:butt;stroke-linejoin:miter;stroke-miterlimit:4;stroke-dasharray:none;stroke-opacity:1"
         d="m 2307.27,1610.43 c -120.63,-133.36 -103.25,-162.34 -54.54,-272.54" /><path
         id="path168"
         style="fill:#000000;fill-opacity:1;fill-rule:evenodd;stroke:none"
         d="m 2240.59,1365.35 -19.81,7.66 35,-41.99 -7.54,54.18 z" /><path
         id="path170"
         style="fill:none;stroke:#000000;stroke-width:4.00629997;stroke-linecap:butt;stroke-linejoin:miter;stroke-miterlimit:4;stroke-dasharray:none;stroke-opacity:1"
         d="m 2240.58,1365.36 -19.79,7.64 35,-41.99 -7.54,54.19 z" /><path
         id="path172"
         style="fill:#ffffff;fill-opacity:1;fill-rule:nonzero;stroke:none"
         d="m 1351.52,233.672 h 409.42 l -39.42,389.726 214.57,-389.726 h 114.85 V 8.67188 h -699.42 z" /><path
         id="path174"
         style="fill:none;stroke:#000000;stroke-width:7.51180983;stroke-linecap:butt;stroke-linejoin:miter;stroke-miterlimit:4;stroke-dasharray:none;stroke-opacity:1"
         d="m 1351.52,233.672 h 409.42 l -39.42,389.726 214.57,-389.726 h 114.85 V 8.67188 h -699.42 z" /><path
         id="path176"
         style="fill:none;stroke:#000000;stroke-width:7.5;stroke-linecap:butt;stroke-linejoin:miter;stroke-miterlimit:4;stroke-dasharray:none;stroke-opacity:1"
         d="M 2437.03,875.16 C 2316.41,741.801 2333.79,712.77 2382.5,602.621" /><path
         id="path178"
         style="fill:#000000;fill-opacity:1;fill-rule:evenodd;stroke:none"
         d="m 2370.39,630.039 -19.8,7.66 34.96,-41.961 -7.54,54.102 z" /><path
         id="path180"
         style="fill:none;stroke:#000000;stroke-width:4;stroke-linecap:butt;stroke-linejoin:miter;stroke-miterlimit:4;stroke-dasharray:none;stroke-opacity:1"
         d="m 2370.39,630.035 -19.8,7.66 34.96,-41.949 -7.54,54.098 z" /><path
         id="path182"
         style="fill:none;stroke:#000000;stroke-width:7.51180983;stroke-linecap:butt;stroke-linejoin:miter;stroke-miterlimit:4;stroke-dasharray:none;stroke-opacity:1"
         d="M 980.23,877.5 C 859.609,744.102 876.988,715.121 925.699,604.922" /><path
         id="path184"
         style="fill:#000000;fill-opacity:1;fill-rule:evenodd;stroke:none"
         d="m 913.551,632.422 -19.801,7.656 35,-42.027 -7.539,54.179 z" /><path
         id="path186"
         style="fill:none;stroke:#000000;stroke-width:4.00629997;stroke-linecap:butt;stroke-linejoin:miter;stroke-miterlimit:4;stroke-dasharray:none;stroke-opacity:1"
         d="m 913.559,632.418 -19.809,7.656 35.004,-42.023 -7.539,54.179 z" /><path
         id="path188"
         style="fill:#fdfdfd;fill-opacity:1;fill-rule:nonzero;stroke:none"
         d="m 2360.59,1146.49 h 432.66 v 220.391 h -432.66 z" /><path
         id="path190"
         style="fill:none;stroke:#000000;stroke-width:7.51180983;stroke-linecap:butt;stroke-linejoin:miter;stroke-miterlimit:4;stroke-dasharray:none;stroke-opacity:1"
         d="m 2360.59,1146.49 h 432.66 v 220.391 h -432.66 z" /><path
         id="path192"
         style="fill:#f5f5f5;fill-opacity:1;fill-rule:nonzero;stroke:none"
         d="m 2360.59,1017.18 h 434.379 v 129.301 H 2360.59 Z" /><path
         id="path194"
         style="fill:none;stroke:#000000;stroke-width:7.51180983;stroke-linecap:butt;stroke-linejoin:miter;stroke-miterlimit:4;stroke-dasharray:none;stroke-opacity:1"
         d="m 2360.59,1017.18 h 434.379 v 129.301 H 2360.59 Z" /><g
         transform="scale(10)"
         id="g196"><text
           id="text204"
           style="font-variant:normal;font-size:6px;font-family:Helvetica;-inkscape-font-specification:f-0-0;writing-mode:lr-tb;fill:#000000;fill-opacity:1;fill-rule:nonzero;stroke:none"
           transform="matrix(1,0,0,-1,241.894,127.177)"><tspan
             id="tspan198"
             y="0"
             x="0 4.3319998 7.6680002 9 12.353895 15.353895 18.689896 20.357895 23.693895 27.029896 28.361895">Relocatable</tspan><tspan
             id="tspan200"
             y="7.2750001"
             x="12.0176 13.6856 15.0176 16.3496">file</tspan><tspan
             id="tspan202"
             y="20.761299"
             x="2.9437699 6.9457698 8.6137695 10.28177 12.27977 13.61177 16.947769 20.301592 21.969593 25.305592">Attributes</tspan></text>
</g><path
         id="path206"
         style="fill:#fdfdfd;fill-opacity:1;fill-rule:nonzero;stroke:none"
         d="m 2297.97,1082.7 h 432.621 v 220.391 H 2297.97 Z" /><path
         id="path208"
         style="fill:none;stroke:#000000;stroke-width:7.51180983;stroke-linecap:butt;stroke-linejoin:miter;stroke-miterlimit:4;stroke-dasharray:none;stroke-opacity:1"
         d="m 2297.97,1082.7 h 432.621 v 220.391 H 2297.97 Z" /><path
         id="path210"
         style="fill:#f5f5f5;fill-opacity:1;fill-rule:nonzero;stroke:none"
         d="m 2297.97,953.359 h 434.383 v 129.34 H 2297.97 Z" /><path
         id="path212"
         style="fill:none;stroke:#000000;stroke-width:7.51180983;stroke-linecap:butt;stroke-linejoin:miter;stroke-miterlimit:4;stroke-dasharray:none;stroke-opacity:1"
         d="m 2297.97,953.359 h 434.383 v 129.34 H 2297.97 Z" /><g
         transform="scale(10)"
         id="g214"><text
           id="text222"
           style="font-variant:normal;font-size:6px;font-family:Helvetica;-inkscape-font-specification:f-0-0;writing-mode:lr-tb;fill:#000000;fill-opacity:1;fill-rule:nonzero;stroke:none"
           transform="matrix(1,0,0,-1,235.631,120.798)"><tspan
             id="tspan216"
             y="0"
             x="0 4.3319998 7.6680002 9 12.353895 15.353895 18.689896 20.357895 23.693895 27.029896 28.361895">Relocatable</tspan><tspan
             id="tspan218"
             y="7.2750001"
             x="12.0176 13.6856 15.0176 16.3496">file</tspan><tspan
             id="tspan220"
             y="20.7617"
             x="2.9437699 6.9457698 8.6137695 10.28177 12.27977 13.61177 16.947769 20.301592 21.969593 25.305592">Attributes</tspan></text>
</g><path
         id="path224"
         style="fill:#fdfdfd;fill-opacity:1;fill-rule:nonzero;stroke:none"
         d="m 2228.09,1018.63 h 432.621 v 220.391 H 2228.09 Z" /><path
         id="path226"
         style="fill:none;stroke:#000000;stroke-width:7.51180983;stroke-linecap:butt;stroke-linejoin:miter;stroke-miterlimit:4;stroke-dasharray:none;stroke-opacity:1"
         d="m 2228.09,1018.63 h 432.621 v 220.391 H 2228.09 Z" /><path
         id="path228"
         style="fill:#fdfdfd;fill-opacity:1;fill-rule:nonzero;stroke:none"
         d="m 2228.09,889.289 h 434.379 v 129.34 H 2228.09 Z" /><path
         id="path230"
         style="fill:none;stroke:#000000;stroke-width:7.51180983;stroke-linecap:butt;stroke-linejoin:miter;stroke-miterlimit:4;stroke-dasharray:none;stroke-opacity:1"
         d="m 2228.09,889.289 h 434.379 v 129.34 H 2228.09 Z" /><g
         transform="scale(10)"
         id="g232"><text
           id="text240"
           style="font-variant:normal;font-size:6px;font-family:Helvetica;-inkscape-font-specification:f-0-0;writing-mode:lr-tb;fill:#000000;fill-opacity:1;fill-rule:nonzero;stroke:none"
           transform="matrix(1,0,0,-1,228.643,114.389)"><tspan
             id="tspan234"
             y="0"
             x="0 4.3319998 7.6680002 9 12.353895 15.353895 18.689896 20.357895 23.693895 27.029896 28.361895">Relocatable</tspan><tspan
             id="tspan236"
             y="7.2750001"
             x="12.0176 13.6856 15.0176 16.3496">file</tspan><tspan
             id="tspan238"
             y="20.761299"
             x="2.9437699 6.9457698 8.6137695 10.28177 12.27977 13.61177 16.947769 20.301592 21.969593 25.305592">Attributes</tspan></text>
</g><path
         id="path242"
         style="fill:none;stroke:#000000;stroke-width:7.5;stroke-linecap:butt;stroke-linejoin:miter;stroke-miterlimit:4;stroke-dasharray:none;stroke-opacity:1"
         d="M 1220.47,882.07 2147.19,462.191" /><path
         id="path244"
         style="fill:#000000;fill-opacity:1;fill-rule:evenodd;stroke:none"
         d="m 2119.84,474.57 -19.84,-7.5 54.02,-7.968 -41.64,35.308 z" /><path
         id="path246"
         style="fill:none;stroke:#000000;stroke-width:4;stroke-linecap:butt;stroke-linejoin:miter;stroke-miterlimit:4;stroke-dasharray:none;stroke-opacity:1"
         d="m 2119.84,474.57 -19.84,-7.5 54.02,-7.961 -41.64,35.305 z" /><path
         id="path248"
         style="fill:none;stroke:#000000;stroke-width:7.5;stroke-linecap:butt;stroke-linejoin:miter;stroke-miterlimit:4;stroke-dasharray:none;stroke-opacity:1"
         d="M 2186.64,883.199 1250.62,444.77" /><path
         id="path250"
         style="fill:#000000;fill-opacity:1;fill-rule:evenodd;stroke:none"
         d="m 1277.77,457.5 7.23,19.961 -41.17,-35.859 53.9,8.668 z" /><path
         id="path252"
         style="fill:none;stroke:#000000;stroke-width:4;stroke-linecap:butt;stroke-linejoin:miter;stroke-miterlimit:4;stroke-dasharray:none;stroke-opacity:1"
         d="m 1277.77,457.5 7.23,19.957 -41.17,-35.855 53.9,8.671 z" /><path
         id="path254"
         style="fill:none;stroke:#000000;stroke-width:7.51180983;stroke-linecap:butt;stroke-linejoin:miter;stroke-miterlimit:4;stroke-dasharray:none;stroke-opacity:1"
         d="M 969.922,160.621 V 56.2109" /><path
         id="path256"
         style="fill:#000000;fill-opacity:1;fill-rule:evenodd;stroke:none"
         d="m 969.922,86.2891 -15.043,14.9999 15.043,-52.5781 15.039,52.5781 z" /><path
         id="path258"
         style="fill:none;stroke:#000000;stroke-width:4.00629997;stroke-linecap:butt;stroke-linejoin:miter;stroke-miterlimit:4;stroke-dasharray:none;stroke-opacity:1"
         d="m 969.922,86.2891 -15.043,14.9999 15.043,-52.5781 15.039,52.5781 z" /><path
         id="path260"
         style="fill:none;stroke:#000000;stroke-width:7.51180983;stroke-linecap:butt;stroke-linejoin:miter;stroke-miterlimit:4;stroke-dasharray:none;stroke-opacity:1"
         d="M 2423.24,160.621 V 56.2109" /><path
         id="path262"
         style="fill:#000000;fill-opacity:1;fill-rule:evenodd;stroke:none"
         d="m 2423.24,86.2891 -15.04,14.9999 15.04,-52.5781 15,52.5781 z" /><path
         id="path264"
         style="fill:none;stroke:#000000;stroke-width:4.00629997;stroke-linecap:butt;stroke-linejoin:miter;stroke-miterlimit:4;stroke-dasharray:none;stroke-opacity:1"
         d="m 2423.24,86.2891 -15.04,14.9999 15.04,-52.5781 15,52.5781 z" /><g
         transform="scale(10)"
         id="g266"><text
           id="text308"
           style="font-variant:normal;font-size:6px;font-family:Helvetica;-inkscape-font-specification:f-0-0;writing-mode:lr-tb;fill:#000000;fill-opacity:1;fill-rule:nonzero;stroke:none"
           transform="matrix(1,0,0,-1,75.7715,181.459)"><tspan
             id="tspan268"
             y="0"
             x="0 4.3319998 7.6680002 12.666 16.019926 17.351927 18.683926 22.019926 24.035944 25.703943">Compiler /</tspan><tspan
             id="tspan270"
             y="7.0500002"
             x="-0.16992199 3.1660781 6.1660781 9.1660776 12.502078 17.500078 20.853907 22.185905 25.521906">assembler</tspan><tspan
             id="tspan272"
             y="0"
             x="146.49107 150.82307 154.15907 159.15707 162.511 163.843 165.175 168.511 170.52701 172.19502">Compiler /</tspan><tspan
             id="tspan274"
             y="7.0500002"
             x="146.32115 149.65715 152.65715 155.65715 158.99315 163.99115 167.34497 168.67697 172.01299">assembler</tspan><tspan
             id="tspan276"
             y="16.122271"
             x="236.87935 241.21135 244.21135 247.54736">User</tspan><tspan
             id="tspan278"
             y="23.17227"
             x="230.36958 231.70158 235.03758 236.70558 240.04158 243.37758 245.04559 246.37758 249.7317 253.0677">intentions</tspan><tspan
             id="tspan280"
             y="30.222269"
             x="235.70747 239.04347 242.37947 245.71547 249.0696">about</tspan><tspan
             id="tspan282"
             y="37.27227"
             x="226.70161 229.70161 233.03761 238.03561 241.37161 244.72543 246.39343 247.72543 251.06143 252.39343 253.72543 255.07542 256.74344">compatibility</tspan><tspan
             id="tspan284"
             y="30.50938"
             x="-49.982384 -45.650383 -42.650383 -39.314384">User</tspan><tspan
             id="tspan286"
             y="37.55938"
             x="-56.492153 -55.160152 -51.824154 -50.156155 -46.820152 -43.484154 -41.816154 -40.484154 -37.130043 -33.794041">intentions</tspan><tspan
             id="tspan288"
             y="44.609379"
             x="-51.154263 -47.818264 -44.482265 -41.146263 -37.792156">about</tspan><tspan
             id="tspan290"
             y="51.659382"
             x="-60.160126 -57.160126 -53.824123 -48.826122 -45.490124 -42.136295 -40.468296 -39.136295 -35.800297 -34.468296 -33.136295 -31.786295 -30.118296">compatibility</tspan><tspan
             id="tspan292"
             y="109.49138"
             x="-56.857395 -52.525394 -49.189396 -44.191395 -40.837471 -37.501472 -35.833469 -34.501472 -31.16547 -29.833471 -28.483562 -27.151564 -25.483562">Compatibility</tspan><tspan
             id="tspan294"
             y="116.54138"
             x="-50.687473 -45.689472 -42.353474 -39.017475 -35.663647 -34.331646 -32.663647">model A</tspan><tspan
             id="tspan296"
             y="111.0199"
             x="225.14352 229.47552 232.81152 237.80952 241.16345 244.49945 246.16745 247.49945 250.83545 252.16745 253.51733 254.84933 256.51733">Compatibility</tspan><tspan
             id="tspan298"
             y="118.0699"
             x="231.31345 236.31145 239.64745 242.98344 246.33727 247.66927 249.33727">model B</tspan><tspan
             id="tspan300"
             y="147.5347"
             x="158.25604 161.59204 162.92404 166.26004 169.26004 172.61386">Linker</tspan><tspan
             id="tspan302"
             y="146.75307"
             x="12.028046 15.364046 16.696047 20.032045 23.032045 26.385862">Linker</tspan><tspan
             id="tspan304"
             y="167.02066"
             x="65.225349 69.227348 72.227348 75.227348 78.563347 81.899345 85.253471 88.58947 91.925476 93.593475 96.929474 98.597473 100.26547 103.60147 106.93748 108.93547 110.60347 113.93948 117.29332 118.62532">Exchange of portable</tspan><tspan
             id="tspan306"
             y="174.07066"
             x="72.737068 74.735069 78.071068 79.403069 82.756989 85.756989 89.092987 90.760986 94.096985 97.432983 98.764984 102.10098 103.76899 105.43699 106.76899 108.10098 111.45504">relocatable files</tspan></text>
</g></g></g></svg>