<?xml version="1.0" encoding="UTF-8" standalone="no"?>
<svg
   xmlns:dc="http://purl.org/dc/elements/1.1/"
   xmlns:cc="http://creativecommons.org/ns#"
   xmlns:rdf="http://www.w3.org/1999/02/22-rdf-syntax-ns#"
   xmlns:svg="http://www.w3.org/2000/svg"
   xmlns="http://www.w3.org/2000/svg"
   viewBox="0 0 354.66666 272"
   height="272"
   width="354.66666"
   xml:space="preserve"
   id="svg2"
   version="1.1"><metadata
     id="metadata8"><rdf:RDF><cc:Work
         rdf:about=""><dc:format>image/svg+xml</dc:format><dc:type
           rdf:resource="http://purl.org/dc/dcmitype/StillImage" /></cc:Work></rdf:RDF></metadata><defs
     id="defs6" /><g
     transform="matrix(1.3333333,0,0,-1.3333333,0,272)"
     id="g10"><g
       transform="scale(0.1)"
       id="g12"><path
         id="path14"
         style="fill:none;stroke:#000000;stroke-width:7.51180983;stroke-linecap:butt;stroke-linejoin:miter;stroke-miterlimit:4;stroke-dasharray:none;stroke-opacity:1"
         d="m 291.25,1258.75 h 2355.86 v 777.5 H 291.25 Z" /><path
         id="path16"
         style="fill:none;stroke:#000000;stroke-width:8.27923012;stroke-linecap:butt;stroke-linejoin:miter;stroke-miterlimit:4;stroke-dasharray:none;stroke-opacity:1"
         d="m 291.602,5.14844 h 2355.16 v 944.773 H 291.602 Z" /><path
         id="path18"
         style="fill:none;stroke:#000000;stroke-width:7.51180983;stroke-linecap:butt;stroke-linejoin:miter;stroke-miterlimit:4;stroke-dasharray:none;stroke-opacity:1"
         d="m 409.301,1783.08 h 1362.46 v 218.051 H 409.301 Z" /><path
         id="path20"
         style="fill:none;stroke:#000000;stroke-width:7.51180983;stroke-linecap:butt;stroke-linejoin:miter;stroke-miterlimit:4;stroke-dasharray:none;stroke-opacity:1"
         d="m 573.09,1365.12 h 1033.83 v 214.84 H 573.09 Z" /><path
         id="path22"
         style="fill:none;stroke:#000000;stroke-width:7.10098982;stroke-linecap:butt;stroke-linejoin:miter;stroke-miterlimit:4;stroke-dasharray:none;stroke-opacity:1"
         d="M 645.199,560.82 H 1533.75 V 842.031 H 645.199 Z" /><path
         id="path24"
         style="fill:none;stroke:#000000;stroke-width:7.01554012;stroke-linecap:butt;stroke-linejoin:miter;stroke-miterlimit:4;stroke-dasharray:none;stroke-opacity:1"
         d="m 645.43,105.781 h 888.09 V 380.39 H 645.43 Z" /><g
         transform="scale(10)"
         id="g26"><text
           id="text60"
           style="font-variant:normal;font-size:6px;font-family:Helvetica;-inkscape-font-specification:f-0-0;writing-mode:lr-tb;fill:#000000;fill-opacity:1;fill-rule:nonzero;stroke:none"
           transform="matrix(1,0,0,-1,86.9145,188.309)"><tspan
             id="tspan28"
             y="0"
             x="0 3.336 5.3340001 6.6659999 10.01992 11.68792 13.35592 15.35392 17.483919 20.81992 24.15592 25.487921 26.837889 30.173889 31.841888 35.177887 37.307888 39.305889">printf(&quot;hello\n&quot;);</tspan><tspan
             id="tspan30"
             y="42.3316"
             x="14.8465 18.848499 22.8505">SVC</tspan><tspan
             id="tspan32"
             y="119.5496"
             x="7.3734498 10.70945 14.04545 17.381451 20.735565 24.071566 27.407566 30.743565">debugger</tspan><tspan
             id="tspan34"
             y="165.28481"
             x="14.25079 17.58679 20.922791 22.254789 23.604698">hello</tspan><tspan
             id="tspan36"
             y="25.5268"
             x="-87.040207 -83.374207 -80.038208 -78.040207 -74.686302 -71.350304">Target</tspan><tspan
             id="tspan38"
             y="142.4178"
             x="-85.869904 -81.537903 -78.201897 -75.201897">Host</tspan><tspan
             id="tspan40"
             y="27.973801"
             x="-29.4988 -26.1628 -24.164801 -22.8328 -19.47888 -17.810881 -16.142879 -14.14488">printf()</tspan><tspan
             id="tspan42"
             y="1.1707"
             x="103.6652 107.6672 111.0032 114.3392 115.68903 117.02103 120.02103 123.35703 125.02503 126.35703 129.69304 133.02904 134.69704 139.02904 142.38318 145.71918">Application Code</tspan><tspan
             id="tspan44"
             y="44.3535"
             x="103.47926 107.81126 109.47926 112.81526 114.14726 117.48326 119.49918 122.83518 124.83318 127.83318 129.50117 133.83318 137.16919 140.52301">C Library Code</tspan><tspan
             id="tspan46"
             y="76.048798"
             x="103.61129 107.6133 111.6153 115.9652 117.6332 120.9692 124.3052 127.6412 130.9772 132.3092 135.66324 138.99924 140.66724 144.00325">SVC handled by</tspan><tspan
             id="tspan48"
             y="82.048798"
             x="103.61129 106.9473 110.28329 113.61929 116.97341 120.30941 121.97741 125.31341 128.64941 131.98541 135.32141">debug agent</tspan><tspan
             id="tspan50"
             y="113.4879"
             x="103.73122 108.06322 111.39922 116.39722 121.41325 124.74926 128.08525 129.41725 132.41725 135.77107 137.43907 138.77107 142.10709">Communication</tspan><tspan
             id="tspan52"
             y="119.4879"
             x="103.73122 108.06322 109.39522 111.06322 114.39922 116.06721 119.40321 122.73921 126.09333 129.42934 132.76534 136.10133 139.43733">with debugger</tspan><tspan
             id="tspan54"
             y="125.4879"
             x="103.73122 105.72922 109.06522 112.40121 115.75505 117.08705 120.42305 123.75905 125.42705 128.76305 132.09904 133.76704 137.10304 140.457 143.457">running on host</tspan><tspan
             id="tspan56"
             y="156.88319"
             x="103.64137 107.30737 110.64337 113.64337 115.31137 116.97937 120.31537 121.64737 124.64737 127.98337 129.31537 132.66948 135.66948 139.00549">Text displayed</tspan><tspan
             id="tspan58"
             y="162.88319"
             x="103.64137 106.97737 110.31337 111.98137 115.31737 118.65337 121.65337 123.32137 124.98937 127.98937 130.98936 132.98737 136.32336 139.67732">on host screen</tspan></text>
</g><path
         id="path62"
         style="fill:none;stroke:#000000;stroke-width:7.51180983;stroke-linecap:butt;stroke-linejoin:miter;stroke-miterlimit:4;stroke-dasharray:none;stroke-opacity:1"
         d="M 1083.09,1763.95 V 1601.21" /><path
         id="path64"
         style="fill:#000000;fill-opacity:1;fill-rule:evenodd;stroke:none"
         d="m 1083.09,1733.91 15.03,-15 -15.03,52.57 -15.04,-52.57 z" /><path
         id="path66"
         style="fill:none;stroke:#000000;stroke-width:4.00629997;stroke-linecap:butt;stroke-linejoin:miter;stroke-miterlimit:4;stroke-dasharray:none;stroke-opacity:1"
         d="m 1083.09,1733.91 15.03,-15 -15.03,52.57 -15.04,-52.57 z" /><path
         id="path68"
         style="fill:#000000;fill-opacity:1;fill-rule:evenodd;stroke:none"
         d="m 1083.09,1631.29 -15.04,15 15.04,-52.58 15.03,52.58 z" /><path
         id="path70"
         style="fill:none;stroke:#000000;stroke-width:4.00629997;stroke-linecap:butt;stroke-linejoin:miter;stroke-miterlimit:4;stroke-dasharray:none;stroke-opacity:1"
         d="m 1083.09,1631.29 -15.04,15 15.04,-52.58 15.03,52.58 z" /><path
         id="path72"
         style="fill:none;stroke:#000000;stroke-width:7.51180983;stroke-linecap:butt;stroke-linejoin:miter;stroke-miterlimit:4;stroke-dasharray:none;stroke-opacity:1"
         d="M 1083.09,1343.83 V 866.289" /><path
         id="path74"
         style="fill:#000000;fill-opacity:1;fill-rule:evenodd;stroke:none"
         d="m 1083.09,1313.79 15.03,-15.04 -15.03,52.58 -15.04,-52.58 z" /><path
         id="path76"
         style="fill:none;stroke:#000000;stroke-width:4.00629997;stroke-linecap:butt;stroke-linejoin:miter;stroke-miterlimit:4;stroke-dasharray:none;stroke-opacity:1"
         d="m 1083.09,1313.79 15.03,-15.04 -15.03,52.58 -15.04,-52.58 z" /><path
         id="path78"
         style="fill:#000000;fill-opacity:1;fill-rule:evenodd;stroke:none"
         d="m 1083.09,896.332 -15.04,15 15.04,-52.582 15.03,52.582 z" /><path
         id="path80"
         style="fill:none;stroke:#000000;stroke-width:4.00629997;stroke-linecap:butt;stroke-linejoin:miter;stroke-miterlimit:4;stroke-dasharray:none;stroke-opacity:1"
         d="m 1083.09,896.332 -15.04,15 15.04,-52.582 15.03,52.582 z" /><path
         id="path82"
         style="fill:none;stroke:#000000;stroke-width:7.51180983;stroke-linecap:butt;stroke-linejoin:miter;stroke-miterlimit:4;stroke-dasharray:none;stroke-opacity:1"
         d="M 1083.09,538.672 V 399.34" /><path
         id="path84"
         style="fill:#000000;fill-opacity:1;fill-rule:evenodd;stroke:none"
         d="m 1083.09,508.629 15.03,-15 -15.03,52.582 -15.04,-52.582 z" /><path
         id="path86"
         style="fill:none;stroke:#000000;stroke-width:4.00629997;stroke-linecap:butt;stroke-linejoin:miter;stroke-miterlimit:4;stroke-dasharray:none;stroke-opacity:1"
         d="m 1083.09,508.629 15.03,-15 -15.03,52.582 -15.04,-52.582 z" /><path
         id="path88"
         style="fill:#000000;fill-opacity:1;fill-rule:evenodd;stroke:none"
         d="m 1083.09,429.41 -15.04,15 15.04,-52.57 15.03,52.57 z" /><path
         id="path90"
         style="fill:none;stroke:#000000;stroke-width:4.00629997;stroke-linecap:butt;stroke-linejoin:miter;stroke-miterlimit:4;stroke-dasharray:none;stroke-opacity:1"
         d="m 1083.09,429.41 -15.04,15 15.04,-52.57 15.03,52.57 z" /></g></g></svg>