<?xml version="1.0" encoding="UTF-8" standalone="no"?>
<svg
   xmlns:dc="http://purl.org/dc/elements/1.1/"
   xmlns:cc="http://creativecommons.org/ns#"
   xmlns:rdf="http://www.w3.org/1999/02/22-rdf-syntax-ns#"
   xmlns:svg="http://www.w3.org/2000/svg"
   xmlns="http://www.w3.org/2000/svg"
   viewBox="0 0 477.33334 262.66666"
   height="262.66666"
   width="477.33334"
   xml:space="preserve"
   id="svg2"
   version="1.1"><metadata
     id="metadata8"><rdf:RDF><cc:Work
         rdf:about=""><dc:format>image/svg+xml</dc:format><dc:type
           rdf:resource="http://purl.org/dc/dcmitype/StillImage" /></cc:Work></rdf:RDF></metadata><defs
     id="defs6" /><g
     transform="matrix(1.3333333,0,0,-1.3333333,0,262.66667)"
     id="g10"><g
       transform="scale(0.1)"
       id="g12"><path
         id="path14"
         style="fill:#ffffff;fill-opacity:1;fill-rule:nonzero;stroke:none"
         d="m 145.352,1482.66 h 219.219 v 161.211 H 145.352 Z" /><path
         id="path16"
         style="fill:none;stroke:#000000;stroke-width:11.33860016;stroke-linecap:butt;stroke-linejoin:miter;stroke-miterlimit:4;stroke-dasharray:none;stroke-opacity:1"
         d="m 145.352,1482.66 h 219.219 v 161.211 H 145.352 Z" /><path
         id="path18"
         style="fill:#cccccc;fill-opacity:1;fill-rule:nonzero;stroke:none"
         d="m 364.57,1482.66 h 219.219 v 161.211 H 364.57 Z" /><path
         id="path20"
         style="fill:none;stroke:#000000;stroke-width:11.33860016;stroke-linecap:butt;stroke-linejoin:miter;stroke-miterlimit:4;stroke-dasharray:34.0158, 34.0158;stroke-dashoffset:0;stroke-opacity:1"
         d="m 364.57,1482.66 h 219.219 v 161.211 H 364.57 Z" /><path
         id="path22"
         style="fill:#ffffff;fill-opacity:1;fill-rule:nonzero;stroke:none"
         d="m 583.789,1482.66 h 219.223 v 161.211 H 583.789 Z" /><path
         id="path24"
         style="fill:none;stroke:#000000;stroke-width:11.33860016;stroke-linecap:butt;stroke-linejoin:miter;stroke-miterlimit:4;stroke-dasharray:none;stroke-opacity:1"
         d="m 583.789,1482.66 h 219.223 v 161.211 H 583.789 Z" /><path
         id="path26"
         style="fill:none;stroke:#000000;stroke-width:12.51599979;stroke-linecap:butt;stroke-linejoin:miter;stroke-miterlimit:4;stroke-dasharray:none;stroke-opacity:1"
         d="m 803.59,1483.24 h 269.059 v 160.043 H 803.59 Z" /><path
         id="path28"
         style="fill:none;stroke:#000000;stroke-width:7.5;stroke-linecap:butt;stroke-linejoin:miter;stroke-miterlimit:4;stroke-dasharray:22.5, 22.5;stroke-dashoffset:0;stroke-opacity:1"
         d="M 1091.8,1698.4 2595,731.051" /><path
         id="path30"
         style="fill:#ffffff;fill-opacity:1;fill-rule:nonzero;stroke:none"
         d="m 1072.66,1482.07 h 219.219 v 161.211 H 1072.66 Z" /><path
         id="path32"
         style="fill:none;stroke:#000000;stroke-width:11.33860016;stroke-linecap:butt;stroke-linejoin:miter;stroke-miterlimit:4;stroke-dasharray:none;stroke-opacity:1"
         d="m 1072.66,1482.07 h 219.219 v 161.211 H 1072.66 Z" /><path
         id="path34"
         style="fill:#ffffff;fill-opacity:1;fill-rule:nonzero;stroke:none"
         d="M 145.121,969.77 H 346.25 v 161.68 H 145.121 Z" /><path
         id="path36"
         style="fill:none;stroke:#000000;stroke-width:10.87609959;stroke-linecap:butt;stroke-linejoin:miter;stroke-miterlimit:4;stroke-dasharray:none;stroke-opacity:1"
         d="M 145.121,969.77 H 346.25 v 161.68 H 145.121 Z" /><path
         id="path38"
         style="fill:#ffffff;fill-opacity:1;fill-rule:nonzero;stroke:none"
         d="m 346.25,969.77 h 201.09 v 161.68 H 346.25 Z" /><path
         id="path40"
         style="fill:none;stroke:#000000;stroke-width:10.87609959;stroke-linecap:butt;stroke-linejoin:miter;stroke-miterlimit:4;stroke-dasharray:none;stroke-opacity:1"
         d="m 346.25,969.77 h 201.09 v 161.68 H 346.25 Z" /><path
         id="path42"
         style="fill:#ffffff;fill-opacity:1;fill-rule:nonzero;stroke:none"
         d="m 547.852,970.238 h 239.57 v 160.742 h -239.57 z" /><path
         id="path44"
         style="fill:none;stroke:#000000;stroke-width:11.83570004;stroke-linecap:butt;stroke-linejoin:miter;stroke-miterlimit:4;stroke-dasharray:none;stroke-opacity:1"
         d="m 547.852,970.238 h 239.57 v 160.742 h -239.57 z" /><path
         id="path46"
         style="fill:none;stroke:#000000;stroke-width:10.87609959;stroke-linecap:butt;stroke-linejoin:miter;stroke-miterlimit:4;stroke-dasharray:none;stroke-opacity:1"
         d="m 787.422,969.301 h 201.129 v 161.68 H 787.422 Z" /><path
         id="path48"
         style="fill:#ffffff;fill-opacity:1;fill-rule:nonzero;stroke:none"
         d="m 988.551,969.301 h 201.129 v 161.68 H 988.551 Z" /><path
         id="path50"
         style="fill:none;stroke:#000000;stroke-width:10.87609959;stroke-linecap:butt;stroke-linejoin:miter;stroke-miterlimit:4;stroke-dasharray:none;stroke-opacity:1"
         d="m 988.551,969.301 h 201.129 v 161.68 H 988.551 Z" /><path
         id="path52"
         style="fill:#ffffff;fill-opacity:1;fill-rule:nonzero;stroke:none"
         d="m 1383.52,1266.33 h 269.059 v 160.082 H 1383.52 Z" /><path
         id="path54"
         style="fill:none;stroke:#000000;stroke-width:12.51599979;stroke-linecap:butt;stroke-linejoin:miter;stroke-miterlimit:4;stroke-dasharray:none;stroke-opacity:1"
         d="m 1383.52,1266.33 h 269.059 v 160.082 H 1383.52 Z" /><path
         id="path56"
         style="fill:none;stroke:#000000;stroke-width:11.33860016;stroke-linecap:butt;stroke-linejoin:miter;stroke-miterlimit:4;stroke-dasharray:none;stroke-opacity:1"
         d="m 2628.63,813.391 h 455.82 v 534.73 h -455.82 z" /><path
         id="path58"
         style="fill:none;stroke:#000000;stroke-width:11.33860016;stroke-linecap:butt;stroke-linejoin:miter;stroke-miterlimit:4;stroke-dasharray:none;stroke-opacity:1"
         d="m 2626.09,655.43 h 460.898 V 815.942 H 2626.09 Z" /><path
         id="path60"
         style="fill:none;stroke:#000000;stroke-width:11.33860016;stroke-linecap:butt;stroke-linejoin:miter;stroke-miterlimit:4;stroke-dasharray:none;stroke-opacity:1"
         d="m 2626.09,494.922 h 460.898 V 655.43 H 2626.09 Z" /><path
         id="path62"
         style="fill:none;stroke:#000000;stroke-width:11.33860016;stroke-linecap:butt;stroke-linejoin:miter;stroke-miterlimit:4;stroke-dasharray:none;stroke-opacity:1"
         d="m 3121.56,10.7813 h 447.73 v 503.398 h -447.73 z" /><path
         id="path64"
         style="fill:none;stroke:#000000;stroke-width:7.5;stroke-linecap:butt;stroke-linejoin:miter;stroke-miterlimit:4;stroke-dasharray:none;stroke-opacity:1"
         d="m 35.1602,1725.08 v -164.73 h 63.789" /><path
         id="path66"
         style="fill:#000000;fill-opacity:1;fill-rule:evenodd;stroke:none"
         d="m 68.9492,1560.35 -15,-15 52.4998,15 -52.4998,15 z" /><path
         id="path68"
         style="fill:none;stroke:#000000;stroke-width:4;stroke-linecap:butt;stroke-linejoin:miter;stroke-miterlimit:4;stroke-dasharray:none;stroke-opacity:1"
         d="m 68.9492,1560.35 -15,-15 52.4998,15 -52.4998,15 z" /><path
         id="path70"
         style="fill:none;stroke:#000000;stroke-width:7.5;stroke-linecap:butt;stroke-linejoin:miter;stroke-miterlimit:4;stroke-dasharray:none;stroke-opacity:1"
         d="m 147.66,1749.41 h 923.28" /><path
         id="path72"
         style="fill:#000000;fill-opacity:1;fill-rule:evenodd;stroke:none"
         d="m 1040.94,1749.41 -15,-15 52.5,15 -52.5,15 z" /><path
         id="path74"
         style="fill:none;stroke:#000000;stroke-width:4;stroke-linecap:butt;stroke-linejoin:miter;stroke-miterlimit:4;stroke-dasharray:none;stroke-opacity:1"
         d="m 1040.94,1749.41 -15,-15 52.5,15 -52.5,15 z" /><path
         id="path76"
         style="fill:none;stroke:#000000;stroke-width:7.5;stroke-linecap:butt;stroke-linejoin:miter;stroke-miterlimit:4;stroke-dasharray:none;stroke-opacity:1"
         d="m 1091.8,1698.4 h 89.33" /><path
         id="path78"
         style="fill:#000000;fill-opacity:1;fill-rule:evenodd;stroke:none"
         d="m 1151.13,1698.4 -15,-15 52.5,15 -52.5,15 z" /><path
         id="path80"
         style="fill:none;stroke:#000000;stroke-width:4;stroke-linecap:butt;stroke-linejoin:miter;stroke-miterlimit:4;stroke-dasharray:none;stroke-opacity:1"
         d="m 1151.13,1698.4 -15,-15 52.5,15 -52.5,15 z" /><path
         id="path82"
         style="fill:none;stroke:#000000;stroke-width:7.5;stroke-linecap:butt;stroke-linejoin:miter;stroke-miterlimit:4;stroke-dasharray:none;stroke-opacity:1"
         d="M 147.66,1828.28 H 554.801" /><path
         id="path84"
         style="fill:#000000;fill-opacity:1;fill-rule:evenodd;stroke:none"
         d="m 524.801,1828.28 -15,-15 52.5,15 -52.5,15 z" /><path
         id="path86"
         style="fill:none;stroke:#000000;stroke-width:4;stroke-linecap:butt;stroke-linejoin:miter;stroke-miterlimit:4;stroke-dasharray:none;stroke-opacity:1"
         d="m 524.801,1828.28 -15,-15 52.5,15 -52.5,15 z" /><path
         id="path88"
         style="fill:none;stroke:#000000;stroke-width:7.5;stroke-linecap:butt;stroke-linejoin:miter;stroke-miterlimit:4;stroke-dasharray:none;stroke-opacity:1"
         d="M 170.859,1479.18 V 1175.27" /><path
         id="path90"
         style="fill:#000000;fill-opacity:1;fill-rule:evenodd;stroke:none"
         d="m 170.859,1205.27 -15,15 15,-52.5 15,52.5 z" /><path
         id="path92"
         style="fill:none;stroke:#000000;stroke-width:4;stroke-linecap:butt;stroke-linejoin:miter;stroke-miterlimit:4;stroke-dasharray:none;stroke-opacity:1"
         d="m 170.859,1205.27 -15,15 15,-52.5 15,52.5 z" /><path
         id="path94"
         style="fill:none;stroke:#000000;stroke-width:7.5;stroke-linecap:butt;stroke-linejoin:miter;stroke-miterlimit:4;stroke-dasharray:none;stroke-opacity:1"
         d="m 434.18,1132.38 135.699,307.35" /><path
         id="path96"
         style="fill:#000000;fill-opacity:1;fill-rule:evenodd;stroke:none"
         d="m 557.73,1412.3 7.7,-19.8 7.461,54.1 -34.922,-41.99 z" /><path
         id="path98"
         style="fill:none;stroke:#000000;stroke-width:4;stroke-linecap:butt;stroke-linejoin:miter;stroke-miterlimit:4;stroke-dasharray:none;stroke-opacity:1"
         d="m 557.734,1412.31 7.7,-19.81 7.457,54.11 -34.926,-42 z" /><path
         id="path100"
         style="fill:none;stroke:#000000;stroke-width:7.5;stroke-linecap:butt;stroke-linejoin:miter;stroke-miterlimit:4;stroke-dasharray:none;stroke-opacity:1"
         d="m 680.039,1132.38 128.75,305.04" /><path
         id="path102"
         style="fill:#000000;fill-opacity:1;fill-rule:evenodd;stroke:none"
         d="m 797.148,1409.77 7.973,-19.65 6.598,54.22 -34.219,-42.54 z" /><path
         id="path104"
         style="fill:none;stroke:#000000;stroke-width:4;stroke-linecap:butt;stroke-linejoin:miter;stroke-miterlimit:4;stroke-dasharray:none;stroke-opacity:1"
         d="m 797.148,1409.77 7.965,-19.65 6.602,54.21 -34.211,-42.53 z" /><path
         id="path106"
         style="fill:#ffffff;fill-opacity:1;fill-rule:nonzero;stroke:none"
         d="m 899.262,1133.52 176.328,302.73" /><path
         id="path108"
         style="fill:none;stroke:#000000;stroke-width:7.5;stroke-linecap:butt;stroke-linejoin:miter;stroke-miterlimit:4;stroke-dasharray:none;stroke-opacity:1"
         d="m 899.262,1133.52 176.328,302.73" /><path
         id="path110"
         style="fill:#000000;fill-opacity:1;fill-rule:evenodd;stroke:none"
         d="m 1060.47,1410.35 5.43,-20.55 13.44,52.93 -39.38,-37.81 z" /><path
         id="path112"
         style="fill:none;stroke:#000000;stroke-width:4;stroke-linecap:butt;stroke-linejoin:miter;stroke-miterlimit:4;stroke-dasharray:none;stroke-opacity:1"
         d="m 1060.47,1410.36 5.43,-20.55 13.44,52.92 -39.38,-37.81 z" /><path
         id="path114"
         style="fill:none;stroke:#000000;stroke-width:7.5;stroke-linecap:butt;stroke-linejoin:miter;stroke-miterlimit:4;stroke-dasharray:none;stroke-opacity:1"
         d="m 1095.27,1132.38 274.89,100.9" /><path
         id="path116"
         style="fill:#000000;fill-opacity:1;fill-rule:evenodd;stroke:none"
         d="m 1341.99,1222.93 -8.9,-19.26 44.14,32.19 -54.46,-4.02 z" /><path
         id="path118"
         style="fill:none;stroke:#000000;stroke-width:4;stroke-linecap:butt;stroke-linejoin:miter;stroke-miterlimit:4;stroke-dasharray:none;stroke-opacity:1"
         d="m 1341.99,1222.93 -8.9,-19.25 44.14,32.18 -54.45,-4.02 z" /><path
         id="path120"
         style="fill:none;stroke:#000000;stroke-width:7.5;stroke-linecap:butt;stroke-linejoin:miter;stroke-miterlimit:4;stroke-dasharray:22.5, 22.5;stroke-dashoffset:0;stroke-opacity:1"
         d="M 2597.3,675.391 H 898.121" /><path
         id="path122"
         style="fill:none;stroke:#000000;stroke-width:7.5;stroke-linecap:butt;stroke-linejoin:miter;stroke-miterlimit:4;stroke-dasharray:none;stroke-opacity:1"
         d="m 898.121,675.391 v 75.39" /><path
         id="path124"
         style="fill:#000000;fill-opacity:1;fill-rule:evenodd;stroke:none"
         d="m 898.121,720.781 15,-15 -15,52.5 -15,-52.5 z" /><path
         id="path126"
         style="fill:none;stroke:#000000;stroke-width:4;stroke-linecap:butt;stroke-linejoin:miter;stroke-miterlimit:4;stroke-dasharray:none;stroke-opacity:1"
         d="m 898.121,720.781 15,-15 -15,52.5 -15,-52.5 z" /><path
         id="path128"
         style="fill:none;stroke:#000000;stroke-width:7.5;stroke-linecap:butt;stroke-linejoin:miter;stroke-miterlimit:4;stroke-dasharray:none;stroke-opacity:1"
         d="M 3122.73,243.91 H 2844.38 V 589.57" /><path
         id="path130"
         style="fill:#000000;fill-opacity:1;fill-rule:evenodd;stroke:none"
         d="m 2844.38,559.57 15,-15 -15,52.5 -15,-52.5 z" /><path
         id="path132"
         style="fill:none;stroke:#000000;stroke-width:4;stroke-linecap:butt;stroke-linejoin:miter;stroke-miterlimit:4;stroke-dasharray:none;stroke-opacity:1"
         d="m 2844.38,559.57 15,-15 -15,52.5 -15,-52.5 z" /><g
         transform="scale(10)"
         id="g134"><text
           id="text178"
           style="font-variant:normal;font-size:7px;font-family:Helvetica;-inkscape-font-specification:f-0-0;writing-mode:lr-tb;fill:#000000;fill-opacity:1;fill-rule:nonzero;stroke:none"
           transform="matrix(1,0,0,-1,16.9715,154.645)"><tspan
             id="tspan136"
             y="0"
             x="0 4.277 9.3310003 43.260139 47.53714 51.429138 67.389069 71.666069 75.558067 80.227074 82.173073 84.119072">TCBTLSTLS...</tspan><tspan
             id="tspan138"
             y="22.0375"
             x="124.105 128.382 132.274">TLS</tspan><tspan
             id="tspan140"
             y="51.614101"
             x="0.92699999 4.8189998 8.7110004 20.75786 24.64986 26.59586 40.24572 44.137718 46.083721 49.583721 51.52972 53.475719 64.836723 68.728722 70.674721 84.555862 88.447861 90.39386">nnndtvdtv...dtvdtv</tspan><tspan
             id="tspan142"
             y="0"
             x="93.599998 97.876999 101.769">TLS</tspan><tspan
             id="tspan144"
             y="73.071899"
             x="-14.963 -13.017 -9.125 -5.2329998 -1.341 2.1589999 25.860861 46.973 48.918999 50.865002 69.708931 84.317932 89.371933 91.317932 95.40593 97.351929">Index:1...NN + 1</tspan><tspan
             id="tspan146"
             y="100.4446"
             x="79.914001 84.968002 88.860001 94.691002 98.603851 102.49585 106.38785 110.27985 114.17185 116.11785 118.06385 119.61785 123.50985 127.42299 131.31499 134.81499 136.76099 141.81499 143.76099 147.26099 149.20699 153.099 155.42999 159.32199 163.21399 165.15999 166.71399 170.62691 172.57291 178.01891 183.4649">Component index N stored in GOT</tspan><tspan
             id="tspan148"
             y="126.5415"
             x="168.49519 173.1642 178.2182 180.57021 182.9012 186.7932 188.3472 192.26006 194.20605 195.76006 199.26006 203.15205 205.09805 207.42905 211.32104 213.26704 217.15904 219.49005 223.40302 227.29503 230.79503 234.68703 236.63303 238.57903 242.47102 244.41702 249.86302 255.30902">PC-relative reference to GOT</tspan><tspan
             id="tspan150"
             y="22.501499"
             x="180.7979 186.2439 188.1899 190.13589 193.63589 197.52789 199.47391 201.39908 202.95308 206.84508 208.79108 213.06807 216.96007">Offset in TLS</tspan><tspan
             id="tspan152"
             y="30.001499"
             x="186.60844 190.50044 192.44646 194.39246 195.94646 201.77745 205.66945 209.56145 211.91351 213.85951 217.75153">of imported</tspan><tspan
             id="tspan154"
             y="37.501499"
             x="197.10844 200.60844 204.50044 206.83145 208.38545 212.29829 216.19029 217.74429">variable</tspan><tspan
             id="tspan156"
             y="45.001499"
             x="194.78423 198.28423 200.23022 204.12222 206.45323 210.34523 214.23723 216.18323 217.73723">stored in</tspan><tspan
             id="tspan158"
             y="52.501499"
             x="206.48734 211.93333 217.37933">GOT</tspan><tspan
             id="tspan160"
             y="46.51088"
             x="261.69162 266.74564 270.63763 272.58362">Data</tspan><tspan
             id="tspan162"
             y="54.01088"
             x="255.6553 259.1553 263.0473 266.9393 272.77029 276.68341 280.57541">segment</tspan><tspan
             id="tspan164"
             y="83.974182"
             x="255.30452 260.75052 266.19653 270.47351 272.41953 274.36551 276.29044">GOT ...</tspan><tspan
             id="tspan166"
             y="83.278481"
             x="302.32721 307.38123 312.05023">DSO</tspan><tspan
             id="tspan168"
             y="123.64178"
             x="308.32605 312.60306 316.49506 319.99506">Text</tspan><tspan
             id="tspan170"
             y="131.14178"
             x="301.70221 305.20221 309.09421 312.98621 318.81723 322.73035 326.62234">segment</tspan><tspan
             id="tspan172"
             y="-37.231224"
             x="5.4562192 9.3482189 11.294219 13.240219 16.740219 20.632219 22.578218 24.52422">offset 1</tspan><tspan
             id="tspan174"
             y="-29.344112"
             x="63.216419 67.108421 69.05442 71.00042 74.50042 78.392418 80.338417 82.284416">offset N</tspan><tspan
             id="tspan176"
             y="-21.689034"
             x="-17.069481 -15.123481">tp</tspan></text>
<text
           id="text186"
           style="font-variant:normal;font-size:4px;font-family:Helvetica;-inkscape-font-specification:f-0-0;writing-mode:lr-tb;fill:#000000;fill-opacity:1;fill-rule:nonzero;stroke:none"
           transform="matrix(1,0,0,-1,73.387519,153.25243)"><tspan
             id="tspan180"
             y="0"
             x="0 50.237999">1N</tspan><tspan
             id="tspan182"
             y="22.451599"
             x="80.743797">D</tspan><tspan
             id="tspan184"
             y="51.871899"
             x="-26.5772 17.7456 37.229599">1ND</tspan></text>
</g></g></g></svg>