<?xml version="1.0" encoding="UTF-8" standalone="no"?>
<!-- Created with Inkscape (http://www.inkscape.org/) -->

<svg
   version="1.1"
   id="svg2"
   xml:space="preserve"
   width="626.66669"
   height="1078.6667"
   viewBox="0 0 626.66669 1078.6667"
   xmlns="http://www.w3.org/2000/svg"
   xmlns:svg="http://www.w3.org/2000/svg"><defs
     id="defs6" /><g
     id="g8"
     transform="matrix(1.3333333,0,0,-1.3333333,0,1078.6667)"><g
       id="g10"
       transform="scale(0.1)"><path
         d="M 4.80078,6993.95 H 1591.6408 v 545.621 H 4.80078 Z"
         style="fill:none;stroke:#000000;stroke-width:9.62353;stroke-linecap:butt;stroke-linejoin:miter;stroke-miterlimit:4;stroke-dasharray:none;stroke-opacity:1"
         id="path12" /><path
         d="M 4.80078,7539.58 H 1591.6408 v 545.617 H 4.80078 Z"
         style="fill:none;stroke:#000000;stroke-width:9.62353;stroke-linecap:butt;stroke-linejoin:miter;stroke-miterlimit:4;stroke-dasharray:none;stroke-opacity:1"
         id="path14" /><g
         id="g16"
         transform="scale(10)"><text
           transform="matrix(1,0,0,-1,25.5586,773.508)"
           style="font-variant:normal;font-weight:normal;font-size:18.928px;font-family:Helvetica;-inkscape-font-specification:ArialMT;writing-mode:lr-tb;fill:#000000;fill-opacity:1;fill-rule:nonzero;stroke:none"
           id="text20"><tspan
             x="0 13.666016 24.189983 34.713951 45.237919 55.761887 62.064911"
             y="0"
             id="tspan18">Headers</tspan></text></g><path
         d="M 4.80078,6448.33 H 1591.6408 v 545.617 H 4.80078 Z"
         style="fill:none;stroke:#000000;stroke-width:9.62353;stroke-linecap:butt;stroke-linejoin:miter;stroke-miterlimit:4;stroke-dasharray:none;stroke-opacity:1"
         id="path22" /><g
         id="g24"
         transform="scale(10)"><text
           transform="matrix(1,0,0,-1,25.5586,664.384)"
           style="font-variant:normal;font-weight:normal;font-size:18.928px;font-family:Helvetica;-inkscape-font-specification:ArialMT;writing-mode:lr-tb;fill:#000000;fill-opacity:1;fill-rule:nonzero;stroke:none"
           id="text28"><tspan
             x="0 5.2619839 10.523968 21.047935 30.511936"
             y="0"
             id="tspan26">.text</tspan></text></g><path
         d="M 4.80078,5902.7 H 1591.6408 v 545.621 H 4.80078 Z"
         style="fill:none;stroke:#000000;stroke-width:9.62353;stroke-linecap:butt;stroke-linejoin:miter;stroke-miterlimit:4;stroke-dasharray:none;stroke-opacity:1"
         id="path30" /><g
         id="g32"
         transform="scale(10)"><text
           transform="matrix(1,0,0,-1,25.5586,609.822)"
           style="font-variant:normal;font-weight:normal;font-size:18.928px;font-family:Helvetica;-inkscape-font-specification:ArialMT;writing-mode:lr-tb;fill:#000000;fill-opacity:1;fill-rule:nonzero;stroke:none"
           id="text36"><tspan
             x="0 5.2619839 11.565008 22.088976 32.612946 43.136913 48.398895"
             y="0"
             id="tspan34">.rodata</tspan></text></g><path
         d="M 4.80078,5357.11 H 1591.6408 V 5902.7 H 4.80078 Z"
         style="fill:none;stroke:#000000;stroke-width:9.62353;stroke-linecap:butt;stroke-linejoin:miter;stroke-miterlimit:4;stroke-dasharray:none;stroke-opacity:1"
         id="path38" /><g
         id="g40"
         transform="scale(10)"><text
           transform="matrix(1,0,0,-1,25.5586,555.261)"
           style="font-variant:normal;font-weight:normal;font-size:18.928px;font-family:Helvetica;-inkscape-font-specification:ArialMT;writing-mode:lr-tb;fill:#000000;fill-opacity:1;fill-rule:nonzero;stroke:none"
           id="text44"><tspan
             x="0 5.2619839 15.785952 26.309919 36.833889 42.095871 48.398895 58.922863 74.689888"
             y="0"
             id="tspan42">.eh_frame</tspan></text></g><path
         d="m 15.3086,3829.77 h 1586.84 v 545.621 H 15.3086 Z"
         style="fill:none;stroke:#000000;stroke-width:9.62353;stroke-linecap:butt;stroke-linejoin:miter;stroke-miterlimit:4;stroke-dasharray:none;stroke-opacity:1"
         id="path46" /><path
         d="m 15.3086,3284.15 h 1586.84 v 545.621 H 15.3086 Z"
         style="fill:none;stroke:#000000;stroke-width:9.62353;stroke-linecap:butt;stroke-linejoin:miter;stroke-miterlimit:4;stroke-dasharray:none;stroke-opacity:1"
         id="path48" /><path
         d="m 15.3086,2738.52 h 1586.84 v 545.621 H 15.3086 Z"
         style="fill:none;stroke:#000000;stroke-width:9.62353;stroke-linecap:butt;stroke-linejoin:miter;stroke-miterlimit:4;stroke-dasharray:none;stroke-opacity:1"
         id="path50" /><g
         id="g52"
         transform="scale(10)"><text
           transform="matrix(1,0,0,-1,26.607,293.404)"
           style="font-variant:normal;font-weight:normal;font-size:18.928px;font-family:Helvetica;-inkscape-font-specification:ArialMT;writing-mode:lr-tb;fill:#000000;fill-opacity:1;fill-rule:nonzero;stroke:none"
           id="text56"><tspan
             x="0 5.2619839 15.785952 26.309919 31.571903 42.095871 47.357857 53.660881 64.184845 68.386864 73.648849 79.951874"
             y="0"
             id="tspan54">.data.rel.ro</tspan></text></g><path
         d="m 15.3086,2192.9 h 1586.84 v 545.621 H 15.3086 Z"
         style="fill:none;stroke:#000000;stroke-width:9.62353;stroke-linecap:butt;stroke-linejoin:miter;stroke-miterlimit:4;stroke-dasharray:none;stroke-opacity:1"
         id="path58" /><g
         id="g60"
         transform="scale(10)"><text
           transform="matrix(1,0,0,-1,26.607,238.842)"
           style="font-variant:normal;font-weight:normal;font-size:18.928px;font-family:Helvetica;-inkscape-font-specification:ArialMT;writing-mode:lr-tb;fill:#000000;fill-opacity:1;fill-rule:nonzero;stroke:none"
           id="text64"><tspan
             x="0 5.2619839 15.785952 25.249952 35.773918 46.29789 62.064911 66.26693"
             y="0"
             id="tspan62">.dynamic</tspan></text></g><path
         d="m 15.3086,1647.3 h 1586.84 v 545.59 H 15.3086 Z"
         style="fill:none;stroke:#000000;stroke-width:9.62353;stroke-linecap:butt;stroke-linejoin:miter;stroke-miterlimit:4;stroke-dasharray:none;stroke-opacity:1"
         id="path66" /><g
         id="g68"
         transform="scale(10)"><text
           transform="matrix(1,0,0,-1,26.607,184.28)"
           style="font-variant:normal;font-weight:normal;font-size:18.928px;font-family:Helvetica;-inkscape-font-specification:ArialMT;writing-mode:lr-tb;fill:#000000;fill-opacity:1;fill-rule:nonzero;stroke:none"
           id="text72"><tspan
             x="0 5.2619839 15.785952 26.309919"
             y="0"
             id="tspan70">.got</tspan></text></g><path
         d="m 15.3086,1101.68 h 1586.84 v 545.621 H 15.3086 Z"
         style="fill:none;stroke:#000000;stroke-width:9.62353;stroke-linecap:butt;stroke-linejoin:miter;stroke-miterlimit:4;stroke-dasharray:none;stroke-opacity:1"
         id="path74" /><g
         id="g76"
         transform="scale(10)"><text
           transform="matrix(1,0,0,-1,26.607,129.718)"
           style="font-variant:normal;font-weight:normal;font-size:18.928px;font-family:Helvetica;-inkscape-font-specification:ArialMT;writing-mode:lr-tb;fill:#000000;fill-opacity:1;fill-rule:nonzero;stroke:none"
           id="text80"><tspan
             x="0 5.2619839 15.785952 26.309919 31.571903 36.833889 47.357857 51.559872"
             y="0"
             id="tspan78">.got.plt</tspan></text></g><path
         d="m 15.3086,1101.68 h 1586.84 v 545.621 H 15.3086 Z"
         style="fill:none;stroke:#000000;stroke-width:9.62353;stroke-linecap:butt;stroke-linejoin:miter;stroke-miterlimit:4;stroke-dasharray:none;stroke-opacity:1"
         id="path82" /><g
         id="g84"
         transform="scale(10)"><text
           transform="matrix(1,0,0,-1,25.191684,361.998)"
           style="font-variant:normal;font-weight:normal;font-size:18.928px;font-family:Helvetica;-inkscape-font-specification:ArialMT;writing-mode:lr-tb;fill:#000000;fill-opacity:1;fill-rule:nonzero;stroke:none"
           id="text100"><tspan
             x="0 5.2619839 9.4639997 19.987968 24.189983 29.451967 39.975937 50.499905 56.802929 63.105953 73.629921"
             y="0"
             id="tspan86">.init_array</tspan><tspan
             x="-5.2619839 0 5.2619839 10.523968 14.725984 25.249952 29.451967 39.975937 50.499905 56.802929 63.105953 73.629921"
             y="23.6602"
             id="tspan88"> .fini_array</tspan><tspan
             x="-4.7264371 0.53554702 5.7975311 16.321499 26.845467 32.107452"
             y="-53.0355"
             id="tspan90">.tdata</tspan><tspan
             x="-4.7264371 0.53554702 5.7975311 16.321499 25.7855"
             y="-29.375299"
             id="tspan92">.tbss</tspan><tspan
             x="0.34231299 5.6042972 16.128265 20.33028"
             y="-358.5813"
             id="tspan94">.plt</tspan><tspan
             x="37.518112 50.143089 54.345104 58.547119 69.071091 79.595055 95.362083 105.88605 116.41002"
             y="-131.4353"
             id="tspan96">Alignment</tspan><tspan
             x="37.518112 48.04208 58.566048 69.090019 79.613983 83.816002 94.339966"
             y="-107.7751"
             id="tspan98">padding</tspan></text><text
           transform="matrix(1,0,0,-1,206.2808,687.8971)"
           style="font-variant:normal;font-size:18px;font-family:Helvetica;-inkscape-font-specification:f-1-0;writing-mode:lr-tb;fill:#000000;fill-opacity:1;fill-rule:nonzero;stroke:none"
           id="text118"><tspan
             x="0 9.4499998 19.278128 27.756264"
             y="0"
             id="tspan102">Text</tspan><tspan
             x="0 10.746 20.519928 30.653929 47.321926 57.293926 68.291931"
             y="27.5"
             id="tspan104">Segment</tspan><tspan
             x="8.0355501 20.40155 30.283604 36.637501"
             y="459.64301"
             id="tspan106">Data</tspan><tspan
             x="8.0355501 18.781549 28.555477 38.68948 55.357479 65.329475 76.327477"
             y="487.14301"
             id="tspan108">Segment</tspan><tspan
             x="182.67854 193.42455 204.29651 214.44852 225.44652 229.47852 240.38651"
             y="222.85699"
             id="tspan110">Span of</tspan><tspan
             x="182.67854 189.19455 199.02267 207.50079 214.28679 218.31879 228.47079 239.4688"
             y="250.35699"
             id="tspan112">text and</tspan><tspan
             x="182.67854 193.83855 203.72073 210.07465"
             y="277.85699"
             id="tspan114">data</tspan><tspan
             x="182.67854 191.10255 200.8766 211.0106 227.6786 237.6506 248.64861 255.23676"
             y="305.35699"
             id="tspan116">segments</tspan></text></g><path
         d="M 1939.61,8030.74 V 5411.13"
         style="fill:none;stroke:#000000;stroke-width:11.3386;stroke-linecap:butt;stroke-linejoin:miter;stroke-miterlimit:4;stroke-dasharray:none;stroke-opacity:1"
         id="path120" /><path
         d="m 1889.3,7909.53 50.11,136.29 50.08,-136.29 c -29.57,21.8 -70.04,21.64 -100.19,0 z"
         style="fill:#000000;fill-opacity:1;fill-rule:evenodd;stroke:none"
         id="path122" /><path
         d="m 1889.3,7909.53 50.11,136.29 50.08,-136.29 c -29.57,21.8 -70.04,21.64 -100.19,0 z"
         style="fill:none;stroke:#000000;stroke-width:7.79528;stroke-linecap:butt;stroke-linejoin:round;stroke-miterlimit:4;stroke-dasharray:none;stroke-opacity:1"
         id="path124" /><path
         d="m 1939.61,5524.49 -45.35,45.35 45.35,-158.71 45.35,158.71 z"
         style="fill:#000000;fill-opacity:1;fill-rule:evenodd;stroke:none"
         id="path126" /><path
         d="m 1939.61,5524.49 -45.35,45.35 45.35,-158.71 45.35,158.71 z"
         style="fill:none;stroke:#000000;stroke-width:12.0945;stroke-linecap:butt;stroke-linejoin:miter;stroke-miterlimit:4;stroke-dasharray:none;stroke-opacity:1"
         id="path128" /><path
         d="M 359.262,5218.24 V 4511.13"
         style="fill:none;stroke:#000000;stroke-width:11.3386;stroke-linecap:butt;stroke-linejoin:miter;stroke-miterlimit:4;stroke-dasharray:none;stroke-opacity:1"
         id="path130" /><path
         d="m 308.949,5097.03 50.071,136.29 50.121,-136.29 c -29.571,21.8 -70.039,21.64 -100.192,0 z"
         style="fill:#000000;fill-opacity:1;fill-rule:evenodd;stroke:none"
         id="path132" /><path
         d="m 308.949,5097.03 50.071,136.29 50.121,-136.29 c -29.571,21.8 -70.039,21.64 -100.192,0 z"
         style="fill:none;stroke:#000000;stroke-width:7.79528;stroke-linecap:butt;stroke-linejoin:round;stroke-miterlimit:4;stroke-dasharray:none;stroke-opacity:1"
         id="path134" /><path
         d="m 359.262,4624.49 -45.391,45.35 45.391,-158.71 45.347,158.71 z"
         style="fill:#000000;fill-opacity:1;fill-rule:evenodd;stroke:none"
         id="path136" /><path
         d="m 359.262,4624.49 -45.391,45.35 45.391,-158.71 45.347,158.71 z"
         style="fill:none;stroke:#000000;stroke-width:12.0945;stroke-linecap:butt;stroke-linejoin:miter;stroke-miterlimit:4;stroke-dasharray:none;stroke-opacity:1"
         id="path138" /><path
         d="M 1982.46,4328.98 V 70.0391"
         style="fill:none;stroke:#000000;stroke-width:11.3386;stroke-linecap:butt;stroke-linejoin:miter;stroke-miterlimit:4;stroke-dasharray:none;stroke-opacity:1"
         id="path140" /><path
         d="m 1932.15,4207.77 50.12,136.25 50.11,-136.25 c -29.61,21.76 -70.08,21.64 -100.23,0 z"
         style="fill:#000000;fill-opacity:1;fill-rule:evenodd;stroke:none"
         id="path142" /><path
         d="m 1932.15,4207.77 50.12,136.25 50.11,-136.25 c -29.61,21.76 -70.08,21.64 -100.23,0 z"
         style="fill:none;stroke:#000000;stroke-width:7.79528;stroke-linecap:butt;stroke-linejoin:round;stroke-miterlimit:4;stroke-dasharray:none;stroke-opacity:1"
         id="path144" /><path
         d="m 1982.46,183.441 -45.35,45.348 45.35,-158.7499 45.35,158.7499 z"
         style="fill:#000000;fill-opacity:1;fill-rule:evenodd;stroke:none"
         id="path146" /><path
         d="m 1982.46,183.441 -45.35,45.348 45.35,-158.7499 45.35,158.7499 z"
         style="fill:none;stroke:#000000;stroke-width:12.0945;stroke-linecap:butt;stroke-linejoin:miter;stroke-miterlimit:4;stroke-dasharray:none;stroke-opacity:1"
         id="path148" /><path
         d="M 3707.46,8025.27 V 32.6992"
         style="fill:none;stroke:#000000;stroke-width:11.3728;stroke-linecap:butt;stroke-linejoin:miter;stroke-miterlimit:4;stroke-dasharray:none;stroke-opacity:1"
         id="path150" /><path
         d="m 3656.99,7903.71 50.28,136.68 50.23,-136.68 c -29.65,21.84 -70.27,21.72 -100.51,0 z"
         style="fill:#000000;fill-opacity:1;fill-rule:evenodd;stroke:none"
         id="path152" /><path
         d="m 3656.99,7903.71 50.28,136.68 50.23,-136.68 c -29.65,21.84 -70.27,21.72 -100.51,0 z"
         style="fill:none;stroke:#000000;stroke-width:7.81877;stroke-linecap:butt;stroke-linejoin:round;stroke-miterlimit:4;stroke-dasharray:none;stroke-opacity:1"
         id="path154" /><path
         d="m 3707.46,146.41 -45.51,45.5 45.51,-159.2108 45.47,159.2108 z"
         style="fill:#000000;fill-opacity:1;fill-rule:evenodd;stroke:none"
         id="path156" /><path
         d="m 3707.46,146.41 -45.51,45.5 45.51,-159.2108 45.47,159.2108 z"
         style="fill:none;stroke:#000000;stroke-width:12.1309;stroke-linecap:butt;stroke-linejoin:miter;stroke-miterlimit:4;stroke-dasharray:none;stroke-opacity:1"
         id="path158" /><path
         d="m 15.3086,556.059 h 1586.84 V 1101.68 H 15.3086 Z"
         style="fill:none;stroke:#000000;stroke-width:9.62353;stroke-linecap:butt;stroke-linejoin:miter;stroke-miterlimit:4;stroke-dasharray:none;stroke-opacity:1"
         id="path160" /><g
         id="g162"
         transform="scale(10)"><text
           transform="matrix(1,0,0,-1,28.107,75.1563)"
           style="font-variant:normal;font-weight:normal;font-size:18.928px;font-family:Helvetica;-inkscape-font-specification:ArialMT;writing-mode:lr-tb;fill:#000000;fill-opacity:1;fill-rule:nonzero;stroke:none"
           id="text166"><tspan
             x="0 5.2619839 15.785952 26.309919 31.571903"
             y="0"
             id="tspan164">.data</tspan></text></g><path
         d="m 15.3086,10.4297 h 1586.84 v 545.621 H 15.3086 Z"
         style="fill:none;stroke:#000000;stroke-width:9.62353;stroke-linecap:butt;stroke-linejoin:miter;stroke-miterlimit:4;stroke-dasharray:none;stroke-opacity:1"
         id="path168" /><g
         id="g170"
         transform="scale(10)"><text
           transform="matrix(1,0,0,-1,26.607,20.5945)"
           style="font-variant:normal;font-weight:normal;font-size:18.928px;font-family:Helvetica;-inkscape-font-specification:ArialMT;writing-mode:lr-tb;fill:#000000;fill-opacity:1;fill-rule:nonzero;stroke:none"
           id="text174"><tspan
             x="0 5.2619839 15.785952 25.249952"
             y="0"
             id="tspan172">.bss</tspan></text></g><path
         d="m 15.3086,10.4297 h 1586.84 v 545.621 H 15.3086 Z"
         style="fill:none;stroke:#000000;stroke-width:9.62353;stroke-linecap:butt;stroke-linejoin:miter;stroke-miterlimit:4;stroke-dasharray:none;stroke-opacity:1"
         id="path176" /></g></g></svg>
