<?xml version="1.0" encoding="UTF-8" standalone="no"?>
<svg
   xmlns:dc="http://purl.org/dc/elements/1.1/"
   xmlns:cc="http://creativecommons.org/ns#"
   xmlns:rdf="http://www.w3.org/1999/02/22-rdf-syntax-ns#"
   xmlns:svg="http://www.w3.org/2000/svg"
   xmlns="http://www.w3.org/2000/svg"
   viewBox="0 0 636 1078.6667"
   height="1078.6667"
   width="636"
   xml:space="preserve"
   id="svg2"
   version="1.1"><metadata
     id="metadata8"><rdf:RDF><cc:Work
         rdf:about=""><dc:format>image/svg+xml</dc:format><dc:type
           rdf:resource="http://purl.org/dc/dcmitype/StillImage" /></cc:Work></rdf:RDF></metadata><defs
     id="defs6" /><g
     transform="matrix(1.3333333,0,0,-1.3333333,0,1078.6667)"
     id="g10"><g
       transform="scale(0.1)"
       id="g12"><path
         id="path14"
         style="fill:none;stroke:#000000;stroke-width:9.62353039;stroke-linecap:butt;stroke-linejoin:miter;stroke-miterlimit:4;stroke-dasharray:none;stroke-opacity:1"
         d="M 4.80078,6993.95 H 1591.6408 v 545.621 H 4.80078 Z" /><path
         id="path16"
         style="fill:none;stroke:#000000;stroke-width:9.62353039;stroke-linecap:butt;stroke-linejoin:miter;stroke-miterlimit:4;stroke-dasharray:none;stroke-opacity:1"
         d="M 4.80078,7539.58 H 1591.6408 v 545.617 H 4.80078 Z" /><g
         transform="scale(10)"
         id="g18"><text
           id="text22"
           style="font-variant:normal;font-weight:normal;font-size:18.9279995px;font-family:Helvetica;-inkscape-font-specification:ArialMT;writing-mode:lr-tb;fill:#000000;fill-opacity:1;fill-rule:nonzero;stroke:none"
           transform="matrix(1,0,0,-1,25.5586,773.508)"><tspan
             id="tspan20"
             y="0"
             x="0 13.666016 24.189983 34.713951 45.237919 55.761887 62.064911">Headers</tspan></text>
</g><path
         id="path24"
         style="fill:none;stroke:#000000;stroke-width:9.62353039;stroke-linecap:butt;stroke-linejoin:miter;stroke-miterlimit:4;stroke-dasharray:none;stroke-opacity:1"
         d="M 4.80078,6448.33 H 1591.6408 v 545.617 H 4.80078 Z" /><g
         transform="scale(10)"
         id="g26"><text
           id="text30"
           style="font-variant:normal;font-weight:normal;font-size:18.9279995px;font-family:Helvetica;-inkscape-font-specification:ArialMT;writing-mode:lr-tb;fill:#000000;fill-opacity:1;fill-rule:nonzero;stroke:none"
           transform="matrix(1,0,0,-1,25.5586,664.384)"><tspan
             id="tspan28"
             y="0"
             x="0 5.2619839 10.523968 21.047935 30.511936">.text</tspan></text>
</g><path
         id="path32"
         style="fill:none;stroke:#000000;stroke-width:9.62353039;stroke-linecap:butt;stroke-linejoin:miter;stroke-miterlimit:4;stroke-dasharray:none;stroke-opacity:1"
         d="M 4.80078,5902.7 H 1591.6408 v 545.621 H 4.80078 Z" /><g
         transform="scale(10)"
         id="g34"><text
           id="text38"
           style="font-variant:normal;font-weight:normal;font-size:18.9279995px;font-family:Helvetica;-inkscape-font-specification:ArialMT;writing-mode:lr-tb;fill:#000000;fill-opacity:1;fill-rule:nonzero;stroke:none"
           transform="matrix(1,0,0,-1,25.5586,609.822)"><tspan
             id="tspan36"
             y="0"
             x="0 5.2619839 11.565008 22.088976 32.612946 43.136913 48.398895">.rodata</tspan></text>
</g><path
         id="path40"
         style="fill:none;stroke:#000000;stroke-width:9.62353039;stroke-linecap:butt;stroke-linejoin:miter;stroke-miterlimit:4;stroke-dasharray:none;stroke-opacity:1"
         d="M 4.80078,5357.11 H 1591.6408 V 5902.7 H 4.80078 Z" /><g
         transform="scale(10)"
         id="g42"><text
           id="text46"
           style="font-variant:normal;font-weight:normal;font-size:18.9279995px;font-family:Helvetica;-inkscape-font-specification:ArialMT;writing-mode:lr-tb;fill:#000000;fill-opacity:1;fill-rule:nonzero;stroke:none"
           transform="matrix(1,0,0,-1,25.5586,555.261)"><tspan
             id="tspan44"
             y="0"
             x="0 5.2619839 15.785952 26.309919 31.571903 37.874928 48.398895 64.165916">.ehframe</tspan></text>
</g><path
         id="path48"
         style="fill:none;stroke:#000000;stroke-width:9.62353039;stroke-linecap:butt;stroke-linejoin:miter;stroke-miterlimit:4;stroke-dasharray:none;stroke-opacity:1"
         d="m 15.3086,3829.77 h 1586.84 v 545.621 H 15.3086 Z" /><path
         id="path50"
         style="fill:none;stroke:#000000;stroke-width:9.62353039;stroke-linecap:butt;stroke-linejoin:miter;stroke-miterlimit:4;stroke-dasharray:none;stroke-opacity:1"
         d="m 15.3086,3284.15 h 1586.84 v 545.621 H 15.3086 Z" /><path
         id="path52"
         style="fill:none;stroke:#000000;stroke-width:9.62353039;stroke-linecap:butt;stroke-linejoin:miter;stroke-miterlimit:4;stroke-dasharray:none;stroke-opacity:1"
         d="m 15.3086,2738.52 h 1586.84 v 545.621 H 15.3086 Z" /><g
         transform="scale(10)"
         id="g54"><text
           id="text58"
           style="font-variant:normal;font-weight:normal;font-size:18.9279995px;font-family:Helvetica;-inkscape-font-specification:ArialMT;writing-mode:lr-tb;fill:#000000;fill-opacity:1;fill-rule:nonzero;stroke:none"
           transform="matrix(1,0,0,-1,26.607,293.404)"><tspan
             id="tspan56"
             y="0"
             x="0 5.2619839 15.785952 26.309919 31.571903 42.095871 47.357857 53.660881 64.184845 68.386864 73.648849 79.951874">.data.rel.ro</tspan></text>
</g><path
         id="path60"
         style="fill:none;stroke:#000000;stroke-width:9.62353039;stroke-linecap:butt;stroke-linejoin:miter;stroke-miterlimit:4;stroke-dasharray:none;stroke-opacity:1"
         d="m 15.3086,2192.9 h 1586.84 v 545.621 H 15.3086 Z" /><g
         transform="scale(10)"
         id="g62"><text
           id="text66"
           style="font-variant:normal;font-weight:normal;font-size:18.9279995px;font-family:Helvetica;-inkscape-font-specification:ArialMT;writing-mode:lr-tb;fill:#000000;fill-opacity:1;fill-rule:nonzero;stroke:none"
           transform="matrix(1,0,0,-1,26.607,238.842)"><tspan
             id="tspan64"
             y="0"
             x="0 5.2619839 15.785952 25.249952 35.773918 46.29789 62.064911 66.26693">.dynamic</tspan></text>
</g><path
         id="path68"
         style="fill:none;stroke:#000000;stroke-width:9.62353039;stroke-linecap:butt;stroke-linejoin:miter;stroke-miterlimit:4;stroke-dasharray:none;stroke-opacity:1"
         d="m 15.3086,1647.3 h 1586.84 v 545.59 H 15.3086 Z" /><g
         transform="scale(10)"
         id="g70"><text
           id="text74"
           style="font-variant:normal;font-weight:normal;font-size:18.9279995px;font-family:Helvetica;-inkscape-font-specification:ArialMT;writing-mode:lr-tb;fill:#000000;fill-opacity:1;fill-rule:nonzero;stroke:none"
           transform="matrix(1,0,0,-1,26.607,184.28)"><tspan
             id="tspan72"
             y="0"
             x="0 5.2619839 15.785952 26.309919">.got</tspan></text>
</g><path
         id="path76"
         style="fill:none;stroke:#000000;stroke-width:9.62353039;stroke-linecap:butt;stroke-linejoin:miter;stroke-miterlimit:4;stroke-dasharray:none;stroke-opacity:1"
         d="m 15.3086,1101.68 h 1586.84 v 545.621 H 15.3086 Z" /><g
         transform="scale(10)"
         id="g78"><text
           id="text82"
           style="font-variant:normal;font-weight:normal;font-size:18.9279995px;font-family:Helvetica;-inkscape-font-specification:ArialMT;writing-mode:lr-tb;fill:#000000;fill-opacity:1;fill-rule:nonzero;stroke:none"
           transform="matrix(1,0,0,-1,26.607,129.718)"><tspan
             id="tspan80"
             y="0"
             x="0 5.2619839 15.785952 26.309919 31.571903 36.833889 47.357857 51.559872">.got.plt</tspan></text>
</g><path
         id="path84"
         style="fill:none;stroke:#000000;stroke-width:9.62353039;stroke-linecap:butt;stroke-linejoin:miter;stroke-miterlimit:4;stroke-dasharray:none;stroke-opacity:1"
         d="m 15.3086,1101.68 h 1586.84 v 545.621 H 15.3086 Z" /><g
         transform="scale(10)"
         id="g86"><text
           id="text102"
           style="font-variant:normal;font-weight:normal;font-size:18.9279995px;font-family:Helvetica;-inkscape-font-specification:ArialMT;writing-mode:lr-tb;fill:#000000;fill-opacity:1;fill-rule:nonzero;stroke:none"
           transform="matrix(1,0,0,-1,25.191684,361.998)"><tspan
             id="tspan88"
             y="0"
             x="0 5.2619839 9.4639997 19.987968 24.189983 29.451967 39.975937 50.499905 56.802929 63.105953 73.629921">.init_array</tspan><tspan
             id="tspan90"
             y="23.6602"
             x="-5.2619839 0 5.2619839 10.523968 14.725984 25.249952 29.451967 39.975937 50.499905 56.802929 63.105953 73.629921"> .fini_array</tspan><tspan
             id="tspan92"
             y="-53.0355"
             x="-4.7264371 0.53554702 5.7975311 16.321499 26.845467 32.107452">.tdata</tspan><tspan
             id="tspan94"
             y="-29.375299"
             x="-4.7264371 0.53554702 5.7975311 16.321499 25.7855">.tbss</tspan><tspan
             id="tspan96"
             y="-358.5813"
             x="0.34231299 5.6042972 16.128265 20.33028">.plt</tspan><tspan
             id="tspan98"
             y="-131.4353"
             x="37.518112 50.143089 54.345104 58.547119 69.071091 79.595055 95.362083 105.88605 116.41002">Alignment</tspan><tspan
             id="tspan100"
             y="-107.7751"
             x="37.518112 48.04208 58.566048 69.090019 79.613983 83.816002 94.339966">padding</tspan></text>
<text
           id="text120"
           style="font-variant:normal;font-weight:normal;font-size:18px;font-family:Helvetica;-inkscape-font-specification:DejaVuSans;writing-mode:lr-tb;fill:#000000;fill-opacity:1;fill-rule:nonzero;stroke:none"
           transform="matrix(1,0,0,-1,206.2808,687.8971)"><tspan
             id="tspan104"
             y="0"
             x="0 7.938036 18.684208 29.340206">Text</tspan><tspan
             id="tspan106"
             y="27.5"
             x="0 11.43 22.5 33.93 51.462002 62.532001 73.944">Segment</tspan><tspan
             id="tspan108"
             y="459.64301"
             x="8.0355501 21.89555 32.92955 39.98555">Data</tspan><tspan
             id="tspan110"
             y="487.14301"
             x="8.0355501 19.465549 30.535549 41.965549 59.497551 70.567551 81.979553">Segment</tspan><tspan
             id="tspan112"
             y="222.85699"
             x="182.67854 194.10855 205.53854 216.57256 227.98454 233.70856 244.72455">Span of</tspan><tspan
             id="tspan114"
             y="250.35699"
             x="182.67854 189.73454 200.48053 211.13652 218.19252 223.91652 234.95053 246.36253">text and</tspan><tspan
             id="tspan116"
             y="277.85699"
             x="182.67854 194.10855 205.14255 212.19855">data</tspan><tspan
             id="tspan118"
             y="305.35699"
             x="182.67854 192.05655 203.12656 214.55655 232.08855 243.15855 254.57056 261.62656">segments</tspan></text>
</g><path
         id="path122"
         style="fill:none;stroke:#000000;stroke-width:11.33860016;stroke-linecap:butt;stroke-linejoin:miter;stroke-miterlimit:4;stroke-dasharray:none;stroke-opacity:1"
         d="M 1939.61,8030.74 V 5411.13" /><path
         id="path124"
         style="fill:#000000;fill-opacity:1;fill-rule:evenodd;stroke:none"
         d="m 1889.3,7909.53 50.11,136.29 50.08,-136.29 c -29.57,21.8 -70.04,21.64 -100.19,0 z" /><path
         id="path126"
         style="fill:none;stroke:#000000;stroke-width:7.79527998;stroke-linecap:butt;stroke-linejoin:round;stroke-miterlimit:4;stroke-dasharray:none;stroke-opacity:1"
         d="m 1889.3,7909.53 50.11,136.29 50.08,-136.29 c -29.57,21.8 -70.04,21.64 -100.19,0 z" /><path
         id="path128"
         style="fill:#000000;fill-opacity:1;fill-rule:evenodd;stroke:none"
         d="m 1939.61,5524.49 -45.35,45.35 45.35,-158.71 45.35,158.71 z" /><path
         id="path130"
         style="fill:none;stroke:#000000;stroke-width:12.09449959;stroke-linecap:butt;stroke-linejoin:miter;stroke-miterlimit:4;stroke-dasharray:none;stroke-opacity:1"
         d="m 1939.61,5524.49 -45.35,45.35 45.35,-158.71 45.35,158.71 z" /><path
         id="path132"
         style="fill:none;stroke:#000000;stroke-width:11.33860016;stroke-linecap:butt;stroke-linejoin:miter;stroke-miterlimit:4;stroke-dasharray:none;stroke-opacity:1"
         d="M 359.262,5218.24 V 4511.13" /><path
         id="path134"
         style="fill:#000000;fill-opacity:1;fill-rule:evenodd;stroke:none"
         d="m 308.949,5097.03 50.071,136.29 50.121,-136.29 c -29.571,21.8 -70.039,21.64 -100.192,0 z" /><path
         id="path136"
         style="fill:none;stroke:#000000;stroke-width:7.79527998;stroke-linecap:butt;stroke-linejoin:round;stroke-miterlimit:4;stroke-dasharray:none;stroke-opacity:1"
         d="m 308.949,5097.03 50.071,136.29 50.121,-136.29 c -29.571,21.8 -70.039,21.64 -100.192,0 z" /><path
         id="path138"
         style="fill:#000000;fill-opacity:1;fill-rule:evenodd;stroke:none"
         d="m 359.262,4624.49 -45.391,45.35 45.391,-158.71 45.347,158.71 z" /><path
         id="path140"
         style="fill:none;stroke:#000000;stroke-width:12.09449959;stroke-linecap:butt;stroke-linejoin:miter;stroke-miterlimit:4;stroke-dasharray:none;stroke-opacity:1"
         d="m 359.262,4624.49 -45.391,45.35 45.391,-158.71 45.347,158.71 z" /><path
         id="path142"
         style="fill:none;stroke:#000000;stroke-width:11.33860016;stroke-linecap:butt;stroke-linejoin:miter;stroke-miterlimit:4;stroke-dasharray:none;stroke-opacity:1"
         d="M 1982.46,4328.98 V 70.0391" /><path
         id="path144"
         style="fill:#000000;fill-opacity:1;fill-rule:evenodd;stroke:none"
         d="m 1932.15,4207.77 50.12,136.25 50.11,-136.25 c -29.61,21.76 -70.08,21.64 -100.23,0 z" /><path
         id="path146"
         style="fill:none;stroke:#000000;stroke-width:7.79527998;stroke-linecap:butt;stroke-linejoin:round;stroke-miterlimit:4;stroke-dasharray:none;stroke-opacity:1"
         d="m 1932.15,4207.77 50.12,136.25 50.11,-136.25 c -29.61,21.76 -70.08,21.64 -100.23,0 z" /><path
         id="path148"
         style="fill:#000000;fill-opacity:1;fill-rule:evenodd;stroke:none"
         d="m 1982.46,183.441 -45.35,45.348 45.35,-158.7499 45.35,158.7499 z" /><path
         id="path150"
         style="fill:none;stroke:#000000;stroke-width:12.09449959;stroke-linecap:butt;stroke-linejoin:miter;stroke-miterlimit:4;stroke-dasharray:none;stroke-opacity:1"
         d="m 1982.46,183.441 -45.35,45.348 45.35,-158.7499 45.35,158.7499 z" /><path
         id="path152"
         style="fill:none;stroke:#000000;stroke-width:11.37279987;stroke-linecap:butt;stroke-linejoin:miter;stroke-miterlimit:4;stroke-dasharray:none;stroke-opacity:1"
         d="M 3707.46,8025.27 V 32.6992" /><path
         id="path154"
         style="fill:#000000;fill-opacity:1;fill-rule:evenodd;stroke:none"
         d="m 3656.99,7903.71 50.28,136.68 50.23,-136.68 c -29.65,21.84 -70.27,21.72 -100.51,0 z" /><path
         id="path156"
         style="fill:none;stroke:#000000;stroke-width:7.81876993;stroke-linecap:butt;stroke-linejoin:round;stroke-miterlimit:4;stroke-dasharray:none;stroke-opacity:1"
         d="m 3656.99,7903.71 50.28,136.68 50.23,-136.68 c -29.65,21.84 -70.27,21.72 -100.51,0 z" /><path
         id="path158"
         style="fill:#000000;fill-opacity:1;fill-rule:evenodd;stroke:none"
         d="m 3707.46,146.41 -45.51,45.5 45.51,-159.2108 45.47,159.2108 z" /><path
         id="path160"
         style="fill:none;stroke:#000000;stroke-width:12.13090038;stroke-linecap:butt;stroke-linejoin:miter;stroke-miterlimit:4;stroke-dasharray:none;stroke-opacity:1"
         d="m 3707.46,146.41 -45.51,45.5 45.51,-159.2108 45.47,159.2108 z" /><path
         id="path162"
         style="fill:none;stroke:#000000;stroke-width:9.62353039;stroke-linecap:butt;stroke-linejoin:miter;stroke-miterlimit:4;stroke-dasharray:none;stroke-opacity:1"
         d="m 15.3086,556.059 h 1586.84 V 1101.68 H 15.3086 Z" /><g
         transform="scale(10)"
         id="g164"><text
           id="text168"
           style="font-variant:normal;font-weight:normal;font-size:18.9279995px;font-family:Helvetica;-inkscape-font-specification:ArialMT;writing-mode:lr-tb;fill:#000000;fill-opacity:1;fill-rule:nonzero;stroke:none"
           transform="matrix(1,0,0,-1,28.107,75.1563)"><tspan
             id="tspan166"
             y="0"
             x="0 5.2619839 15.785952 26.309919 31.571903">.data</tspan></text>
</g><path
         id="path170"
         style="fill:none;stroke:#000000;stroke-width:9.62353039;stroke-linecap:butt;stroke-linejoin:miter;stroke-miterlimit:4;stroke-dasharray:none;stroke-opacity:1"
         d="m 15.3086,10.4297 h 1586.84 v 545.621 H 15.3086 Z" /><g
         transform="scale(10)"
         id="g172"><text
           id="text176"
           style="font-variant:normal;font-weight:normal;font-size:18.9279995px;font-family:Helvetica;-inkscape-font-specification:ArialMT;writing-mode:lr-tb;fill:#000000;fill-opacity:1;fill-rule:nonzero;stroke:none"
           transform="matrix(1,0,0,-1,26.607,20.5945)"><tspan
             id="tspan174"
             y="0"
             x="0 5.2619839 15.785952 25.249952">.bss</tspan></text>
</g><path
         id="path178"
         style="fill:none;stroke:#000000;stroke-width:9.62353039;stroke-linecap:butt;stroke-linejoin:miter;stroke-miterlimit:4;stroke-dasharray:none;stroke-opacity:1"
         d="m 15.3086,10.4297 h 1586.84 v 545.621 H 15.3086 Z" /></g></g></svg>