<?xml version="1.0" encoding="UTF-8" standalone="no"?>
<svg
   xmlns:dc="http://purl.org/dc/elements/1.1/"
   xmlns:cc="http://creativecommons.org/ns#"
   xmlns:rdf="http://www.w3.org/1999/02/22-rdf-syntax-ns#"
   xmlns:svg="http://www.w3.org/2000/svg"
   xmlns="http://www.w3.org/2000/svg"
   viewBox="0 0 774.66669 109.33333"
   height="109.33333"
   width="774.66669"
   xml:space="preserve"
   id="svg2"
   version="1.1"><metadata
     id="metadata8"><rdf:RDF><cc:Work
         rdf:about=""><dc:format>image/svg+xml</dc:format><dc:type
           rdf:resource="http://purl.org/dc/dcmitype/StillImage" /></cc:Work></rdf:RDF></metadata><defs
     id="defs6" /><g
     transform="matrix(1.3333333,0,0,-1.3333333,0,109.33333)"
     id="g10"><g
       transform="scale(0.1)"
       id="g12"><path
         id="path14"
         style="fill:none;stroke:#000000;stroke-width:7.51180983;stroke-linecap:butt;stroke-linejoin:miter;stroke-miterlimit:4;stroke-dasharray:none;stroke-opacity:1"
         d="M 3.75,317.539 H 361.871 V 637.07 H 3.75 Z" /><path
         id="path16"
         style="fill:none;stroke:#000000;stroke-width:7.52800989;stroke-linecap:butt;stroke-linejoin:miter;stroke-miterlimit:4;stroke-dasharray:none;stroke-opacity:1"
         d="M 362.578,317.539 H 868.012 V 637.07 H 362.578 Z" /><path
         id="path18"
         style="fill:none;stroke:#000000;stroke-width:7.5405302;stroke-linecap:butt;stroke-linejoin:miter;stroke-miterlimit:4;stroke-dasharray:none;stroke-opacity:1"
         d="m 868.59,317.539 h 636.559 V 637.07 H 868.59 Z" /><path
         id="path20"
         style="fill:none;stroke:#000000;stroke-width:7.72726011;stroke-linecap:butt;stroke-linejoin:miter;stroke-miterlimit:4;stroke-dasharray:none;stroke-opacity:1"
         d="m 1505.16,317.648 h 4299.53 v 319.34 H 1505.16 Z" /><path
         id="path22"
         style="fill:none;stroke:#000000;stroke-width:7.5;stroke-linecap:butt;stroke-linejoin:miter;stroke-miterlimit:4;stroke-dasharray:none;stroke-opacity:1"
         d="M 3.75,317.539 V 0.351563" /><path
         id="path24"
         style="fill:none;stroke:#000000;stroke-width:7.5;stroke-linecap:butt;stroke-linejoin:miter;stroke-miterlimit:4;stroke-dasharray:none;stroke-opacity:1"
         d="M 5804.69,317.66 V 0.429688" /><g
         transform="scale(10)"
         id="g26"><text
           id="text30"
           style="font-variant:normal;font-size:12px;font-family:Helvetica;-inkscape-font-specification:f-0-0;writing-mode:lr-tb;fill:#000000;fill-opacity:1;fill-rule:nonzero;stroke:none"
           transform="matrix(1,0,0,-1,12.3125,73.4922)"><tspan
             id="tspan28"
             y="0"
             x="0 6.6719999 33.887878 40.559879 47.23188 51.227879 57.935932 91.583931 98.255936 104.92793 108.92393 115.63198 148.37997 155.05199">3130-2827-2423</tspan></text>
<text
           id="text36"
           style="font-variant:normal;font-size:14px;font-family:Helvetica;-inkscape-font-specification:f-0-0;writing-mode:lr-tb;fill:#000000;fill-opacity:1;fill-rule:nonzero;stroke:none"
           transform="matrix(1,0,0,-1,14.04453,42.1965)"><tspan
             id="tspan32"
             y="0"
             x="0 43.707859 86.870003 89.977997 97.762001 105.546 113.33 145.80986 155.91786 163.70186 167.59386 175.37785 179.26987 183.16187 190.94586 195.60786 199.49986 207.28386 215.10986 219.77187 226.77187 234.55586 242.33986 250.12386 253.27393 256.38193 260.27393 267.27393 277.38193 285.16592 292.94992 296.84192 299.94992 307.77588 315.55988 319.45187 322.55988 330.34387 338.12787 345.91187 352.91187">10indexData for personalityRoutine[index]</tspan><tspan
             id="tspan34"
             y="32.537899"
             x="136.68201 148.34399 156.12801 160.832 168.616 172.508 180.29201 188.076 191.968 199.752 203.644 207.536 215.32001 219.98199 223.87399 227.76601 235.55 243.334 247.226 255.00999 262.79401 267.49802 274.49802 282.28201 290.06601 297.85001 300.95801 304.10818 308.00018 315.00018 318.89218 323.55417 331.33817 339.12219 343.01419 346.12219 353.90619 361.69019 365.58218 369.47418 373.36618">More data for the personality routine ...</tspan></text>
<text
           id="text40"
           style="font-variant:normal;font-size:12px;font-family:Helvetica;-inkscape-font-specification:f-0-0;writing-mode:lr-tb;fill:#000000;fill-opacity:1;fill-rule:nonzero;stroke:none"
           transform="matrix(1,0,0,-1,569.67553,73.4922)"><tspan
             id="tspan38"
             y="0"
             x="0">0</tspan></text>
</g></g></g></svg>