<?xml version="1.0" encoding="UTF-8" standalone="no"?>
<svg
   xmlns:dc="http://purl.org/dc/elements/1.1/"
   xmlns:cc="http://creativecommons.org/ns#"
   xmlns:rdf="http://www.w3.org/1999/02/22-rdf-syntax-ns#"
   xmlns:svg="http://www.w3.org/2000/svg"
   xmlns="http://www.w3.org/2000/svg"
   viewBox="0 0 645.33331 182.66667"
   height="182.66667"
   width="645.33331"
   xml:space="preserve"
   id="svg2"
   version="1.1"><metadata
     id="metadata8"><rdf:RDF><cc:Work
         rdf:about=""><dc:format>image/svg+xml</dc:format><dc:type
           rdf:resource="http://purl.org/dc/dcmitype/StillImage" /></cc:Work></rdf:RDF></metadata><defs
     id="defs6" /><g
     transform="matrix(1.3333333,0,0,-1.3333333,0,182.66667)"
     id="g10"><g
       transform="scale(0.1)"
       id="g12"><path
         id="path14"
         style="fill:#c0c0c0;fill-opacity:1;fill-rule:nonzero;stroke:none"
         d="M 6.64063,6.21094 H 4829.9606 v 636.949 H 6.64063 Z" /><path
         id="path16"
         style="fill:#f2f2f2;fill-opacity:1;fill-rule:nonzero;stroke:none"
         d="M 3.75,934.141 H 2384.26 V 1366.25 H 3.75 Z" /><path
         id="path18"
         style="fill:none;stroke:#000000;stroke-width:7.51180983;stroke-linecap:butt;stroke-linejoin:miter;stroke-miterlimit:4;stroke-dasharray:none;stroke-opacity:1"
         d="M 3.75,934.141 H 2384.26 V 1366.25 H 3.75 Z" /><path
         id="path20"
         style="fill:#c0c0c0;fill-opacity:1;fill-rule:nonzero;stroke:none"
         d="M 2384.26,934.141 H 4764.73 V 1366.25 H 2384.26 Z" /><path
         id="path22"
         style="fill:none;stroke:#000000;stroke-width:7.51180983;stroke-linecap:butt;stroke-linejoin:miter;stroke-miterlimit:4;stroke-dasharray:none;stroke-opacity:1"
         d="M 2384.26,934.141 H 4764.73 V 1366.25 H 2384.26 Z" /><path
         id="path24"
         style="fill:#f2f2f2;fill-opacity:1;fill-rule:nonzero;stroke:none"
         d="m 942.301,217.031 h 3889.02 V 644.488 H 942.301 Z" /><path
         id="path26"
         style="fill:none;stroke:#000000;stroke-width:7.51180983;stroke-linecap:butt;stroke-linejoin:miter;stroke-miterlimit:4;stroke-dasharray:none;stroke-opacity:1"
         d="m 942.301,217.031 h 3889.02 V 644.488 H 942.301 Z" /><path
         id="path28"
         style="fill:#c0c0c0;fill-opacity:1;fill-rule:nonzero;stroke:none"
         d="m 296.48,1076.6 h 1570.47 v 224.609 H 296.48 Z" /><path
         id="path30"
         style="fill:#e0e0e0;fill-opacity:1;fill-rule:nonzero;stroke:none"
         d="m 67.2695,153.551 h 802.27 V 577.93 h -802.27 z" /><path
         id="path32"
         style="fill:#e0e0e0;fill-opacity:1;fill-rule:nonzero;stroke:none"
         d="m 1379.06,11.0508 h 2873.01 v 195.16 H 1379.06 Z" /><path
         id="path34"
         style="fill:#c0c0c0;fill-opacity:1;fill-rule:nonzero;stroke:none"
         d="m 1442.58,285.199 h 2369.65 v 224.57 H 1442.58 Z" /><g
         transform="scale(10)"
         id="g36"><text
           id="text50"
           style="font-variant:normal;font-size:9px;font-family:Helvetica;-inkscape-font-specification:f-0-0;writing-mode:lr-tb;fill:#000000;fill-opacity:1;fill-rule:nonzero;stroke:none"
           transform="matrix(1,0,0,-1,39.4352,118.194)"><tspan
             id="tspan38"
             y="0"
             x="0 7.0019999 12.006 14.004 19.007999 23.507999 26.01 28.511999 33.012001 38.015999 43.02 48.023998 50.526001 55.529999 60.560936 62.558933 64.556938 67.058937 69.560936 74.564934 79.064934 81.566933 87.569931 92.573936 97.577934 102.58193 107.61288 110.60989 113.11189 118.11589 120.61789 123.11989 128.12389 133.12788 135.12589 252.14299 259.14499 264.14899 266.147 271.151 275.651 278.15298 280.655 285.155 290.159 295.16299 300.16699 302.66898 307.67297 312.70392 314.7019 316.69992 319.2019 321.70392 326.70792 331.20792 333.70993 339.71292 344.71692 349.72092 354.72491 359.75586 362.75287 365.25488 370.25888 372.76086 375.26288 380.26688 385.27087 387.26886">Object code built by Vendor 1 toolsObject code built by Vendor 2 tools</tspan><tspan
             id="tspan40"
             y="78.9879"
             x="114.673 119.677 124.681 129.685 134.71597 139.71997 144.72397 149.72797 154.73196 157.23396 160.23097 165.26207 170.26607 173.26306 175.76506 177.76306 185.28706 190.29106 192.79306 194.79106 196.78906 201.79306 204.81714 209.82114 212.81815 214.81615 219.84721 224.34721 226.84921 229.35121 232.34822 237.35222 244.84921 247.35121 253.35422 258.35822 263.36221 268.39331 273.39731 276.39432 278.8963 283.90033 286.40231 291.40631 294.43042 296.9324 302.93542 307.93942 312.94342 317.94742 322.97845 325.97546 328.47748">Language run-time libraries from Vendor 1 or Vendor 2</tspan><tspan
             id="tspan42"
             y="108.1055"
             x="108.56206 111.06406 113.56606 116.06806 118.54292 123.54692 126.54392 131.57495 136.07495 138.07295 143.07695 148.08095 153.08495 155.58694 160.59096 165.09096 167.59296 170.09496 175.09895 180.10295 182.60495 187.60895 192.10895 197.1398 201.6398 206.6438 209.14581 211.1438 216.14781 221.15181 223.65381 228.65781 233.6618 238.1618 240.18669 243.18369 248.18768 253.19168 260.71558 265.7196 270.7236 273.22559 275.7276 278.22958 284.2326 289.2366 294.2406 299.2446 304.27573 307.27274 309.77475 314.77875 317.28073 319.78275 324.78674 327.78375 330.28574 336.28873 341.29272 346.32379 351.32779 356.33179 359.3288 361.83078">... provided by the execution environment, Vendor 1, or Vendor 2</tspan><tspan
             id="tspan44"
             y="72.792999"
             x="-22.023939 -16.020941 -10.01794 -3.9880021 -1.4860021 1.5109979 6.514998 11.518998 14.020998 16.018997 21.022999 26.054182">EABI-defined</tspan><tspan
             id="tspan46"
             y="82.843002"
             x="-22.023939 -17.019939 -12.01594 -10.01794 -4.9868312 0.017168719">helper</tspan><tspan
             id="tspan48"
             y="92.892998"
             x="-22.023939 -19.52194 -14.51794 -9.5139399 -5.0139399 -2.51194 -0.51393998 4.4900599 9.4940596 13.99406 16.496059 18.99806">functions...</tspan></text>
</g><path
         id="path52"
         style="fill:none;stroke:#000000;stroke-width:7.51180983;stroke-linecap:butt;stroke-linejoin:miter;stroke-miterlimit:4;stroke-dasharray:22.5354, 22.5354;stroke-dashoffset:0;stroke-opacity:1"
         d="M 440.512,923.281 V 666.211" /><path
         id="path54"
         style="fill:#000000;fill-opacity:1;fill-rule:evenodd;stroke:none"
         d="m 440.512,696.25 -15,15 15,-52.578 15.039,52.578 z" /><path
         id="path56"
         style="fill:none;stroke:#000000;stroke-width:4.00629997;stroke-linecap:butt;stroke-linejoin:miter;stroke-miterlimit:4;stroke-dasharray:none;stroke-opacity:1"
         d="m 440.512,696.25 -15,15 15,-52.578 15.039,52.578 z" /><path
         id="path58"
         style="fill:none;stroke:#000000;stroke-width:7.51180983;stroke-linecap:butt;stroke-linejoin:miter;stroke-miterlimit:4;stroke-dasharray:none;stroke-opacity:1"
         d="M 1732.19,923.281 V 666.211" /><path
         id="path60"
         style="fill:#000000;fill-opacity:1;fill-rule:evenodd;stroke:none"
         d="m 1732.19,696.25 -15,15 15,-52.578 15.04,52.578 z" /><path
         id="path62"
         style="fill:none;stroke:#000000;stroke-width:4.00629997;stroke-linecap:butt;stroke-linejoin:miter;stroke-miterlimit:4;stroke-dasharray:none;stroke-opacity:1"
         d="m 1732.19,696.25 -15,15 15,-52.578 15.04,52.578 z" /><path
         id="path64"
         style="fill:none;stroke:#000000;stroke-width:7.51180983;stroke-linecap:butt;stroke-linejoin:miter;stroke-miterlimit:4;stroke-dasharray:none;stroke-opacity:1"
         d="M 3033.2,923.281 V 666.211" /><path
         id="path66"
         style="fill:#000000;fill-opacity:1;fill-rule:evenodd;stroke:none"
         d="m 3033.2,696.25 -15.04,15 15.04,-52.578 15,52.578 z" /><path
         id="path68"
         style="fill:none;stroke:#000000;stroke-width:4.00629997;stroke-linecap:butt;stroke-linejoin:miter;stroke-miterlimit:4;stroke-dasharray:none;stroke-opacity:1"
         d="m 3033.2,696.25 -15.04,15 15.04,-52.578 15,52.578 z" /><path
         id="path70"
         style="fill:none;stroke:#000000;stroke-width:7.51180983;stroke-linecap:butt;stroke-linejoin:miter;stroke-miterlimit:4;stroke-dasharray:22.5354, 22.5354;stroke-dashoffset:0;stroke-opacity:1"
         d="M 4473.55,923.281 V 88.4805" /><path
         id="path72"
         style="fill:#000000;fill-opacity:1;fill-rule:evenodd;stroke:none"
         d="m 4473.55,118.551 -15.03,15 15.03,-52.5705 15.04,52.5705 z" /><path
         id="path74"
         style="fill:none;stroke:#000000;stroke-width:4.00629997;stroke-linecap:butt;stroke-linejoin:miter;stroke-miterlimit:4;stroke-dasharray:none;stroke-opacity:1"
         d="m 4473.55,118.551 -15.03,15 15.03,-52.5705 15.04,52.5705 z" /><path
         id="path76"
         style="fill:none;stroke:#000000;stroke-width:7.51180983;stroke-linecap:butt;stroke-linejoin:miter;stroke-miterlimit:4;stroke-dasharray:22.5354, 22.5354;stroke-dashoffset:0;stroke-opacity:1"
         d="M 1160.7,429.219 V 91.6016" /><path
         id="path78"
         style="fill:#000000;fill-opacity:1;fill-rule:evenodd;stroke:none"
         d="m 1160.7,121.641 -15.04,15.039 15.04,-52.6214 15.04,52.6214 z" /><path
         id="path80"
         style="fill:none;stroke:#000000;stroke-width:4.00629997;stroke-linecap:butt;stroke-linejoin:miter;stroke-miterlimit:4;stroke-dasharray:none;stroke-opacity:1"
         d="m 1160.7,121.641 -15.04,15.039 15.04,-52.6214 15.04,52.6214 z" /><path
         id="path82"
         style="fill:none;stroke:#000000;stroke-width:7.51180983;stroke-linecap:butt;stroke-linejoin:miter;stroke-miterlimit:4;stroke-dasharray:none;stroke-opacity:1"
         d="m 1981.91,1010.04 h 875.04" /><path
         id="path84"
         style="fill:#000000;fill-opacity:1;fill-rule:evenodd;stroke:none"
         d="m 2011.95,1010.04 15,15 -52.57,-15 52.57,-15.04 z" /><path
         id="path86"
         style="fill:none;stroke:#000000;stroke-width:4.00629997;stroke-linecap:butt;stroke-linejoin:miter;stroke-miterlimit:4;stroke-dasharray:none;stroke-opacity:1"
         d="m 2011.95,1010.04 15,15 -52.57,-15 52.57,-15.04 z" /><path
         id="path88"
         style="fill:#000000;fill-opacity:1;fill-rule:evenodd;stroke:none"
         d="m 2826.91,1010.04 -15,-15.04 52.58,15.04 -52.58,15 z" /><path
         id="path90"
         style="fill:none;stroke:#000000;stroke-width:4.00629997;stroke-linecap:butt;stroke-linejoin:miter;stroke-miterlimit:4;stroke-dasharray:none;stroke-opacity:1"
         d="m 2826.91,1010.04 -15,-15.04 52.58,15.04 -52.58,15 z" /></g></g></svg>