<?xml version="1.0" encoding="UTF-8" standalone="no"?>
<svg
   xmlns:dc="http://purl.org/dc/elements/1.1/"
   xmlns:cc="http://creativecommons.org/ns#"
   xmlns:rdf="http://www.w3.org/1999/02/22-rdf-syntax-ns#"
   xmlns:svg="http://www.w3.org/2000/svg"
   xmlns="http://www.w3.org/2000/svg"
   viewBox="0 0 1013.3333 908"
   height="908"
   width="1013.3333"
   xml:space="preserve"
   id="svg2"
   version="1.1"><metadata
     id="metadata8"><rdf:RDF><cc:Work
         rdf:about=""><dc:format>image/svg+xml</dc:format><dc:type
           rdf:resource="http://purl.org/dc/dcmitype/StillImage" /></cc:Work></rdf:RDF></metadata><defs
     id="defs6" /><g
     transform="matrix(1.3333333,0,0,-1.3333333,0,908)"
     id="g10"><g
       transform="scale(0.1)"
       id="g12"><path
         id="path14"
         style="fill:#c3c3c3;fill-opacity:1;fill-rule:nonzero;stroke:none"
         d="M 697.77,5265.27 H 2876.4 v 210.781 H 697.77 Z" /><path
         id="path16"
         style="fill:none;stroke:#000000;stroke-width:30;stroke-linecap:butt;stroke-linejoin:miter;stroke-miterlimit:4;stroke-dasharray:none;stroke-opacity:1"
         d="M 697.77,5265.27 H 2876.4 v 210.781 H 697.77 Z" /><g
         transform="scale(10)"
         id="g18"><text
           id="text22"
           style="font-variant:normal;font-size:10px;font-family:Helvetica;-inkscape-font-specification:f-0-0;writing-mode:lr-tb;fill:#000000;fill-opacity:1;fill-rule:nonzero;stroke:none"
           transform="matrix(1,0,0,-1,137.948,533.131)"><tspan
             id="tspan20"
             y="0"
             x="0 7.2199998 12.22 17.780001 23.34 31.700001 33.919998 38.919998 41.700001 48.369999 50.59 52.810001 58.400002 63.400002 68.959999 71.739998 73.959999 79.519997">Dynamic Allocation</tspan></text>
</g><path
         id="path24"
         style="fill:#c3c3c3;fill-opacity:1;fill-rule:nonzero;stroke:none"
         d="m 699.379,5470.86 h 2175.39 v 651.172 H 699.379 Z" /><path
         id="path26"
         style="fill:none;stroke:#000000;stroke-width:30;stroke-linecap:butt;stroke-linejoin:miter;stroke-miterlimit:4;stroke-dasharray:none;stroke-opacity:1"
         d="m 699.379,5470.86 h 2175.39 v 651.172 H 699.379 Z" /><path
         id="path28"
         style="fill:#c3c3c3;fill-opacity:1;fill-rule:nonzero;stroke:none"
         d="m 698.75,4808.32 h 2176.64 v 452.07 H 698.75 Z" /><path
         id="path30"
         style="fill:none;stroke:#000000;stroke-width:30;stroke-linecap:butt;stroke-linejoin:miter;stroke-miterlimit:4;stroke-dasharray:none;stroke-opacity:1"
         d="m 698.75,4808.32 h 2176.64 v 452.07 H 698.75 Z" /><path
         id="path32"
         style="fill:none;stroke:#000000;stroke-width:30;stroke-linecap:butt;stroke-linejoin:miter;stroke-miterlimit:4;stroke-dasharray:none;stroke-opacity:1"
         d="M 695.82,6644.41 V 6469.1 h 85.039 L 610.781,6255 H 695.82 V 4619.3 h 85.039 L 610.781,4366.8 h 81.449 l 4.02,-95.16" /><path
         id="path34"
         style="fill:none;stroke:#000000;stroke-width:30;stroke-linecap:butt;stroke-linejoin:miter;stroke-miterlimit:4;stroke-dasharray:none;stroke-opacity:1"
         d="M 2878.36,6644.41 V 6469.1 h 85.04 L 2793.32,6255 h 85.04 V 4619.3 h 85.04 l -170.08,-252.5 h 85.04 v -95.16" /><path
         id="path36"
         style="fill:none;stroke:#000000;stroke-width:30;stroke-linecap:butt;stroke-linejoin:miter;stroke-miterlimit:4;stroke-dasharray:none;stroke-opacity:1"
         d="m 4681.64,5470.86 h 2175.39 v 651.172 H 4681.64 Z" /><path
         id="path38"
         style="fill:none;stroke:#000000;stroke-width:30;stroke-linecap:butt;stroke-linejoin:miter;stroke-miterlimit:4;stroke-dasharray:none;stroke-opacity:1"
         d="m 4680.04,5265.27 h 2178.59 v 210.781 H 4680.04 Z" /><path
         id="path40"
         style="fill:#e0e0e0;fill-opacity:1;fill-rule:nonzero;stroke:none"
         d="m 4681.02,4808.32 h 2176.64 v 452.07 H 4681.02 Z" /><path
         id="path42"
         style="fill:none;stroke:#000000;stroke-width:30;stroke-linecap:butt;stroke-linejoin:miter;stroke-miterlimit:4;stroke-dasharray:none;stroke-opacity:1"
         d="m 4681.02,4808.32 h 2176.64 v 452.07 H 4681.02 Z" /><path
         id="path44"
         style="fill:#c3c3c3;fill-opacity:1;fill-rule:nonzero;stroke:none"
         d="m 4681.64,4147.03 h 2175.39 v 651.168 H 4681.64 Z" /><path
         id="path46"
         style="fill:none;stroke:#000000;stroke-width:30;stroke-linecap:butt;stroke-linejoin:miter;stroke-miterlimit:4;stroke-dasharray:none;stroke-opacity:1"
         d="m 4681.64,4147.03 h 2175.39 v 651.168 H 4681.64 Z" /><path
         id="path48"
         style="fill:#c3c3c3;fill-opacity:1;fill-rule:nonzero;stroke:none"
         d="m 4681.64,3495.82 h 2175.39 v 651.211 H 4681.64 Z" /><path
         id="path50"
         style="fill:none;stroke:#000000;stroke-width:30;stroke-linecap:butt;stroke-linejoin:miter;stroke-miterlimit:4;stroke-dasharray:none;stroke-opacity:1"
         d="m 4681.64,3495.82 h 2175.39 v 651.211 H 4681.64 Z" /><path
         id="path52"
         style="fill:#c3c3c3;fill-opacity:1;fill-rule:nonzero;stroke:none"
         d="m 4681.64,2844.65 h 2175.39 v 651.172 H 4681.64 Z" /><path
         id="path54"
         style="fill:none;stroke:#000000;stroke-width:30;stroke-linecap:butt;stroke-linejoin:miter;stroke-miterlimit:4;stroke-dasharray:none;stroke-opacity:1"
         d="m 4681.64,2844.65 h 2175.39 v 651.172 H 4681.64 Z" /><path
         id="path56"
         style="fill:#c3c3c3;fill-opacity:1;fill-rule:nonzero;stroke:none"
         d="m 4681.64,2193.44 h 2175.39 v 651.207 H 4681.64 Z" /><path
         id="path58"
         style="fill:none;stroke:#000000;stroke-width:30;stroke-linecap:butt;stroke-linejoin:miter;stroke-miterlimit:4;stroke-dasharray:none;stroke-opacity:1"
         d="m 4681.64,2193.44 h 2175.39 v 651.207 H 4681.64 Z" /><path
         id="path60"
         style="fill:none;stroke:#000000;stroke-width:30;stroke-linecap:butt;stroke-linejoin:miter;stroke-miterlimit:4;stroke-dasharray:none;stroke-opacity:1"
         d="m 4681.64,5470.86 h 2175.39 v 651.172 H 4681.64 Z" /><path
         id="path62"
         style="fill:none;stroke:#000000;stroke-width:30;stroke-linecap:butt;stroke-linejoin:miter;stroke-miterlimit:4;stroke-dasharray:none;stroke-opacity:1"
         d="m 4681.64,1542.27 h 2175.39 v 651.172 H 4681.64 Z" /><path
         id="path64"
         style="fill:#c3c3c3;fill-opacity:1;fill-rule:nonzero;stroke:none"
         d="m 4680.04,1336.72 h 2178.59 v 210.742 H 4680.04 Z" /><path
         id="path66"
         style="fill:none;stroke:#000000;stroke-width:30;stroke-linecap:butt;stroke-linejoin:miter;stroke-miterlimit:4;stroke-dasharray:none;stroke-opacity:1"
         d="m 4680.04,1336.72 h 2178.59 v 210.742 H 4680.04 Z" /><path
         id="path68"
         style="fill:#c3c3c3;fill-opacity:1;fill-rule:nonzero;stroke:none"
         d="M 4681.02,879.73 H 6857.66 V 1331.8 H 4681.02 Z" /><path
         id="path70"
         style="fill:none;stroke:#000000;stroke-width:30;stroke-linecap:butt;stroke-linejoin:miter;stroke-miterlimit:4;stroke-dasharray:none;stroke-opacity:1"
         d="M 4681.02,879.73 H 6857.66 V 1331.8 H 4681.02 Z" /><path
         id="path72"
         style="fill:#c3c3c3;fill-opacity:1;fill-rule:nonzero;stroke:none"
         d="m 4681.64,1542.27 h 2175.39 v 651.172 H 4681.64 Z" /><path
         id="path74"
         style="fill:none;stroke:#000000;stroke-width:30;stroke-linecap:butt;stroke-linejoin:miter;stroke-miterlimit:4;stroke-dasharray:none;stroke-opacity:1"
         d="m 4681.64,1542.27 h 2175.39 v 651.172 H 4681.64 Z" /><path
         id="path76"
         style="fill:none;stroke:#000000;stroke-width:30;stroke-linecap:butt;stroke-linejoin:miter;stroke-miterlimit:4;stroke-dasharray:none;stroke-opacity:1"
         d="m 4678.05,6640.86 v -175.35 h 85.04 l -170.08,-214.1 h 85.04 V 665.66 h 85.04 l -170.08,-252.5 h 81.48 l 4.03,-95.109" /><path
         id="path78"
         style="fill:none;stroke:#000000;stroke-width:30;stroke-linecap:butt;stroke-linejoin:miter;stroke-miterlimit:4;stroke-dasharray:none;stroke-opacity:1"
         d="M 695.82,6644.41 V 6469.1 h 85.039 L 610.781,6255 H 695.82 V 4619.3 h 85.039 L 610.781,4366.8 h 81.449 l 4.02,-95.16" /><path
         id="path80"
         style="fill:none;stroke:#000000;stroke-width:30;stroke-linecap:butt;stroke-linejoin:miter;stroke-miterlimit:4;stroke-dasharray:none;stroke-opacity:1"
         d="m 6860.62,6640.86 -0.03,-175.35 h 85.03 l -170.07,-214.1 h 85.07 V 665.66 h 85 l -170.07,-252.5 h 81.48 l 4.02,-95.109" /><g
         transform="scale(10)"
         id="g82"><text
           id="text118"
           style="font-variant:normal;font-size:18px;font-family:Helvetica;-inkscape-font-specification:f-0-0;writing-mode:lr-tb;fill:#000000;fill-opacity:1;fill-rule:nonzero;stroke:none"
           transform="matrix(1,0,0,-1,-1.61992,538.14)"><tspan
             id="tspan84"
             y="0"
             x="0 10.998 23.004">FP'</tspan><tspan
             id="tspan86"
             y="64.402702"
             x="1.78906 13.79506 25.80106">SP'</tspan><tspan
             id="tspan88"
             y="84.797203"
             x="128.42307 140.42906 145.43306 155.44106 164.44106 173.44106 178.44505 188.45306 194.44707 204.509 217.505">Stack grows</tspan><tspan
             id="tspan90"
             y="102.7972"
             x="155.93286 165.94086 175.94885 188.94485">down</tspan><tspan
             id="tspan92"
             y="-129.5218"
             x="124.40666 136.41266 141.41666 151.42467 160.42467 169.42467 174.42867 184.43666 194.44466 199.44865 209.45667 215.50471">Stack before</tspan><tspan
             id="tspan94"
             y="-112.2718"
             x="107.88326 116.88326 126.89126 130.88725 134.88326 138.93326 148.94125 158.94926 163.95326 173.96126 178.96526 183.96925 193.97726 203.98526 212.98526 217.98926 221.98526 231.99326">calling a function</tspan><tspan
             id="tspan96"
             y="-49.017899"
             x="159.64456 169.65256 182.64856 186.08656">LR''</tspan><tspan
             id="tspan98"
             y="-18.247601"
             x="157.8559 168.8539 180.85989 184.2979">FP''</tspan><tspan
             id="tspan100"
             y="33.6325"
             x="115.81839 127.82439 132.82838 142.8364 151.8364 160.8364 165.84039 177.84639 183.84039 193.90237 198.90637 210.91237 216.90637 226.91437">Stack Arg Area</tspan><tspan
             id="tspan102"
             y="-129.5215"
             x="533.37537 545.38141 550.38538 560.39337 569.39337 578.39337 583.3974 593.4054 598.40936 603.41339 613.42139">Stack after</tspan><tspan
             id="tspan104"
             y="-112.2715"
             x="509.32849 518.32849 528.33649 532.33252 536.32849 540.37848 550.38647 560.39447 565.3985 575.40649 580.41046 585.41449 595.42249 605.43048 614.43048 619.43451 623.43048 633.43848">calling a function</tspan><tspan
             id="tspan106"
             y="96.962502"
             x="502.89606 516.90009 529.89606 534.90009 546.90607 552.90009 562.90808 567.91205 579.91809 589.98004 598.98004 608.9881 613.99207 625.99805 631.99207 642.00006">GR Arg Save Area</tspan><tspan
             id="tspan108"
             y="163.8703"
             x="503.88043 515.88647 528.88245 533.88647 545.89246 551.94061 561.94861 566.95258 578.95862 588.96661 597.96661 607.97461 612.97858 624.98462 631.03278 641.04077">VR Arg Save Area</tspan><tspan
             id="tspan110"
             y="-1.0727"
             x="397.86743 408.86545 420.87146">FP'</tspan><tspan
             id="tspan112"
             y="64.403503"
             x="398.94089 410.9469 422.95288">SP'</tspan><tspan
             id="tspan114"
             y="227.5575"
             x="482.8573 495.85327 505.8613 509.8573 513.90729 523.91528 533.92328 539.9173 551.97717 561.98517 570.98517 580.99316 591.00122 596.00519 609.00122 619.00922 629.07135 633.06732 642.06732 647.07135 657.07935 663.07336">Callee-Saved Registers</tspan><tspan
             id="tspan116"
             y="293.03409"
             x="513.3819 523.38989 533.39789 542.39789 552.40588 556.45569 561.45972 573.4657 583.47369 589.46771 593.46368 603.52557 613.53363 617.5296 627.5376">Local Variables</tspan></text>
<text
           id="text122"
           style="font-variant:normal;font-size:18px;font-family:Helvetica;-inkscape-font-specification:f-0-0;writing-mode:lr-tb;fill:#000000;fill-opacity:1;fill-rule:nonzero;stroke:none"
           transform="matrix(0,1,1,0,360.447,524.686)"><tspan
             id="tspan120"
             y="0"
             x="0 12.996 23.004 27 31.049999 41.057999">Caller</tspan></text>
<text
           id="text128"
           style="font-variant:normal;font-size:18px;font-family:Helvetica;-inkscape-font-specification:f-0-0;writing-mode:lr-tb;fill:#000000;fill-opacity:1;fill-rule:nonzero;stroke:none"
           transform="matrix(1,0,0,-1,527.112,58.0137)"><tspan
             id="tspan124"
             y="0"
             x="0 12.006 17.01 27.018 36.018002 45.018002 50.021999 60.029999 66.024002 76.085953 89.081955">Stack grows</tspan><tspan
             id="tspan126"
             y="18"
             x="27.5098 37.517799 47.525799 60.521801">down</tspan></text>
<text
           id="text132"
           style="font-variant:normal;font-size:18px;font-family:Helvetica;-inkscape-font-specification:f-0-0;writing-mode:lr-tb;fill:#000000;fill-opacity:1;fill-rule:nonzero;stroke:none"
           transform="matrix(0,1,1,0,758.673,524.686)"><tspan
             id="tspan130"
             y="0"
             x="0 12.996 23.004 27 31.049999 41.057999 -276.43201 -263.436 -253.42799 -249.43201 -245.382 -235.37399">CallerCallee</tspan></text>
<text
           id="text138"
           style="font-variant:normal;font-size:10px;font-family:Helvetica;-inkscape-font-specification:f-0-0;writing-mode:lr-tb;fill:#000000;fill-opacity:1;fill-rule:nonzero;stroke:none"
           transform="matrix(1,0,0,-1,154.023,490.196)"><tspan
             id="tspan134"
             y="0"
             x="0 3.3299999 8.8900003 14.45 17.23 22.790001 28.380077 30.600079 36.16008 41.720078">(outgoing)</tspan><tspan
             id="tspan136"
             y="-42.9352"
             x="388.95001 396.17001 401.17001 406.73001 412.29001 420.64999 422.87 427.87 430.64999 437.31998 439.53998 441.75998 447.34998 452.34998 457.90997 460.68997 462.90997 468.46997">Dynamic Allocation</tspan></text>
<text
           id="text146"
           style="font-variant:normal;font-size:18px;font-family:Helvetica;-inkscape-font-specification:f-0-0;writing-mode:lr-tb;fill:#000000;fill-opacity:1;fill-rule:nonzero;stroke:none"
           transform="matrix(1,0,0,-1,562.6894,586.8003)"><tspan
             id="tspan140"
             y="0"
             x="0 10.008 23.004 26.441999">LR''</tspan><tspan
             id="tspan142"
             y="30.4125"
             x="-1.4293 9.5686998 21.574699 25.012699">FP''</tspan><tspan
             id="tspan144"
             y="82.292603"
             x="-43.466801 -31.4608 -26.4568 -16.448799 -7.4488001 1.5512 6.5552001 18.561199 24.555201 34.617199 39.621201 51.627201 57.621201 67.629204">Stack Arg Area</tspan></text>
<text
           id="text152"
           style="font-variant:normal;font-size:10px;font-family:Helvetica;-inkscape-font-specification:f-0-0;writing-mode:lr-tb;fill:#000000;fill-opacity:1;fill-rule:nonzero;stroke:none"
           transform="matrix(1,0,0,-1,558.2167,490.196)"><tspan
             id="tspan148"
             y="0"
             x="0 3.3299999 5.5500002 11.11 16.110001 21.69998 30.02998 32.249981 37.809982 43.39996">(incoming)</tspan><tspan
             id="tspan150"
             y="350.63901"
             x="-15.2441 -8.0241003 -3.0241001 2.5359001 8.0958996 16.455881 18.67588 23.67588 26.455881 33.125881 35.345879 37.56588 43.155861 48.155861 53.715862 56.495861 58.715862 64.275864">Dynamic Allocation</tspan></text>
<text
           id="text160"
           style="font-variant:normal;font-size:18px;font-family:Helvetica;-inkscape-font-specification:f-0-0;writing-mode:lr-tb;fill:#000000;fill-opacity:1;fill-rule:nonzero;stroke:none"
           transform="matrix(1,0,0,-1,564.7718,193.584)"><tspan
             id="tspan154"
             y="0"
             x="0 10.008 23.004">LR'</tspan><tspan
             id="tspan156"
             y="30.7703"
             x="-1.78906 9.2089396 21.214939">FP'</tspan><tspan
             id="tspan158"
             y="82.650803"
             x="-45.549259 -33.543259 -28.539261 -18.53126 -9.5312595 -0.53126001 4.4727402 16.478741 22.47274 32.53474 37.538738 49.544739 55.538738 65.546738">Stack Arg Area</tspan></text>
<text
           id="text172"
           style="font-variant:normal;font-size:10px;font-family:Helvetica;-inkscape-font-specification:f-0-0;writing-mode:lr-tb;fill:#000000;fill-opacity:1;fill-rule:nonzero;stroke:none"
           transform="matrix(1,0,0,-1,559.04674,96.6215)"><tspan
             id="tspan162"
             y="0"
             x="0 3.3299999 8.8900003 14.45 17.23 22.790001 28.380077 30.600079 36.16008 41.720078">(outgoing)</tspan><tspan
             id="tspan164"
             y="-427.564"
             x="-162.44099 -156.881 -151.321 -148.541 -142.981 -137.42101 -134.64101 -131.311">on entry</tspan><tspan
             id="tspan166"
             y="-38.640999"
             x="-162.08319 -154.86319 -149.30319 -147.08319 -144.83321 -139.27321 -136.49321 -133.16321 -127.6032 -122.04321 -116.45312 -114.23313 -108.67313">while running</tspan><tspan
             id="tspan168"
             y="-364.23401"
             x="-162.44099 -156.881 -151.321 -148.541 -142.981 -137.42101 -134.64101 -131.311">on entry</tspan><tspan
             id="tspan170"
             y="24.688999"
             x="-162.08319 -154.86319 -149.30319 -147.08319 -144.83321 -139.27321 -136.49321 -133.16321 -127.6032 -122.04321 -116.45312 -114.23313 -108.67313">while running</tspan></text>
<text
           id="text178"
           style="font-variant:normal;font-size:18px;font-family:Helvetica;-inkscape-font-specification:f-0-0;writing-mode:lr-tb;fill:#000000;fill-opacity:1;fill-rule:nonzero;stroke:none"
           transform="matrix(1,0,0,-1,396.24793,150.2895)"><tspan
             id="tspan174"
             y="0"
             x="0 10.998">FP</tspan><tspan
             id="tspan176"
             y="65.476196"
             x="1.07344 13.07944">SP</tspan></text>
</g><path
         id="path180"
         style="fill:none;stroke:#000000;stroke-width:7.5;stroke-linecap:butt;stroke-linejoin:miter;stroke-miterlimit:4;stroke-dasharray:22.5, 22.5;stroke-dashoffset:0;stroke-opacity:1"
         d="M 702.969,5785.7 H 2867.62" /><path
         id="path182"
         style="fill:none;stroke:#000000;stroke-width:7.5;stroke-linecap:butt;stroke-linejoin:miter;stroke-miterlimit:4;stroke-dasharray:22.5, 22.5;stroke-dashoffset:0;stroke-opacity:1"
         d="M 4685.23,5785.7 H 6849.88" /><path
         id="path184"
         style="fill:none;stroke:#000000;stroke-width:7.5;stroke-linecap:butt;stroke-linejoin:miter;stroke-miterlimit:4;stroke-dasharray:22.5, 22.5;stroke-dashoffset:0;stroke-opacity:1"
         d="M 4685.23,1860.7 H 6849.88" /><path
         id="path186"
         style="fill:none;stroke:#000000;stroke-width:30;stroke-linecap:butt;stroke-linejoin:miter;stroke-miterlimit:4;stroke-dasharray:none;stroke-opacity:1"
         d="M 3232.58,4830.39 H 3390 v 1273.75" /><path
         id="path188"
         style="fill:none;stroke:#000000;stroke-width:30;stroke-linecap:butt;stroke-linejoin:miter;stroke-miterlimit:4;stroke-dasharray:60, 60;stroke-dashoffset:0;stroke-opacity:1"
         d="m 3390,6104.14 v 565.31" /><path
         id="path190"
         style="fill:none;stroke:#000000;stroke-width:30;stroke-linecap:butt;stroke-linejoin:miter;stroke-miterlimit:4;stroke-dasharray:none;stroke-opacity:1"
         d="m 7225.55,4830.39 h 157.46 v 1273.75" /><path
         id="path192"
         style="fill:none;stroke:#000000;stroke-width:30;stroke-linecap:butt;stroke-linejoin:miter;stroke-miterlimit:4;stroke-dasharray:60, 60;stroke-dashoffset:0;stroke-opacity:1"
         d="m 7383.01,6104.14 v 565.31" /><path
         id="path194"
         style="fill:none;stroke:#000000;stroke-width:30;stroke-linecap:butt;stroke-linejoin:miter;stroke-miterlimit:4;stroke-dasharray:none;stroke-opacity:1"
         d="m 7225.55,805.199 h 157.46 V 4766.02 h -157.46" /><path
         id="path196"
         style="fill:none;stroke:#000000;stroke-width:30;stroke-linecap:butt;stroke-linejoin:miter;stroke-miterlimit:4;stroke-dasharray:none;stroke-opacity:1"
         d="m 280.781,5460.12 h 357.77" /><path
         id="path198"
         style="fill:#000000;fill-opacity:1;fill-rule:evenodd;stroke:none"
         d="m 481.641,5532.73 196.64,-72.34 -196.64,-72.3 c 31.41,42.69 31.211,101.13 0,144.64 z" /><path
         id="path200"
         style="fill:none;stroke:#000000;stroke-width:11.25;stroke-linecap:butt;stroke-linejoin:round;stroke-miterlimit:4;stroke-dasharray:none;stroke-opacity:1"
         d="m 481.641,5532.73 196.64,-72.34 -196.64,-72.3 c 31.41,42.69 31.211,101.13 0,144.64 z" /><path
         id="path202"
         style="fill:none;stroke:#000000;stroke-width:30;stroke-linecap:butt;stroke-linejoin:miter;stroke-miterlimit:4;stroke-dasharray:none;stroke-opacity:1"
         d="m 280.781,4783.87 h 357.77" /><path
         id="path204"
         style="fill:#000000;fill-opacity:1;fill-rule:evenodd;stroke:none"
         d="m 481.641,4856.48 196.64,-72.3 -196.64,-72.3 c 31.41,42.69 31.211,101.09 0,144.6 z" /><path
         id="path206"
         style="fill:none;stroke:#000000;stroke-width:11.25;stroke-linecap:butt;stroke-linejoin:round;stroke-miterlimit:4;stroke-dasharray:none;stroke-opacity:1"
         d="m 481.641,4856.48 196.64,-72.3 -196.64,-72.31 c 31.41,42.7 31.211,101.1 0,144.61 z" /><path
         id="path208"
         style="fill:none;stroke:#000000;stroke-width:30;stroke-linecap:butt;stroke-linejoin:miter;stroke-miterlimit:4;stroke-dasharray:none;stroke-opacity:1"
         d="m 4259.45,5460.12 h 357.78" /><path
         id="path210"
         style="fill:#000000;fill-opacity:1;fill-rule:evenodd;stroke:none"
         d="m 4460.31,5532.73 196.64,-72.34 -196.64,-72.3 c 31.41,42.69 31.25,101.13 0,144.64 z" /><path
         id="path212"
         style="fill:none;stroke:#000000;stroke-width:11.25;stroke-linecap:butt;stroke-linejoin:round;stroke-miterlimit:4;stroke-dasharray:none;stroke-opacity:1"
         d="m 4460.31,5532.73 196.64,-72.34 -196.64,-72.3 c 31.41,42.69 31.25,101.13 0,144.64 z" /><path
         id="path214"
         style="fill:none;stroke:#000000;stroke-width:30;stroke-linecap:butt;stroke-linejoin:miter;stroke-miterlimit:4;stroke-dasharray:none;stroke-opacity:1"
         d="m 4259.45,4783.91 h 357.78" /><path
         id="path216"
         style="fill:#000000;fill-opacity:1;fill-rule:evenodd;stroke:none"
         d="m 4460.31,4856.48 196.64,-72.3 -196.64,-72.3 c 31.41,42.69 31.25,101.09 0,144.6 z" /><path
         id="path218"
         style="fill:none;stroke:#000000;stroke-width:11.25;stroke-linecap:butt;stroke-linejoin:round;stroke-miterlimit:4;stroke-dasharray:none;stroke-opacity:1"
         d="m 4460.31,4856.48 196.64,-72.3 -196.64,-72.31 c 31.41,42.7 31.25,101.1 0,144.61 z" /><path
         id="path220"
         style="fill:none;stroke:#000000;stroke-width:30;stroke-linecap:butt;stroke-linejoin:miter;stroke-miterlimit:4;stroke-dasharray:none;stroke-opacity:1"
         d="m 4259.45,1556.56 h 357.78" /><path
         id="path222"
         style="fill:#000000;fill-opacity:1;fill-rule:evenodd;stroke:none"
         d="m 4460.31,1629.18 196.64,-72.3 -196.64,-72.35 c 31.41,42.7 31.25,101.13 0,144.65 z" /><path
         id="path224"
         style="fill:none;stroke:#000000;stroke-width:11.25;stroke-linecap:butt;stroke-linejoin:round;stroke-miterlimit:4;stroke-dasharray:none;stroke-opacity:1"
         d="m 4460.31,1629.18 196.64,-72.31 -196.64,-72.34 c 31.41,42.7 31.25,101.13 0,144.65 z" /><path
         id="path226"
         style="fill:none;stroke:#000000;stroke-width:30;stroke-linecap:butt;stroke-linejoin:miter;stroke-miterlimit:4;stroke-dasharray:none;stroke-opacity:1"
         d="m 4259.45,880.352 h 357.78" /><path
         id="path228"
         style="fill:#000000;fill-opacity:1;fill-rule:evenodd;stroke:none"
         d="m 4460.31,952.969 196.64,-72.348 -196.64,-72.301 c 31.41,42.7 31.25,101.09 0,144.649 z" /><path
         id="path230"
         style="fill:none;stroke:#000000;stroke-width:11.25;stroke-linecap:butt;stroke-linejoin:round;stroke-miterlimit:4;stroke-dasharray:none;stroke-opacity:1"
         d="m 4460.31,952.969 196.64,-72.348 -196.64,-72.301 c 31.41,42.7 31.25,101.09 0,144.649 z" /><path
         id="path232"
         style="fill:none;stroke:#000000;stroke-width:15;stroke-linecap:butt;stroke-linejoin:miter;stroke-miterlimit:4;stroke-dasharray:none;stroke-opacity:1"
         d="M 1758.48,4311.6 V 3968.12" /><path
         id="path234"
         style="fill:#000000;fill-opacity:1;fill-rule:evenodd;stroke:none"
         d="m 1758.48,4028.12 -30,30 30,-105 30,105 z" /><path
         id="path236"
         style="fill:none;stroke:#000000;stroke-width:8;stroke-linecap:butt;stroke-linejoin:miter;stroke-miterlimit:4;stroke-dasharray:none;stroke-opacity:1"
         d="m 1758.48,4028.12 -30,30 30,-105 30,105 z" /><path
         id="path238"
         style="fill:none;stroke:#000000;stroke-width:15;stroke-linecap:butt;stroke-linejoin:miter;stroke-miterlimit:4;stroke-dasharray:none;stroke-opacity:1"
         d="M 5747.85,379.449 V 35.9414" /><path
         id="path240"
         style="fill:#000000;fill-opacity:1;fill-rule:evenodd;stroke:none"
         d="m 5747.85,95.9414 -30,29.9996 30,-104.9996 30,104.9996 z" /><path
         id="path242"
         style="fill:none;stroke:#000000;stroke-width:8;stroke-linecap:butt;stroke-linejoin:miter;stroke-miterlimit:4;stroke-dasharray:none;stroke-opacity:1"
         d="m 5747.85,95.9414 -30,29.9996 30,-104.9996 30,104.9996 z" /></g></g></svg>