<?xml version="1.0" encoding="UTF-8" standalone="no"?>
<svg
   xmlns:dc="http://purl.org/dc/elements/1.1/"
   xmlns:cc="http://creativecommons.org/ns#"
   xmlns:rdf="http://www.w3.org/1999/02/22-rdf-syntax-ns#"
   xmlns:svg="http://www.w3.org/2000/svg"
   xmlns="http://www.w3.org/2000/svg"
   viewBox="0 0 369.33334 226.66667"
   height="226.66667"
   width="369.33334"
   xml:space="preserve"
   id="svg2"
   version="1.1"><metadata
     id="metadata8"><rdf:RDF><cc:Work
         rdf:about=""><dc:format>image/svg+xml</dc:format><dc:type
           rdf:resource="http://purl.org/dc/dcmitype/StillImage" /></cc:Work></rdf:RDF></metadata><defs
     id="defs6" /><g
     transform="matrix(1.3333333,0,0,-1.3333333,0,226.66667)"
     id="g10"><g
       transform="scale(0.1)"
       id="g12"><path
         id="path14"
         style="fill:none;stroke:#000000;stroke-width:7.5;stroke-linecap:butt;stroke-linejoin:miter;stroke-miterlimit:4;stroke-dasharray:none;stroke-opacity:1"
         d="M 1291.45,1263.87 H 2050" /><path
         id="path16"
         style="fill:#000000;fill-opacity:1;fill-rule:evenodd;stroke:none"
         d="m 1969.8,1297.15 90.16,-33.17 -90.16,-33.12 c 14.42,19.57 14.34,46.33 0,66.29 z" /><path
         id="path18"
         style="fill:none;stroke:#000000;stroke-width:5.15625;stroke-linecap:butt;stroke-linejoin:round;stroke-miterlimit:4;stroke-dasharray:none;stroke-opacity:1"
         d="m 1969.8,1297.15 90.16,-33.17 -90.16,-33.12 c 14.42,19.57 14.34,46.33 0,66.29 z" /><path
         id="path20"
         style="fill:none;stroke:#000000;stroke-width:7.5;stroke-linecap:butt;stroke-linejoin:miter;stroke-miterlimit:4;stroke-dasharray:none;stroke-opacity:1"
         d="M 900,1263.44 V 903.871 h 1150" /><path
         id="path22"
         style="fill:#000000;fill-opacity:1;fill-rule:evenodd;stroke:none"
         d="m 1969.8,937.148 90.16,-33.168 -90.16,-33.121 c 14.42,19.571 14.34,46.332 0,66.289 z" /><path
         id="path24"
         style="fill:none;stroke:#000000;stroke-width:5.15625;stroke-linecap:butt;stroke-linejoin:round;stroke-miterlimit:4;stroke-dasharray:none;stroke-opacity:1"
         d="m 1969.8,937.148 90.16,-33.168 -90.16,-33.121 c 14.42,19.571 14.34,46.332 0,66.289 z" /><path
         id="path26"
         style="fill:none;stroke:#000000;stroke-width:7.5;stroke-linecap:butt;stroke-linejoin:miter;stroke-miterlimit:4;stroke-dasharray:none;stroke-opacity:1"
         d="M 540,1263.44 V 543.871 h 1510" /><path
         id="path28"
         style="fill:#000000;fill-opacity:1;fill-rule:evenodd;stroke:none"
         d="m 1969.8,577.148 90.16,-33.168 -90.16,-33.121 c 14.42,19.571 14.34,46.332 0,66.289 z" /><path
         id="path30"
         style="fill:none;stroke:#000000;stroke-width:5.15625;stroke-linecap:butt;stroke-linejoin:round;stroke-miterlimit:4;stroke-dasharray:none;stroke-opacity:1"
         d="m 1969.8,577.148 90.16,-33.168 -90.16,-33.121 c 14.42,19.571 14.34,46.332 0,66.289 z" /><path
         id="path32"
         style="fill:none;stroke:#000000;stroke-width:7.5;stroke-linecap:butt;stroke-linejoin:miter;stroke-miterlimit:4;stroke-dasharray:none;stroke-opacity:1"
         d="M 180,1269.65 V 183.871 h 1870" /><path
         id="path34"
         style="fill:#000000;fill-opacity:1;fill-rule:evenodd;stroke:none"
         d="m 1969.8,217.148 90.16,-33.168 -90.16,-33.121 c 14.42,19.571 14.34,46.332 0,66.289 z" /><path
         id="path36"
         style="fill:none;stroke:#000000;stroke-width:5.15625;stroke-linecap:butt;stroke-linejoin:round;stroke-miterlimit:4;stroke-dasharray:none;stroke-opacity:1"
         d="m 1969.8,217.148 90.16,-33.168 -90.16,-33.121 c 14.42,19.571 14.34,46.332 0,66.289 z" /><path
         id="path38"
         style="fill:#ffffff;fill-opacity:1;fill-rule:nonzero;stroke:none"
         d="m 2103.87,7.73047 h 352.27 v 372.27 h -352.27 z" /><path
         id="path40"
         style="fill:none;stroke:#000000;stroke-width:7.69644022;stroke-linecap:butt;stroke-linejoin:miter;stroke-miterlimit:4;stroke-dasharray:none;stroke-opacity:1"
         d="m 2103.87,7.73047 h 352.27 v 372.27 h -352.27 z" /><path
         id="path42"
         style="fill:#ffffff;fill-opacity:1;fill-rule:nonzero;stroke:none"
         d="m 2103.87,367.73 h 352.27 V 740 h -352.27 z" /><path
         id="path44"
         style="fill:none;stroke:#000000;stroke-width:7.69644022;stroke-linecap:butt;stroke-linejoin:miter;stroke-miterlimit:4;stroke-dasharray:none;stroke-opacity:1"
         d="m 2103.87,367.73 h 352.27 V 740 h -352.27 z" /><path
         id="path46"
         style="fill:#ffffff;fill-opacity:1;fill-rule:nonzero;stroke:none"
         d="m 2103.87,727.73 h 352.27 V 1100 h -352.27 z" /><path
         id="path48"
         style="fill:none;stroke:#000000;stroke-width:7.69644022;stroke-linecap:butt;stroke-linejoin:miter;stroke-miterlimit:4;stroke-dasharray:none;stroke-opacity:1"
         d="m 2103.87,727.73 h 352.27 V 1100 h -352.27 z" /><path
         id="path50"
         style="fill:#ffffff;fill-opacity:1;fill-rule:nonzero;stroke:none"
         d="m 3.87109,1087.73 h 372.27 V 1440 h -372.27 z" /><path
         id="path52"
         style="fill:none;stroke:#000000;stroke-width:7.69644022;stroke-linecap:butt;stroke-linejoin:miter;stroke-miterlimit:4;stroke-dasharray:none;stroke-opacity:1"
         d="m 3.87109,1087.73 h 372.27 V 1440 h -372.27 z" /><path
         id="path54"
         style="fill:#ffffff;fill-opacity:1;fill-rule:nonzero;stroke:none"
         d="m 363.871,1087.73 h 372.27 V 1440 h -372.27 z" /><path
         id="path56"
         style="fill:none;stroke:#000000;stroke-width:7.69644022;stroke-linecap:butt;stroke-linejoin:miter;stroke-miterlimit:4;stroke-dasharray:none;stroke-opacity:1"
         d="m 363.871,1087.73 h 372.27 V 1440 h -372.27 z" /><path
         id="path58"
         style="fill:#ffffff;fill-opacity:1;fill-rule:nonzero;stroke:none"
         d="m 723.871,1087.73 h 372.27 V 1440 h -372.27 z" /><path
         id="path60"
         style="fill:none;stroke:#000000;stroke-width:7.69644022;stroke-linecap:butt;stroke-linejoin:miter;stroke-miterlimit:4;stroke-dasharray:none;stroke-opacity:1"
         d="m 723.871,1087.73 h 372.27 V 1440 h -372.27 z" /><path
         id="path62"
         style="fill:#ffffff;fill-opacity:1;fill-rule:nonzero;stroke:none"
         d="m 1083.75,1087.62 h 352.5 v 352.5 h -352.5 z" /><path
         id="path64"
         style="fill:none;stroke:#000000;stroke-width:7.49123001;stroke-linecap:butt;stroke-linejoin:miter;stroke-miterlimit:4;stroke-dasharray:none;stroke-opacity:1"
         d="m 1083.75,1087.62 h 352.5 v 352.5 h -352.5 z" /><g
         transform="scale(10)"
         id="g66"><text
           id="text70"
           style="font-variant:normal;font-weight:normal;font-size:12.00024033px;font-family:Helvetica;-inkscape-font-specification:DejaVuSans;writing-mode:lr-tb;fill:#000000;fill-opacity:1;fill-rule:nonzero;stroke:none"
           transform="matrix(1.00002,0,0,-1,4.28008,123.557)"><tspan
             id="tspan68"
             y="0"
             x="0 10.356207 17.97636">MSB</tspan></text>
<text
           id="text76"
           style="font-variant:normal;font-weight:normal;font-size:12px;font-family:Helvetica;-inkscape-font-specification:DejaVuSans;writing-mode:lr-tb;fill:#000000;fill-opacity:1;fill-rule:nonzero;stroke:none"
           transform="matrix(1,0,0,-1,113.512,123.557)"><tspan
             id="tspan72"
             y="0"
             x="0 6.684 14.304">LSB</tspan><tspan
             id="tspan74"
             y="-37.326199"
             x="-60.1082 -50.6642 -43.044201 -39.708199 -32.328201 -25.728201 89.879677 100.23568 107.61568 119.30368 126.64768 131.57968">ObjectMemory</tspan></text>
</g><path
         id="path78"
         style="fill:#ffffff;fill-opacity:1;fill-rule:nonzero;stroke:none"
         d="m 2103.75,1087.62 h 352.5 v 352.5 h -352.5 z" /><path
         id="path80"
         style="fill:none;stroke:#000000;stroke-width:7.49123001;stroke-linecap:butt;stroke-linejoin:miter;stroke-miterlimit:4;stroke-dasharray:none;stroke-opacity:1"
         d="m 2103.75,1087.62 h 352.5 v 352.5 h -352.5 z" /><g
         transform="scale(10)"
         id="g82"><text
           id="text92"
           style="font-variant:normal;font-weight:normal;font-size:12px;font-family:Helvetica;-inkscape-font-specification:DejaVuSans;writing-mode:lr-tb;fill:#000000;fill-opacity:1;fill-rule:nonzero;stroke:none"
           transform="matrix(1,0,0,-1,248.822,123.557)"><tspan
             id="tspan84"
             y="0"
             x="0 10.356 20.412001">M+3</tspan><tspan
             id="tspan86"
             y="36.169899"
             x="0 10.356 20.412001">M+2</tspan><tspan
             id="tspan88"
             y="72.169899"
             x="0 10.356 20.412001">M+1</tspan><tspan
             id="tspan90"
             y="108"
             x="0 10.356 20.412001">M+0</tspan></text>
<text
           id="text98"
           style="font-variant:normal;font-weight:normal;font-size:8px;font-family:Helvetica;-inkscape-font-specification:DejaVuSans;writing-mode:lr-tb;fill:#000000;fill-opacity:1;fill-rule:nonzero;stroke:none"
           transform="matrix(1,0,0,-1,0.384,148.5)"><tspan
             id="tspan94"
             y="0"
             x="0 5.0879998">31</tspan><tspan
             id="tspan96"
             y="-0.0101563"
             x="138.147">0</tspan></text>
</g></g></g></svg>