<?xml version="1.0" encoding="UTF-8" standalone="no"?>
<svg
   xmlns:dc="http://purl.org/dc/elements/1.1/"
   xmlns:cc="http://creativecommons.org/ns#"
   xmlns:rdf="http://www.w3.org/1999/02/22-rdf-syntax-ns#"
   xmlns:svg="http://www.w3.org/2000/svg"
   xmlns="http://www.w3.org/2000/svg"
   viewBox="0 0 1034.6667 328"
   height="328"
   width="1034.6667"
   xml:space="preserve"
   id="svg2"
   version="1.1"><metadata
     id="metadata8"><rdf:RDF><cc:Work
         rdf:about=""><dc:format>image/svg+xml</dc:format><dc:type
           rdf:resource="http://purl.org/dc/dcmitype/StillImage" /></cc:Work></rdf:RDF></metadata><defs
     id="defs6" /><g
     transform="matrix(1.3333333,0,0,-1.3333333,0,328)"
     id="g10"><g
       transform="scale(0.1)"
       id="g12"><path
         id="path14"
         style="fill:#e3e3e3;fill-opacity:1;fill-rule:nonzero;stroke:none"
         d="m 976.25,1802.42 h 3011.29 v 629.223 H 976.25 Z" /><path
         id="path16"
         style="fill:none;stroke:#000000;stroke-width:56.69290161;stroke-linecap:butt;stroke-linejoin:miter;stroke-miterlimit:4;stroke-dasharray:none;stroke-opacity:1"
         d="m 976.25,1802.42 h 3011.29 v 629.223 H 976.25 Z" /><path
         id="path18"
         style="fill:#c0c0c0;fill-opacity:1;fill-rule:nonzero;stroke:none"
         d="m 981.371,918.629 h 3001.09 V 1797.34 H 981.371 Z" /><path
         id="path20"
         style="fill:none;stroke:#000000;stroke-width:66.88269806;stroke-linecap:butt;stroke-linejoin:miter;stroke-miterlimit:4;stroke-dasharray:none;stroke-opacity:1"
         d="m 981.371,918.629 h 3001.09 V 1797.34 H 981.371 Z" /><path
         id="path22"
         style="fill:#c0c0c0;fill-opacity:1;fill-rule:nonzero;stroke:none"
         d="m 981.371,39.8789 h 3001.09 v 878.75 H 981.371 Z" /><path
         id="path24"
         style="fill:none;stroke:#000000;stroke-width:66.88269806;stroke-linecap:butt;stroke-linejoin:miter;stroke-miterlimit:4;stroke-dasharray:none;stroke-opacity:1"
         d="m 981.371,39.8789 h 3001.09 v 878.75 H 981.371 Z" /><path
         id="path26"
         style="fill:none;stroke:#000000;stroke-width:28.3465004;stroke-linecap:butt;stroke-linejoin:miter;stroke-miterlimit:4;stroke-dasharray:none;stroke-opacity:1"
         d="m 384.488,1809.92 499.383,-7.5" /><path
         id="path28"
         style="fill:#000000;fill-opacity:1;fill-rule:evenodd;stroke:none"
         d="m 770.512,1804.14 -57.543,-55.86 199.261,53.71 -197.582,59.69 z" /><path
         id="path30"
         style="fill:none;stroke:#000000;stroke-width:15.11810017;stroke-linecap:butt;stroke-linejoin:miter;stroke-miterlimit:4;stroke-dasharray:none;stroke-opacity:1"
         d="m 770.508,1804.14 -57.539,-55.86 199.258,53.71 -197.579,59.69 z" /><path
         id="path32"
         style="fill:none;stroke:#000000;stroke-width:28.3465004;stroke-linecap:butt;stroke-linejoin:miter;stroke-miterlimit:4;stroke-dasharray:none;stroke-opacity:1"
         d="M 5265.98,2112.03 H 4082.42" /><path
         id="path34"
         style="fill:#000000;fill-opacity:1;fill-rule:evenodd;stroke:none"
         d="m 4195.82,2112.03 56.68,56.72 -198.4,-56.72 198.4,-56.68 z" /><path
         id="path36"
         style="fill:none;stroke:#000000;stroke-width:15.11810017;stroke-linecap:butt;stroke-linejoin:miter;stroke-miterlimit:4;stroke-dasharray:none;stroke-opacity:1"
         d="m 4195.82,2112.03 56.68,56.72 -198.4,-56.72 198.4,-56.68 z" /><path
         id="path38"
         style="fill:none;stroke:#000000;stroke-width:28.3465004;stroke-linecap:butt;stroke-linejoin:miter;stroke-miterlimit:4;stroke-dasharray:none;stroke-opacity:1"
         d="M 5265.98,1794.92 H 4082.42" /><path
         id="path40"
         style="fill:#000000;fill-opacity:1;fill-rule:evenodd;stroke:none"
         d="m 4195.82,1794.92 56.68,56.72 -198.4,-56.72 198.4,-56.68 z" /><path
         id="path42"
         style="fill:none;stroke:#000000;stroke-width:15.11810017;stroke-linecap:butt;stroke-linejoin:miter;stroke-miterlimit:4;stroke-dasharray:none;stroke-opacity:1"
         d="m 4195.82,1794.92 56.68,56.72 -198.4,-56.72 198.4,-56.68 z" /><path
         id="path44"
         style="fill:none;stroke:#000000;stroke-width:28.3465004;stroke-linecap:butt;stroke-linejoin:miter;stroke-miterlimit:4;stroke-dasharray:none;stroke-opacity:1"
         d="M 5265.98,916.02 H 4082.42" /><path
         id="path46"
         style="fill:#000000;fill-opacity:1;fill-rule:evenodd;stroke:none"
         d="m 4195.82,916.02 56.68,56.679 -198.4,-56.679 198.4,-56.68 z" /><path
         id="path48"
         style="fill:none;stroke:#000000;stroke-width:15.11810017;stroke-linecap:butt;stroke-linejoin:miter;stroke-miterlimit:4;stroke-dasharray:none;stroke-opacity:1"
         d="m 4195.82,916.02 56.68,56.679 -198.4,-56.679 198.4,-56.68 z" /><path
         id="path50"
         style="fill:none;stroke:#000000;stroke-width:14.17319965;stroke-linecap:butt;stroke-linejoin:miter;stroke-miterlimit:4;stroke-dasharray:none;stroke-opacity:1"
         d="M 4791.56,1759.96 V 1073.32" /><path
         id="path52"
         style="fill:#000000;fill-opacity:1;fill-rule:evenodd;stroke:none"
         d="m 4791.56,1130 -28.36,28.36 28.36,-99.22 28.36,99.22 z" /><path
         id="path54"
         style="fill:none;stroke:#000000;stroke-width:7.5590601;stroke-linecap:butt;stroke-linejoin:miter;stroke-miterlimit:4;stroke-dasharray:none;stroke-opacity:1"
         d="m 4791.56,1130 -28.36,28.36 28.36,-99.22 28.36,99.22 z" /><path
         id="path56"
         style="fill:none;stroke:#000000;stroke-width:14.17319965;stroke-linecap:butt;stroke-linejoin:miter;stroke-miterlimit:4;stroke-dasharray:none;stroke-opacity:1"
         d="M 4791.56,883.551 V 124.488" /><path
         id="path58"
         style="fill:#000000;fill-opacity:1;fill-rule:evenodd;stroke:none"
         d="m 4791.56,181.172 -28.36,28.359 28.36,-99.222 28.36,99.222 z" /><path
         id="path60"
         style="fill:none;stroke:#000000;stroke-width:7.5590601;stroke-linecap:butt;stroke-linejoin:miter;stroke-miterlimit:4;stroke-dasharray:none;stroke-opacity:1"
         d="m 4791.56,181.172 -28.36,28.359 28.36,-99.222 28.36,99.222 z" /><path
         id="path62"
         style="fill:#a7a7a7;fill-opacity:1;fill-rule:nonzero;stroke:none"
         d="m 1023.67,2139.5 h 2913.95 v 192.301 H 1023.67 Z" /><path
         id="path64"
         style="fill:none;stroke:#000000;stroke-width:14.16160011;stroke-linecap:butt;stroke-linejoin:miter;stroke-miterlimit:4;stroke-dasharray:42.4847, 14.1616;stroke-dashoffset:0;stroke-opacity:1"
         d="m 1023.67,2139.5 h 2913.95 v 192.301 H 1023.67 Z" /><g
         transform="scale(10)"
         id="g66"><text
           id="text70"
           style="font-variant:normal;font-size:16px;font-family:Helvetica;-inkscape-font-specification:f-0-0;writing-mode:lr-tb;fill:#000000;fill-opacity:1;fill-rule:nonzero;stroke:none"
           transform="matrix(1,0,0,-1,197.151,218.695)"><tspan
             id="tspan68"
             y="0"
             x="0 8.8959999 17.792 25.792 30.24 34.688 42.688 47.136002 56.032001 64.031998 72.031998 76.480003 85.375999 90.704002">next stack arg</tspan></text>
<text
           id="text74"
           style="font-variant:normal;font-size:14px;font-family:Helvetica;-inkscape-font-specification:f-0-0;writing-mode:lr-tb;fill:#000000;fill-opacity:1;fill-rule:nonzero;stroke:none"
           transform="matrix(1,0,0,-1,-0.504,152.2766)"><tspan
             id="tspan72"
             y="0"
             x="0 7.7839999 15.568 19.459999 27.243999 35.028 38.919998 43.582001">on entry</tspan></text>
<text
           id="text78"
           style="font-variant:normal;font-size:12px;font-family:Helvetica;-inkscape-font-specification:f-0-0;writing-mode:lr-tb;fill:#000000;fill-opacity:1;fill-rule:nonzero;stroke:none"
           transform="matrix(0,1,1,0,500.123,20.0145)"><tspan
             id="tspan76"
             y="0"
             x="0 7.0079999 10.344 17.016001 23.688 29.688 33.683998 40.355999 47.064072 50.40007 53.736073 91.883949 98.891953 102.22795 108.89995 115.57195 122.24395 126.23995 132.94803 139.62003 142.95602 146.29202">+ __vr_offs+ __gr_offs</tspan></text>
<text
           id="text82"
           style="font-variant:normal;font-size:24px;font-family:Helvetica;-inkscape-font-specification:f-0-0;writing-mode:lr-tb;fill:#000000;fill-opacity:1;fill-rule:nonzero;stroke:none"
           transform="matrix(1,0,0,-1,163.208,188.982)"><tspan
             id="tspan80"
             y="0"
             x="0 16.007999 22.68 36.023998 48.023998 60.023998 66.695999 82.704002 90.695999 104.11212 110.78412 126.79212 134.78412 148.12811">Stack Arg Area</tspan></text>
</g><path
         id="path84"
         style="fill:#a7a7a7;fill-opacity:1;fill-rule:nonzero;stroke:none"
         d="m 1023.67,1045.85 h 2913.95 v 192.27 H 1023.67 Z" /><path
         id="path86"
         style="fill:none;stroke:#000000;stroke-width:14.16160011;stroke-linecap:butt;stroke-linejoin:miter;stroke-miterlimit:4;stroke-dasharray:42.4847, 14.1616;stroke-dashoffset:0;stroke-opacity:1"
         d="m 1023.67,1045.85 h 2913.95 v 192.27 H 1023.67 Z" /><g
         transform="scale(10)"
         id="g88"><text
           id="text92"
           style="font-variant:normal;font-size:16px;font-family:Helvetica;-inkscape-font-specification:f-0-0;writing-mode:lr-tb;fill:#000000;fill-opacity:1;fill-rule:nonzero;stroke:none"
           transform="matrix(1,0,0,-1,188.666,109.33)"><tspan
             id="tspan90"
             y="0"
             x="0 8.8959999 17.792 25.792 30.24 34.688 43.584 52.48 61.375999 65.823997 71.152 80.096092 88.992096 93.440094 102.3361 107.66409">next gen.reg arg</tspan></text>
</g><path
         id="path94"
         style="fill:#9f9f9f;fill-opacity:1;fill-rule:nonzero;stroke:none"
         d="M 1023.67,109.488 H 3937.62 V 301.761 H 1023.67 Z" /><path
         id="path96"
         style="fill:none;stroke:#000000;stroke-width:14.16160011;stroke-linecap:butt;stroke-linejoin:miter;stroke-miterlimit:4;stroke-dasharray:42.4847, 14.1616;stroke-dashoffset:0;stroke-opacity:1"
         d="M 1023.67,109.488 H 3937.62 V 301.761 H 1023.67 Z" /><g
         transform="scale(10)"
         id="g98"><text
           id="text102"
           style="font-variant:normal;font-size:16px;font-family:Helvetica;-inkscape-font-specification:f-0-0;writing-mode:lr-tb;fill:#000000;fill-opacity:1;fill-rule:nonzero;stroke:none"
           transform="matrix(1,0,0,-1,176.229,15.6949)"><tspan
             id="tspan100"
             y="0"
             x="0 8.8959999 17.792 25.792 30.24 34.688 39.136002 48.032001 52.48 60.48 64.031998 77.360001 86.255997 90.704002 96.031998 104.97617 113.87217 118.32017 127.21617 132.54417">next fp/simd reg arg</tspan></text>
<text
           id="text114"
           style="font-variant:normal;font-size:24px;font-family:Helvetica;-inkscape-font-specification:f-0-0;writing-mode:lr-tb;fill:#000000;fill-opacity:1;fill-rule:nonzero;stroke:none"
           transform="matrix(1,0,0,-1,144.5286,145.5349)"><tspan
             id="tspan104"
             y="0"
             x="0 18.672001 36 42.672001 58.68 66.671997 80.015999 86.688004 102.696 116.11212 128.11212 141.45612 148.12811 164.13612 172.12811 185.47212">GR Arg Save Area</tspan><tspan
             id="tspan106"
             y="89.889503"
             x="1.3125 17.320499 34.648499 41.320499 57.328499 65.392593 78.736595 85.408592 101.4166 114.7606 126.7606 140.1046 146.7766 162.78459 170.84846 184.19247">VR Arg Save Area</tspan><tspan
             id="tspan108"
             y="-62.9235"
             x="394.3045 407.6485 420.99249 432.99249 439.66449 453.00851 465.00851">__stack</tspan><tspan
             id="tspan110"
             y="-31.2122"
             x="394.3045 407.6485 420.99249 434.33649 442.4006 455.74463 462.41663 475.76062">__gr_top</tspan><tspan
             id="tspan112"
             y="57.928001"
             x="394.3045 407.6485 420.99249 432.99249 440.9845 454.4006 461.07263 474.41663">__vr_top</tspan></text>
<text
           id="text118"
           style="font-variant:normal;font-size:28px;font-family:Helvetica;-inkscape-font-specification:f-0-0;writing-mode:lr-tb;fill:#000000;fill-opacity:1;fill-rule:nonzero;stroke:none"
           transform="matrix(1,0,0,-1,696.3891,114.0741)"><tspan
             id="tspan116"
             y="0"
             x="0 14 29.568001 45.136002 51.352001 57.652 71.652">va_list</tspan></text>
</g><path
         id="path120"
         style="fill:none;stroke:#000000;stroke-width:17.00790024;stroke-linecap:butt;stroke-linejoin:miter;stroke-miterlimit:4;stroke-dasharray:none;stroke-opacity:1"
         d="m 6474.49,2316.8 c 659.18,-337.07 -7.5,-794.03 419.49,-1123.64 C 6466.99,863.59 7133.67,406.641 6474.49,69.5703" /><g
         transform="scale(10)"
         id="g122"><text
           id="text126"
           style="font-variant:normal;font-size:24px;font-family:Helvetica;-inkscape-font-specification:f-0-0;writing-mode:lr-tb;fill:#000000;fill-opacity:1;fill-rule:nonzero;stroke:none"
           transform="matrix(1,0,0,-1,0.494922,172.502)"><tspan
             id="tspan124"
             y="0"
             x="0 16.007999 32.015999">SP'</tspan></text>
</g><path
         id="path128"
         style="fill:none;stroke:#000000;stroke-width:6.71173;stroke-linecap:butt;stroke-linejoin:miter;stroke-miterlimit:4;stroke-dasharray:20.1352, 20.1352;stroke-dashoffset:0;stroke-opacity:1"
         d="m 4027.5,1045.86 h 754.06" /><path
         id="path130"
         style="fill:none;stroke:#000000;stroke-width:6.71173;stroke-linecap:butt;stroke-linejoin:miter;stroke-miterlimit:4;stroke-dasharray:20.1352, 20.1352;stroke-dashoffset:0;stroke-opacity:1"
         d="m 4027.5,104.488 h 754.06" /></g></g></svg>