<?xml version="1.0" encoding="UTF-8" standalone="no"?>
<svg
   xmlns:dc="http://purl.org/dc/elements/1.1/"
   xmlns:cc="http://creativecommons.org/ns#"
   xmlns:rdf="http://www.w3.org/1999/02/22-rdf-syntax-ns#"
   xmlns:svg="http://www.w3.org/2000/svg"
   xmlns="http://www.w3.org/2000/svg"
   viewBox="0 0 469.33334 290.66666"
   height="290.66666"
   width="469.33334"
   xml:space="preserve"
   id="svg2"
   version="1.1"><metadata
     id="metadata8"><rdf:RDF><cc:Work
         rdf:about=""><dc:format>image/svg+xml</dc:format><dc:type
           rdf:resource="http://purl.org/dc/dcmitype/StillImage" /></cc:Work></rdf:RDF></metadata><defs
     id="defs6" /><g
     transform="matrix(1.3333333,0,0,-1.3333333,0,290.66667)"
     id="g10"><g
       transform="scale(0.1)"
       id="g12"><path
         id="path14"
         style="fill:#b3b3b3;fill-opacity:1;fill-rule:nonzero;stroke:none"
         d="m 2295.66,1971.13 h 741.879 v 204.609 H 2295.66 Z" /><path
         id="path16"
         style="fill:none;stroke:#000000;stroke-width:8.50393963;stroke-linecap:butt;stroke-linejoin:miter;stroke-miterlimit:4;stroke-dasharray:none;stroke-opacity:1"
         d="m 2295.66,1971.13 h 741.879 v 204.609 H 2295.66 Z" /><path
         id="path18"
         style="fill:#b3b3b3;fill-opacity:1;fill-rule:nonzero;stroke:none"
         d="m 1150.55,1485.35 h 402.07 v 217.77 h -402.07 z" /><path
         id="path20"
         style="fill:none;stroke:#000000;stroke-width:8.50393963;stroke-linecap:butt;stroke-linejoin:miter;stroke-miterlimit:4;stroke-dasharray:none;stroke-opacity:1"
         d="m 1150.55,1485.35 h 402.07 v 217.77 h -402.07 z" /><path
         id="path22"
         style="fill:#ffffff;fill-opacity:1;fill-rule:nonzero;stroke:none"
         d="m 4.26172,1159.88 h 392.457 v 140 H 4.26172 Z" /><path
         id="path24"
         style="fill:none;stroke:#000000;stroke-width:8.50393963;stroke-linecap:butt;stroke-linejoin:miter;stroke-miterlimit:4;stroke-dasharray:none;stroke-opacity:1"
         d="m 4.26172,1159.88 h 392.457 v 140 H 4.26172 Z" /><path
         id="path26"
         style="fill:#ffffff;fill-opacity:1;fill-rule:nonzero;stroke:none"
         d="m 1283.83,1159.1 h 262.344 v 141.52 H 1283.83 Z" /><path
         id="path28"
         style="fill:none;stroke:#000000;stroke-width:6.99040985;stroke-linecap:butt;stroke-linejoin:miter;stroke-miterlimit:4;stroke-dasharray:none;stroke-opacity:1"
         d="m 1283.83,1159.1 h 262.344 v 141.52 H 1283.83 Z" /><g
         transform="scale(10)"
         id="g30"><text
           id="text34"
           style="font-variant:normal;font-size:6px;font-family:Helvetica;-inkscape-font-specification:f-0-0;writing-mode:lr-tb;fill:#000000;fill-opacity:1;fill-rule:nonzero;stroke:none"
           transform="matrix(1,0,0,-1,10.6527,120.329)"><tspan
             id="tspan32"
             y="0"
             x="0 4.0019999 7.3379998 10.674 12.689845 15.689845 128.584 130.252">Source.o</tspan></text>
</g><path
         id="path36"
         style="fill:#ffffff;fill-opacity:1;fill-rule:nonzero;stroke:none"
         d="m 4.26172,956.449 h 392.457 v 140 H 4.26172 Z" /><path
         id="path38"
         style="fill:none;stroke:#000000;stroke-width:8.50393963;stroke-linecap:butt;stroke-linejoin:miter;stroke-miterlimit:4;stroke-dasharray:none;stroke-opacity:1"
         d="m 4.26172,956.449 h 392.457 v 140 H 4.26172 Z" /><path
         id="path40"
         style="fill:#ffffff;fill-opacity:1;fill-rule:nonzero;stroke:none"
         d="m 1283.83,955.711 h 262.344 v 141.52 H 1283.83 Z" /><path
         id="path42"
         style="fill:none;stroke:#000000;stroke-width:6.99040985;stroke-linecap:butt;stroke-linejoin:miter;stroke-miterlimit:4;stroke-dasharray:none;stroke-opacity:1"
         d="m 1283.83,955.711 h 262.344 v 141.52 H 1283.83 Z" /><g
         transform="scale(10)"
         id="g44"><text
           id="text48"
           style="font-variant:normal;font-size:6px;font-family:Helvetica;-inkscape-font-specification:f-0-0;writing-mode:lr-tb;fill:#000000;fill-opacity:1;fill-rule:nonzero;stroke:none"
           transform="matrix(1,0,0,-1,10.6527,99.9879)"><tspan
             id="tspan46"
             y="0"
             x="0 4.0019999 7.3379998 10.674 12.689845 15.689845 128.584 130.252">Source.o</tspan></text>
</g><path
         id="path50"
         style="fill:#ffffff;fill-opacity:1;fill-rule:nonzero;stroke:none"
         d="m 4.26172,754.219 h 392.457 v 140 H 4.26172 Z" /><path
         id="path52"
         style="fill:none;stroke:#000000;stroke-width:8.50393963;stroke-linecap:butt;stroke-linejoin:miter;stroke-miterlimit:4;stroke-dasharray:none;stroke-opacity:1"
         d="m 4.26172,754.219 h 392.457 v 140 H 4.26172 Z" /><path
         id="path54"
         style="fill:#ffffff;fill-opacity:1;fill-rule:nonzero;stroke:none"
         d="m 1283.83,753.48 h 262.344 V 895 H 1283.83 Z" /><path
         id="path56"
         style="fill:none;stroke:#000000;stroke-width:6.99040985;stroke-linecap:butt;stroke-linejoin:miter;stroke-miterlimit:4;stroke-dasharray:none;stroke-opacity:1"
         d="m 1283.83,753.48 h 262.344 V 895 H 1283.83 Z" /><g
         transform="scale(10)"
         id="g58"><text
           id="text62"
           style="font-variant:normal;font-size:6px;font-family:Helvetica;-inkscape-font-specification:f-0-0;writing-mode:lr-tb;fill:#000000;fill-opacity:1;fill-rule:nonzero;stroke:none"
           transform="matrix(1,0,0,-1,10.6527,79.766)"><tspan
             id="tspan60"
             y="0"
             x="0 4.0019999 7.3379998 10.674 12.689845 15.689845 128.584 130.252">Source.o</tspan></text>
</g><path
         id="path64"
         style="fill:#ffffff;fill-opacity:1;fill-rule:nonzero;stroke:none"
         d="m 2360.27,902.609 h 542.031 v 240.512 H 2360.27 Z" /><path
         id="path66"
         style="fill:none;stroke:#000000;stroke-width:8.50393963;stroke-linecap:butt;stroke-linejoin:miter;stroke-miterlimit:4;stroke-dasharray:none;stroke-opacity:1"
         d="m 2360.27,902.609 h 542.031 v 240.512 H 2360.27 Z" /><path
         id="path68"
         style="fill:#ffffff;fill-opacity:1;fill-rule:nonzero;stroke:none"
         d="m 2365.08,419.219 h 536.047 V 556.801 H 2365.08 Z" /><path
         id="path70"
         style="fill:none;stroke:#000000;stroke-width:8.50393963;stroke-linecap:butt;stroke-linejoin:miter;stroke-miterlimit:4;stroke-dasharray:none;stroke-opacity:1"
         d="m 2365.08,419.219 h 536.047 V 556.801 H 2365.08 Z" /><path
         id="path72"
         style="fill:#ffffff;fill-opacity:1;fill-rule:nonzero;stroke:none"
         d="m 1282.19,416.801 h 264.41 v 140 h -264.41 z" /><path
         id="path74"
         style="fill:none;stroke:#000000;stroke-width:8.50393963;stroke-linecap:butt;stroke-linejoin:miter;stroke-miterlimit:4;stroke-dasharray:none;stroke-opacity:1"
         d="m 1282.19,416.801 h 264.41 v 140 h -264.41 z" /><g
         transform="scale(10)"
         id="g76"><text
           id="text80"
           style="font-variant:normal;font-size:6px;font-family:Helvetica;-inkscape-font-specification:f-0-0;writing-mode:lr-tb;fill:#000000;fill-opacity:1;fill-rule:nonzero;stroke:none"
           transform="matrix(1,0,0,-1,137.063,45.8688)"><tspan
             id="tspan78"
             y="0"
             x="0 1.668 3 4.3319998">.lib</tspan></text>
</g><path
         id="path82"
         style="fill:#ffffff;fill-opacity:1;fill-rule:nonzero;stroke:none"
         d="m 1282.19,214.57 h 264.41 v 140 h -264.41 z" /><path
         id="path84"
         style="fill:none;stroke:#000000;stroke-width:8.50393963;stroke-linecap:butt;stroke-linejoin:miter;stroke-miterlimit:4;stroke-dasharray:none;stroke-opacity:1"
         d="m 1282.19,214.57 h 264.41 v 140 h -264.41 z" /><g
         transform="scale(10)"
         id="g86"><text
           id="text90"
           style="font-variant:normal;font-size:6px;font-family:Helvetica;-inkscape-font-specification:f-0-0;writing-mode:lr-tb;fill:#000000;fill-opacity:1;fill-rule:nonzero;stroke:none"
           transform="matrix(1,0,0,-1,137.063,25.6469)"><tspan
             id="tspan88"
             y="0"
             x="0 1.668 3 4.3319998">.lib</tspan></text>
</g><path
         id="path92"
         style="fill:#ffffff;fill-opacity:1;fill-rule:nonzero;stroke:none"
         d="m 1282.19,11.1719 h 264.41 v 140 h -264.41 z" /><path
         id="path94"
         style="fill:none;stroke:#000000;stroke-width:8.50393963;stroke-linecap:butt;stroke-linejoin:miter;stroke-miterlimit:4;stroke-dasharray:none;stroke-opacity:1"
         d="m 1282.19,11.1719 h 264.41 v 140 h -264.41 z" /><g
         transform="scale(10)"
         id="g96"><text
           id="text140"
           style="font-variant:normal;font-size:6px;font-family:Helvetica;-inkscape-font-specification:f-0-0;writing-mode:lr-tb;fill:#000000;fill-opacity:1;fill-rule:nonzero;stroke:none"
           transform="matrix(1,0,0,-1,137.063,5.30508)"><tspan
             id="tspan98"
             y="0"
             x="0 1.668 3 4.3319998">.lib</tspan><tspan
             id="tspan100"
             y="-195.39799"
             x="-118.331 -114.329 -112.997 -109.661 -107.993 -106.325 -102.989 -100.97319 -95.975189 -93.977188 -90.977188 -87.64119 -84.287247 -81.287247 -79.955246 -78.287247 -76.955246 -73.955246 -72.287247 -68.951248 -65.61525 -63.94725 -60.611248 -58.943249 -57.611248">Platform-specific data is</tspan><tspan
             id="tspan102"
             y="-189.39799"
             x="-118.331 -114.995 -111.995 -108.659 -105.323 -103.655 -100.319 -97.319 -95.651001 -93.983002 -90.647003 -87.310997 -85.642998 -82.306999 -78.971001 -75.971001 -74.303001 -72.635002 -71.303001 -69.952873 -66.616875 -63.616871 -60.280872 -58.282871 -56.614872 -54.946873 -53.278873 -49.942871">used by the post linker, for</tspan><tspan
             id="tspan104"
             y="-183.39799"
             x="-118.331 -114.995 -111.995 -108.659 -103.661 -100.30717 -98.975174 -95.639168 -93.971169 -92.303169 -90.63517 -87.299171 -85.631172 -82.295174 -78.959175 -77.627174 -74.291168 -72.623169 -69.28717 -65.951172 -64.601303 -63.269306 -60.269306 -56.933308 -55.265308 -53.597305 -50.261307">example, to help police the</tspan><tspan
             id="tspan106"
             y="-177.39799"
             x="-118.331 -116.663 -113.327 -111.329 -107.993 -104.993 -101.657 -99.641151 -96.305153 -92.969154 -89.969154 -86.969154 -85.301155 -81.965157 -80.29715 -78.62915 -74.29715 -70.295151">foreverness of DSO</tspan><tspan
             id="tspan108"
             y="-171.39799"
             x="-118.331 -116.999 -113.663 -111.995 -108.659 -106.661 -104.993 -101.657 -98.656998 -95.302872">interfaces</tspan><tspan
             id="tspan110"
             y="-205.0898"
             x="17.239 21.240999 22.909 26.245001 27.577 30.913 32.581001 34.249001 37.584999 39.601116 44.599113 46.597115 49.597115 52.933117 56.28706 59.28706 60.619061 62.28706 63.619061">A platform-specific</tspan><tspan
             id="tspan112"
             y="-199.0898"
             x="17.239 20.575001 23.910999 26.910999 28.579 30.247 31.579 32.910999 36.247002 39.247002 42.601116 44.599113 46.267117 49.603115 52.939114 56.275116 59.611115 61.627293 64.963295 66.631294 69.967293">post linker generates</tspan><tspan
             id="tspan114"
             y="-193.0898"
             x="17.239 18.907 22.243 25.579 27.247 30.583 31.915001 35.250999 36.918999 38.587002 41.923 43.921001 48.937054 50.935055 53.935055 57.271053 60.607056 63.607056 64.956978 66.624977 67.956978">the platform-specific</tspan><tspan
             id="tspan116"
             y="-187.0898"
             x="17.239 20.575001 23.575001 26.910999 29.910999 33.247002 34.915001 38.250999 41.605019 42.937019 46.273018 47.941017 49.609016 52.945019 54.943016 59.941017 63.294865">executable format</tspan><tspan
             id="tspan118"
             y="-113.7925"
             x="163.698 167.7 171.036 176.0519 179.38789 181.05589 184.39189 185.72389 189.05989 190.72789 192.39589 195.7319 197.72989 202.74603">Some platform-</tspan><tspan
             id="tspan120"
             y="-107.7925"
             x="163.698 166.698 170.034 173.37 176.37 177.702 179.37 180.702 183.702 185.37 188.70599 191.70599 195.06012 198.39612 201.39612 203.06412">specific aspects</tspan><tspan
             id="tspan122"
             y="-101.7925"
             x="163.698 165.696 169.032 172.032 175.368 176.71793 178.38593 180.05392 181.72192 183.71992 187.05592 192.05392 193.72192 197.05792 200.05792 201.38992 204.72592">result from using</tspan><tspan
             id="tspan124"
             y="-95.792503"
             x="163.698 167.034 168.366 171.702 173.37 175.03799 178.37399 180.37199 185.38785 187.38585 190.38585 193.72185 197.05785 200.05785 201.40776 203.07576 204.40776">platform-specific</tspan><tspan
             id="tspan126"
             y="-89.792503"
             x="163.698 166.698 170.034 175.032 178.368 179.71793 181.04993 184.38593 186.38393 188.05193 191.38792 194.74174 198.07774 199.74574 201.07774 202.40974 205.74574 208.74574 212.08174">compiler and linker</tspan><tspan
             id="tspan128"
             y="-83.792503"
             x="163.698 167.034 170.37 172.03799 173.37 176.70599 180.06012 183.06012 184.72812 186.39612">options...</tspan><tspan
             id="tspan130"
             y="-41.041698"
             x="163.57848 167.58047 169.57848 172.93236 175.93236 177.26436 180.60036 183.93637 186.93637 188.26837">Previously</tspan><tspan
             id="tspan132"
             y="-35.041698"
             x="163.57848 164.91046 166.24246 169.57848 172.57848 175.93236 179.26837 180.93637 185.26837 189.27037 193.93837">linked DSOs</tspan><tspan
             id="tspan134"
             y="-29.0417"
             x="163.57848 166.91447 169.91447 173.25047 176.58647 178.25447 181.59047 184.59047 186.25847 187.92647 191.26247 192.59447">used by this</tspan><tspan
             id="tspan136"
             y="-23.0417"
             x="163.57848 167.91046 171.91248 176.58047 178.24847 179.91647">DSO...</tspan><tspan
             id="tspan138"
             y="-41.041698"
             x="108.87147 112.87347 116.87547 118.54347 122.54547 126.56561 128.23361 129.90161 134.23361 138.23561">BP ABI DSO</tspan></text>
</g><path
         id="path142"
         style="fill:#ffffff;fill-opacity:1;fill-rule:nonzero;stroke:none"
         d="m 2365.08,215.781 h 536.047 V 353.398 H 2365.08 Z" /><path
         id="path144"
         style="fill:none;stroke:#000000;stroke-width:8.50393963;stroke-linecap:butt;stroke-linejoin:miter;stroke-miterlimit:4;stroke-dasharray:none;stroke-opacity:1"
         d="m 2365.08,215.781 h 536.047 V 353.398 H 2365.08 Z" /><g
         transform="scale(10)"
         id="g146"><text
           id="text154"
           style="font-variant:normal;font-size:6px;font-family:Helvetica;-inkscape-font-specification:f-0-0;writing-mode:lr-tb;fill:#000000;fill-opacity:1;fill-rule:nonzero;stroke:none"
           transform="matrix(1,0,0,-1,245.935,26.0059)"><tspan
             id="tspan148"
             y="0"
             x="0 4.0019999 8.0039997 9.6719999 13.674 17.694139 19.362139 21.03014 25.362139 29.36414">BP ABI DSO</tspan><tspan
             id="tspan150"
             y="-77.417198"
             x="-0.35898399 3.6430161 7.6450162 9.3130159 13.315016 17.335155 19.003155 20.671156 25.003155 29.005156">BP ABI DSO</tspan><tspan
             id="tspan152"
             y="-71.417198"
             x="-1.366794 1.969206 3.967206 5.6352062 8.9712057 11.971206 15.307206 18.307205 21.661322 23.329321 26.665321 30.001322 31.333321">or executable</tspan></text>
</g><path
         id="path156"
         style="fill:#ffffff;fill-opacity:1;fill-rule:nonzero;stroke:none"
         d="m 1016.52,1024.65 c 0,-73.361 -90.782,-132.81 -202.809,-132.81 -111.992,0 -202.813,59.449 -202.813,132.81 0,73.36 90.821,132.81 202.813,132.81 112.027,0 202.809,-59.45 202.809,-132.81 z" /><path
         id="path158"
         style="fill:none;stroke:#000000;stroke-width:8.50393963;stroke-linecap:butt;stroke-linejoin:miter;stroke-miterlimit:4;stroke-dasharray:none;stroke-opacity:1"
         d="m 1016.52,1024.65 c 0,-73.361 -90.782,-132.81 -202.809,-132.81 -111.992,0 -202.813,59.449 -202.813,132.81 0,73.36 90.821,132.81 202.813,132.81 112.027,0 202.809,-59.45 202.809,-132.81 z" /><path
         id="path160"
         style="fill:#ffffff;fill-opacity:1;fill-rule:nonzero;stroke:none"
         d="m 2162.85,1026.45 c 0,-78.329 -90.27,-141.802 -201.64,-141.802 -111.33,0 -201.6,63.473 -201.6,141.802 0,78.32 90.27,141.79 201.6,141.79 111.37,0 201.64,-63.47 201.64,-141.79 z" /><path
         id="path162"
         style="fill:none;stroke:#000000;stroke-width:8.50393963;stroke-linecap:butt;stroke-linejoin:miter;stroke-miterlimit:4;stroke-dasharray:none;stroke-opacity:1"
         d="m 2162.85,1026.45 c 0,-78.329 -90.27,-141.802 -201.64,-141.802 -111.33,0 -201.6,63.473 -201.6,141.802 0,78.32 90.27,141.79 201.6,141.79 111.37,0 201.64,-63.47 201.64,-141.79 z" /><path
         id="path164"
         style="fill:#b3b3b3;fill-opacity:1;fill-rule:nonzero;stroke:none"
         d="m 2903.52,1599.61 c 0,-92.85 -121.06,-168.13 -270.43,-168.13 -149.34,0 -270.43,75.28 -270.43,168.13 0,92.85 121.09,168.12 270.43,168.12 149.37,0 270.43,-75.27 270.43,-168.12 z" /><path
         id="path166"
         style="fill:none;stroke:#000000;stroke-width:8.50393963;stroke-linecap:butt;stroke-linejoin:miter;stroke-miterlimit:4;stroke-dasharray:none;stroke-opacity:1"
         d="m 2903.52,1599.61 c 0,-92.85 -121.06,-168.13 -270.43,-168.13 -149.34,0 -270.43,75.28 -270.43,168.13 0,92.85 121.09,168.12 270.43,168.12 149.37,0 270.43,-75.27 270.43,-168.12 z" /><g
         transform="scale(10)"
         id="g168"><text
           id="text194"
           style="font-variant:normal;font-size:6px;font-family:Helvetica;-inkscape-font-specification:f-0-0;writing-mode:lr-tb;fill:#000000;fill-opacity:1;fill-rule:nonzero;stroke:none"
           transform="matrix(1,0,0,-1,240.248,209.558)"><tspan
             id="tspan170"
             y="0"
             x="0 4.0019999 5.3340001 8.6700001 10.338 12.006 15.342 17.357822 22.355822 24.023823 27.359823 30.359823 33.695824 36.695824 40.031822 41.699821 45.035824 48.371822 49.721889">Platform executable</tspan><tspan
             id="tspan172"
             y="6"
             x="5.0039101 8.3399096 10.33791 12.00591 15.00591 18.341909 21.67791 23.693756 27.029757 30.365757 32.033756 35.369759 38.705757 40.05587 43.391872 46.391872">or shared object</tspan><tspan
             id="tspan174"
             y="48.700001"
             x="16.337509 20.33951 23.67551 26.67551">Post</tspan><tspan
             id="tspan176"
             y="54.700001"
             x="15.16563 16.497629 17.82963 21.16563 24.16563 27.519526">linker</tspan><tspan
             id="tspan178"
             y="49.776951"
             x="-116.38937 -112.38737 -111.05537 -107.71937 -106.05137 -104.38337 -101.04737 -99.031563">Platform</tspan><tspan
             id="tspan180"
             y="55.776951"
             x="-111.05148 -107.71548 -104.37948 -102.71148">data</tspan><tspan
             id="tspan182"
             y="109.00625"
             x="-170.95308 -166.62108 -163.28508 -158.28708 -154.93315 -153.60115 -152.26915 -148.93315">Compiler</tspan><tspan
             id="tspan184"
             y="106.37422"
             x="-52.289082 -48.287079 -46.61908 -43.283081 -41.615082 -40.283081">Static</tspan><tspan
             id="tspan186"
             y="112.37422"
             x="-51.960957 -50.628956 -49.296955 -45.960957 -42.960957 -39.607048">linker</tspan><tspan
             id="tspan188"
             y="169.55232"
             x="-170.18295 -166.18095 -164.51295 -161.17696 -159.50896 -158.17696 -155.17696 -153.50896 -152.17696 -150.84496 -147.50896 -145.4931 -142.1571 -140.1591 -138.80913 -135.47311">Static libraries</tspan><tspan
             id="tspan190"
             y="175.55232"
             x="-170.18295 -166.84695 -163.51096 -161.51295 -159.84496 -158.17696 -156.84496 -153.50896 -150.50896 -149.15913 -145.82312 -142.48712 -139.15112 -135.81512 -134.14713 -132.81512">part included in</tspan><tspan
             id="tspan192"
             y="181.55232"
             x="-170.18295 -168.51495 -165.17896 -163.84695 -160.84695 -159.17896 -154.84695 -150.84496 -146.17696 -144.50896 -142.84096">this DSO...</tspan></text>
</g><path
         id="path196"
         style="fill:none;stroke:#000000;stroke-width:7.5;stroke-linecap:butt;stroke-linejoin:miter;stroke-miterlimit:4;stroke-dasharray:none;stroke-opacity:1"
         d="m 405.078,1230.47 h 70.621 V 826.02 h -70.621" /><path
         id="path198"
         style="fill:none;stroke:#000000;stroke-width:7.51180983;stroke-linecap:butt;stroke-linejoin:miter;stroke-miterlimit:4;stroke-dasharray:none;stroke-opacity:1"
         d="M 405.078,1028.24 H 592.969" /><path
         id="path200"
         style="fill:#000000;fill-opacity:1;fill-rule:evenodd;stroke:none"
         d="m 553.672,1046.41 49.219,-18.09 -49.219,-18.12 c 7.848,10.7 7.808,25.31 0,36.21 z" /><path
         id="path202"
         style="fill:none;stroke:#000000;stroke-width:2.81693006;stroke-linecap:butt;stroke-linejoin:round;stroke-miterlimit:4;stroke-dasharray:none;stroke-opacity:1"
         d="m 553.672,1046.4 49.219,-18.08 -49.219,-18.13 c 7.848,10.71 7.808,25.32 0,36.21 z" /><path
         id="path204"
         style="fill:none;stroke:#000000;stroke-width:7.51180983;stroke-linecap:butt;stroke-linejoin:miter;stroke-miterlimit:4;stroke-dasharray:none;stroke-opacity:1"
         d="m 1033.28,1028.24 h 171.13" /><path
         id="path206"
         style="fill:#000000;fill-opacity:1;fill-rule:evenodd;stroke:none"
         d="m 1165.12,1046.41 49.22,-18.09 -49.22,-18.12 c 7.85,10.7 7.81,25.31 0,36.21 z" /><path
         id="path208"
         style="fill:none;stroke:#000000;stroke-width:2.81693006;stroke-linecap:butt;stroke-linejoin:round;stroke-miterlimit:4;stroke-dasharray:none;stroke-opacity:1"
         d="m 1165.12,1046.41 49.22,-18.09 -49.22,-18.12 c 7.85,10.7 7.81,25.31 0,36.21 z" /><path
         id="path210"
         style="fill:none;stroke:#000000;stroke-width:7.5;stroke-linecap:butt;stroke-linejoin:miter;stroke-miterlimit:4;stroke-dasharray:none;stroke-opacity:1"
         d="M 1169.69,1028.24 H 1275" /><path
         id="path212"
         style="fill:none;stroke:#000000;stroke-width:7.5;stroke-linecap:butt;stroke-linejoin:miter;stroke-miterlimit:4;stroke-dasharray:none;stroke-opacity:1"
         d="m 1275,1231.68 h -56.25 V 823.629 H 1275" /><path
         id="path214"
         style="fill:none;stroke:#000000;stroke-width:7.5;stroke-linecap:butt;stroke-linejoin:miter;stroke-miterlimit:4;stroke-dasharray:none;stroke-opacity:1"
         d="m 1553.79,1231.68 h 68.2 V 823.629 h -68.2" /><path
         id="path216"
         style="fill:none;stroke:#000000;stroke-width:7.51180983;stroke-linecap:butt;stroke-linejoin:miter;stroke-miterlimit:4;stroke-dasharray:none;stroke-opacity:1"
         d="m 1553.79,1028.24 h 187.85" /><path
         id="path218"
         style="fill:#000000;fill-opacity:1;fill-rule:evenodd;stroke:none"
         d="m 1702.34,1046.45 49.26,-18.13 -49.26,-18.12 c 7.89,10.7 7.86,25.35 0,36.25 z" /><path
         id="path220"
         style="fill:none;stroke:#000000;stroke-width:2.81693006;stroke-linecap:butt;stroke-linejoin:round;stroke-miterlimit:4;stroke-dasharray:none;stroke-opacity:1"
         d="m 1702.35,1046.45 49.25,-18.13 -49.26,-18.12 c 7.9,10.69 7.86,25.35 0.01,36.25 z" /><path
         id="path222"
         style="fill:none;stroke:#000000;stroke-width:7.51180983;stroke-linecap:butt;stroke-linejoin:miter;stroke-miterlimit:4;stroke-dasharray:none;stroke-opacity:1"
         d="m 2173.59,1028.24 h 166.33" /><path
         id="path224"
         style="fill:#000000;fill-opacity:1;fill-rule:evenodd;stroke:none"
         d="m 2300.62,1046.45 49.26,-18.13 -49.26,-18.12 c 7.9,10.7 7.86,25.35 0,36.25 z" /><path
         id="path226"
         style="fill:none;stroke:#000000;stroke-width:2.81693006;stroke-linecap:butt;stroke-linejoin:round;stroke-miterlimit:4;stroke-dasharray:none;stroke-opacity:1"
         d="m 2300.62,1046.45 49.26,-18.13 -49.26,-18.12 c 7.9,10.7 7.86,25.35 0,36.25 z" /><path
         id="path228"
         style="fill:none;stroke:#000000;stroke-width:7.51180983;stroke-linecap:butt;stroke-linejoin:miter;stroke-miterlimit:4;stroke-dasharray:none;stroke-opacity:1"
         d="m 1587.3,1584.65 h 745.47" /><path
         id="path230"
         style="fill:#000000;fill-opacity:1;fill-rule:evenodd;stroke:none"
         d="m 1617.34,1584.65 15.04,15.04 -52.58,-15.04 52.58,-15.04 z" /><path
         id="path232"
         style="fill:none;stroke:#000000;stroke-width:4.00629997;stroke-linecap:butt;stroke-linejoin:miter;stroke-miterlimit:4;stroke-dasharray:none;stroke-opacity:1"
         d="m 1617.34,1584.65 15.04,15.04 -52.58,-15.04 52.58,-15.04 z" /><path
         id="path234"
         style="fill:#000000;fill-opacity:1;fill-rule:evenodd;stroke:none"
         d="m 2293.48,1602.81 49.22,-18.08 -49.22,-18.13 c 7.85,10.7 7.81,25.31 0,36.21 z" /><path
         id="path236"
         style="fill:none;stroke:#000000;stroke-width:2.81693006;stroke-linecap:butt;stroke-linejoin:round;stroke-miterlimit:4;stroke-dasharray:none;stroke-opacity:1"
         d="m 2293.48,1602.81 49.22,-18.08 -49.22,-18.13 c 7.85,10.7 7.81,25.31 0,36.21 z" /><path
         id="path238"
         style="fill:none;stroke:#000000;stroke-width:7.51180983;stroke-linecap:butt;stroke-linejoin:miter;stroke-miterlimit:4;stroke-dasharray:none;stroke-opacity:1"
         d="m 2631.91,1155.08 v 258.47" /><path
         id="path240"
         style="fill:#000000;fill-opacity:1;fill-rule:evenodd;stroke:none"
         d="m 2613.71,1374.26 18.13,49.22 18.08,-49.22 c -10.66,7.85 -25.31,7.81 -36.21,0 z" /><path
         id="path242"
         style="fill:none;stroke:#000000;stroke-width:2.81693006;stroke-linecap:butt;stroke-linejoin:round;stroke-miterlimit:4;stroke-dasharray:none;stroke-opacity:1"
         d="m 2613.71,1374.26 18.13,49.22 18.08,-49.22 c -10.66,7.85 -25.31,7.81 -36.21,0 z" /><path
         id="path244"
         style="fill:none;stroke:#000000;stroke-width:7.51180983;stroke-linecap:butt;stroke-linejoin:miter;stroke-miterlimit:4;stroke-dasharray:none;stroke-opacity:1"
         d="m 2631.91,1778.48 v 173.51" /><path
         id="path246"
         style="fill:#000000;fill-opacity:1;fill-rule:evenodd;stroke:none"
         d="m 2613.71,1912.7 18.13,49.25 18.08,-49.25 c -10.66,7.85 -25.31,7.81 -36.21,0 z" /><path
         id="path248"
         style="fill:none;stroke:#000000;stroke-width:2.81693006;stroke-linecap:butt;stroke-linejoin:round;stroke-miterlimit:4;stroke-dasharray:none;stroke-opacity:1"
         d="m 2613.71,1912.7 18.13,49.25 18.08,-49.25 c -10.66,7.85 -25.31,7.81 -36.21,0 z" /><path
         id="path250"
         style="fill:none;stroke:#000000;stroke-width:7.5;stroke-linecap:butt;stroke-linejoin:miter;stroke-miterlimit:4;stroke-dasharray:none;stroke-opacity:1"
         d="m 1555,489.801 h 63.4 V 81.7617 H 1555" /><path
         id="path252"
         style="fill:none;stroke:#000000;stroke-width:7.5;stroke-linecap:butt;stroke-linejoin:miter;stroke-miterlimit:4;stroke-dasharray:none;stroke-opacity:1"
         d="m 1555,285.199 h 61.02" /><path
         id="path254"
         style="fill:none;stroke:#000000;stroke-width:7.51180983;stroke-linecap:butt;stroke-linejoin:miter;stroke-miterlimit:4;stroke-dasharray:none;stroke-opacity:1"
         d="m 1618.4,489.801 213.01,399.648" /><path
         id="path256"
         style="fill:#000000;fill-opacity:1;fill-rule:evenodd;stroke:none"
         d="m 1796.88,863.32 39.14,34.918 -7.19,-51.949 c -5.74,11.949 -18.67,18.789 -31.95,17.031 z" /><path
         id="path258"
         style="fill:none;stroke:#000000;stroke-width:2.81693006;stroke-linecap:butt;stroke-linejoin:round;stroke-miterlimit:4;stroke-dasharray:none;stroke-opacity:1"
         d="m 1796.87,863.324 39.14,34.918 -7.18,-51.949 c -5.74,11.945 -18.67,18.785 -31.96,17.031 z" /><path
         id="path260"
         style="fill:none;stroke:#000000;stroke-width:7.5;stroke-linecap:butt;stroke-linejoin:miter;stroke-miterlimit:4;stroke-dasharray:none;stroke-opacity:1"
         d="m 2355.51,487.422 h -58.63 V 286.371 h 58.63" /><path
         id="path262"
         style="fill:none;stroke:#000000;stroke-width:7.51180983;stroke-linecap:butt;stroke-linejoin:miter;stroke-miterlimit:4;stroke-dasharray:none;stroke-opacity:1"
         d="M 2296.88,487.422 2037.19,875.078" /><path
         id="path264"
         style="fill:#000000;fill-opacity:1;fill-rule:evenodd;stroke:none"
         d="m 2043.98,832.301 -12.38,51.019 42.46,-30.859 c -13.28,0.59 -25.39,-7.582 -30.08,-20.16 z" /><path
         id="path266"
         style="fill:none;stroke:#000000;stroke-width:2.81693006;stroke-linecap:butt;stroke-linejoin:round;stroke-miterlimit:4;stroke-dasharray:none;stroke-opacity:1"
         d="m 2043.98,832.301 -12.38,51.015 42.47,-30.851 c -13.28,0.578 -25.41,-7.582 -30.09,-20.164 z" /></g></g></svg>