<?xml version="1.0" encoding="UTF-8" standalone="no"?>
<svg
   xmlns:dc="http://purl.org/dc/elements/1.1/"
   xmlns:cc="http://creativecommons.org/ns#"
   xmlns:rdf="http://www.w3.org/1999/02/22-rdf-syntax-ns#"
   xmlns:svg="http://www.w3.org/2000/svg"
   xmlns="http://www.w3.org/2000/svg"
   viewBox="0 0 466.66666 233.33333"
   height="233.33333"
   width="466.66666"
   xml:space="preserve"
   id="svg2"
   version="1.1"><metadata
     id="metadata8"><rdf:RDF><cc:Work
         rdf:about=""><dc:format>image/svg+xml</dc:format><dc:type
           rdf:resource="http://purl.org/dc/dcmitype/StillImage" /></cc:Work></rdf:RDF></metadata><defs
     id="defs6" /><g
     transform="matrix(1.3333333,0,0,-1.3333333,0,233.33333)"
     id="g10"><g
       transform="scale(0.1)"
       id="g12"><path
         id="path14"
         style="fill:#ffffff;fill-opacity:1;fill-rule:nonzero;stroke:none"
         d="m 4.26172,1187.62 h 358.398 v 375.777 H 4.26172 Z" /><path
         id="path16"
         style="fill:none;stroke:#090000;stroke-width:8.50393963;stroke-linecap:butt;stroke-linejoin:miter;stroke-miterlimit:4;stroke-dasharray:none;stroke-opacity:1"
         d="m 4.26172,1187.62 h 358.398 v 375.777 H 4.26172 Z" /><path
         id="path18"
         style="fill:#c4ffc2;fill-opacity:1;fill-rule:nonzero;stroke:none"
         d="m 541.289,1189.96 h 810.699 v 375.738 H 541.289 Z" /><path
         id="path20"
         style="fill:none;stroke:#090000;stroke-width:8.52978992;stroke-linecap:butt;stroke-linejoin:miter;stroke-miterlimit:4;stroke-dasharray:none;stroke-opacity:1"
         d="m 541.289,1189.96 h 810.699 v 375.738 H 541.289 Z" /><path
         id="path22"
         style="fill:#ffffff;fill-opacity:1;fill-rule:nonzero;stroke:none"
         d="m 1352.03,1189.96 h 270.23 v 375.738 h -270.23 z" /><path
         id="path24"
         style="fill:none;stroke:#090000;stroke-width:8.52952957;stroke-linecap:butt;stroke-linejoin:miter;stroke-miterlimit:4;stroke-dasharray:25.5886, 25.5886;stroke-dashoffset:0;stroke-opacity:1"
         d="m 1352.03,1189.96 h 270.23 v 375.738 h -270.23 z" /><path
         id="path26"
         style="fill:#c4ffc2;fill-opacity:1;fill-rule:nonzero;stroke:none"
         d="m 1839.18,1188.79 h 813.051 v 375.781 H 1839.18 Z" /><path
         id="path28"
         style="fill:none;stroke:#090000;stroke-width:8.51679993;stroke-linecap:butt;stroke-linejoin:miter;stroke-miterlimit:4;stroke-dasharray:none;stroke-opacity:1"
         d="m 1839.18,1188.79 h 813.051 v 375.781 H 1839.18 Z" /><path
         id="path30"
         style="fill:#ffffff;fill-opacity:1;fill-rule:nonzero;stroke:none"
         d="m 2652.23,1188.79 h 264.449 v 375.781 H 2652.23 Z" /><path
         id="path32"
         style="fill:none;stroke:#090000;stroke-width:8.51665974;stroke-linecap:butt;stroke-linejoin:miter;stroke-miterlimit:4;stroke-dasharray:25.55, 25.55;stroke-dashoffset:0;stroke-opacity:1"
         d="m 2652.23,1188.79 h 264.449 v 375.781 H 2652.23 Z" /><path
         id="path34"
         style="fill:#c4ffc2;fill-opacity:1;fill-rule:nonzero;stroke:none"
         d="m 2916.68,1188.79 h 542.809 v 375.781 H 2916.68 Z" /><path
         id="path36"
         style="fill:none;stroke:#090000;stroke-width:8.51675987;stroke-linecap:butt;stroke-linejoin:miter;stroke-miterlimit:4;stroke-dasharray:25.5503, 25.5503;stroke-dashoffset:0;stroke-opacity:1"
         d="m 2916.68,1188.79 h 542.809 v 375.781 H 2916.68 Z" /><path
         id="path38"
         style="fill:#fec187;fill-opacity:1;fill-rule:nonzero;stroke:none"
         d="m 543.59,10.3516 h 2944.88 v 938.32 H 543.59 Z" /><path
         id="path40"
         style="fill:none;stroke:#090000;stroke-width:8.50393963;stroke-linecap:butt;stroke-linejoin:miter;stroke-miterlimit:4;stroke-dasharray:none;stroke-opacity:1"
         d="m 543.59,10.3516 h 2944.88 v 938.32 H 543.59 Z" /><path
         id="path42"
         style="fill:#ffffff;fill-opacity:1;fill-rule:nonzero;stroke:none"
         d="m 1124.69,579.84 705.19,597.35" /><path
         id="path44"
         style="fill:none;stroke:#000000;stroke-width:7.5;stroke-linecap:butt;stroke-linejoin:miter;stroke-miterlimit:4;stroke-dasharray:none;stroke-opacity:1"
         d="m 1124.69,579.84 705.19,597.35" /><path
         id="path46"
         style="fill:#ffffff;fill-opacity:1;fill-rule:evenodd;stroke:none"
         d="m 1806.99,1157.77 -1.76,-21.13 30.36,45.39 -49.73,-22.5 z" /><path
         id="path48"
         style="fill:none;stroke:#000000;stroke-width:4;stroke-linecap:butt;stroke-linejoin:miter;stroke-miterlimit:4;stroke-dasharray:none;stroke-opacity:1"
         d="m 1806.99,1157.77 -1.75,-21.13 30.34,45.39 -49.72,-22.51 z" /><path
         id="path50"
         style="fill:none;stroke:#000000;stroke-width:7.5;stroke-linecap:butt;stroke-linejoin:miter;stroke-miterlimit:4;stroke-dasharray:none;stroke-opacity:1"
         d="M 812.699,577.539 V 1167.89" /><path
         id="path52"
         style="fill:#000000;fill-opacity:1;fill-rule:evenodd;stroke:none"
         d="m 812.699,1137.89 15,-15 -15,52.5 -15,-52.5 z" /><path
         id="path54"
         style="fill:none;stroke:#000000;stroke-width:4;stroke-linecap:butt;stroke-linejoin:miter;stroke-miterlimit:4;stroke-dasharray:none;stroke-opacity:1"
         d="m 812.699,1137.89 15,-15 -15,52.5 -15,-52.5 z" /><path
         id="path56"
         style="fill:#ffffff;fill-opacity:1;fill-rule:nonzero;stroke:none"
         d="m 679.301,676.141 h 2294.22 v 168.16 H 679.301 Z" /><path
         id="path58"
         style="fill:none;stroke:#090000;stroke-width:8.50393963;stroke-linecap:butt;stroke-linejoin:miter;stroke-miterlimit:4;stroke-dasharray:none;stroke-opacity:1"
         d="m 679.301,676.141 h 2294.22 v 168.16 H 679.301 Z" /><path
         id="path60"
         style="fill:#ffffff;fill-opacity:1;fill-rule:nonzero;stroke:none"
         d="M 678.121,411.68 H 1383.32 V 571.719 H 678.121 Z" /><path
         id="path62"
         style="fill:none;stroke:#090000;stroke-width:8.50393963;stroke-linecap:butt;stroke-linejoin:miter;stroke-miterlimit:4;stroke-dasharray:25.5118, 25.5118;stroke-dashoffset:0;stroke-opacity:1"
         d="M 678.121,411.68 H 1383.32 V 571.719 H 678.121 Z" /><path
         id="path64"
         style="fill:#ffffff;fill-opacity:1;fill-rule:nonzero;stroke:none"
         d="m 1459.88,248.121 h 702.891 v 169.34 H 1459.88 Z" /><path
         id="path66"
         style="fill:none;stroke:#090000;stroke-width:8.50393963;stroke-linecap:butt;stroke-linejoin:miter;stroke-miterlimit:4;stroke-dasharray:25.5118, 25.5118;stroke-dashoffset:0;stroke-opacity:1"
         d="m 1459.88,248.121 h 702.891 v 169.34 H 1459.88 Z" /><path
         id="path68"
         style="fill:#ffffff;fill-opacity:1;fill-rule:nonzero;stroke:none"
         d="m 2274.1,90.3906 h 695.938 v 158.91 H 2274.1 Z" /><path
         id="path70"
         style="fill:none;stroke:#090000;stroke-width:8.50393963;stroke-linecap:butt;stroke-linejoin:miter;stroke-miterlimit:4;stroke-dasharray:25.5118, 25.5118;stroke-dashoffset:0;stroke-opacity:1"
         d="m 2274.1,90.3906 h 695.938 v 158.91 H 2274.1 Z" /><path
         id="path72"
         style="fill:none;stroke:#000000;stroke-width:7.51180983;stroke-linecap:butt;stroke-linejoin:miter;stroke-miterlimit:4;stroke-dasharray:none;stroke-opacity:1"
         d="M 217.66,1564.57 V 1696.8 H 1919.18 V 1583.12" /><path
         id="path74"
         style="fill:#000000;fill-opacity:1;fill-rule:evenodd;stroke:none"
         d="m 1937.38,1622.42 -18.12,-49.22 -18.09,49.22 c 10.67,-7.85 25.31,-7.81 36.21,0 z" /><path
         id="path76"
         style="fill:none;stroke:#000000;stroke-width:2.81693006;stroke-linecap:butt;stroke-linejoin:round;stroke-miterlimit:4;stroke-dasharray:none;stroke-opacity:1"
         d="m 1937.38,1622.42 -18.12,-49.22 -18.09,49.22 c 10.67,-7.85 25.31,-7.81 36.21,0 z" /><path
         id="path78"
         style="fill:none;stroke:#000000;stroke-width:7.5;stroke-linecap:butt;stroke-linejoin:miter;stroke-miterlimit:4;stroke-dasharray:none;stroke-opacity:1"
         d="m 273.359,1564.57 v 78.87 H 598.09 v -56.84" /><path
         id="path80"
         style="fill:#000000;fill-opacity:1;fill-rule:evenodd;stroke:none"
         d="m 598.09,1616.6 -15,15 15,-52.5 15,52.5 z" /><path
         id="path82"
         style="fill:none;stroke:#000000;stroke-width:4;stroke-linecap:butt;stroke-linejoin:miter;stroke-miterlimit:4;stroke-dasharray:none;stroke-opacity:1"
         d="m 598.09,1616.6 -15,15 15,-52.5 15,52.5 z" /><path
         id="path84"
         style="fill:none;stroke:#000000;stroke-width:14.17319965;stroke-linecap:butt;stroke-linejoin:miter;stroke-miterlimit:4;stroke-dasharray:none;stroke-opacity:1"
         d="M 975.078,848.949 V 1158.63" /><path
         id="path86"
         style="fill:#000000;fill-opacity:1;fill-rule:evenodd;stroke:none"
         d="m 975.078,1141.6 14.141,-14.14 -14.141,49.57 -14.18,-49.57 z" /><path
         id="path88"
         style="fill:none;stroke:#000000;stroke-width:3.77953005;stroke-linecap:butt;stroke-linejoin:miter;stroke-miterlimit:4;stroke-dasharray:none;stroke-opacity:1"
         d="m 975.078,1141.6 14.141,-14.14 -14.141,49.57 -14.18,-49.57 z" /><path
         id="path90"
         style="fill:none;stroke:#000000;stroke-width:14.17319965;stroke-linecap:butt;stroke-linejoin:miter;stroke-miterlimit:4;stroke-dasharray:none;stroke-opacity:1"
         d="M 1487.73,848.949 V 1157.46" /><path
         id="path92"
         style="fill:#000000;fill-opacity:1;fill-rule:evenodd;stroke:none"
         d="m 1487.73,1140.47 14.15,-14.18 -14.15,49.61 -14.18,-49.61 z" /><path
         id="path94"
         style="fill:none;stroke:#000000;stroke-width:3.77953005;stroke-linecap:butt;stroke-linejoin:miter;stroke-miterlimit:4;stroke-dasharray:none;stroke-opacity:1"
         d="m 1487.73,1140.47 14.15,-14.18 -14.15,49.61 -14.18,-49.61 z" /><path
         id="path96"
         style="fill:none;stroke:#000000;stroke-width:14.17319965;stroke-linecap:butt;stroke-linejoin:miter;stroke-miterlimit:4;stroke-dasharray:none;stroke-opacity:1"
         d="M 2299.61,846.602 V 1156.29" /><path
         id="path98"
         style="fill:#000000;fill-opacity:1;fill-rule:evenodd;stroke:none"
         d="m 2299.61,1139.3 14.18,-14.18 -14.18,49.61 -14.14,-49.61 z" /><path
         id="path100"
         style="fill:none;stroke:#000000;stroke-width:3.77953005;stroke-linecap:butt;stroke-linejoin:miter;stroke-miterlimit:4;stroke-dasharray:none;stroke-opacity:1"
         d="m 2299.61,1139.3 14.18,-14.18 -14.18,49.61 -14.14,-49.61 z" /><path
         id="path102"
         style="fill:none;stroke:#000000;stroke-width:14.17319965;stroke-linecap:butt;stroke-linejoin:miter;stroke-miterlimit:4;stroke-dasharray:none;stroke-opacity:1"
         d="M 2784.45,846.602 V 1155.16" /><path
         id="path104"
         style="fill:#000000;fill-opacity:1;fill-rule:evenodd;stroke:none"
         d="m 2784.45,1138.12 14.18,-14.17 -14.18,49.6 -14.18,-49.6 z" /><path
         id="path106"
         style="fill:none;stroke:#000000;stroke-width:3.77953005;stroke-linecap:butt;stroke-linejoin:miter;stroke-miterlimit:4;stroke-dasharray:none;stroke-opacity:1"
         d="m 2784.45,1138.12 14.18,-14.17 -14.18,49.6 -14.18,-49.6 z" /><path
         id="path108"
         style="fill:none;stroke:#000000;stroke-width:14.17319965;stroke-linecap:butt;stroke-linejoin:miter;stroke-miterlimit:4;stroke-dasharray:none;stroke-opacity:1"
         d="m 1655.9,1374.38 h 153.08" /><path
         id="path110"
         style="fill:#000000;fill-opacity:1;fill-rule:evenodd;stroke:none"
         d="m 1672.89,1374.38 14.18,14.14 -49.61,-14.14 49.61,-14.18 z" /><path
         id="path112"
         style="fill:none;stroke:#000000;stroke-width:3.77953005;stroke-linecap:butt;stroke-linejoin:miter;stroke-miterlimit:4;stroke-dasharray:none;stroke-opacity:1"
         d="m 1672.89,1374.38 14.18,14.14 -49.61,-14.14 49.61,-14.18 z" /><path
         id="path114"
         style="fill:#000000;fill-opacity:1;fill-rule:evenodd;stroke:none"
         d="m 1791.99,1374.38 -14.18,-14.18 49.61,14.18 -49.61,14.14 z" /><path
         id="path116"
         style="fill:none;stroke:#000000;stroke-width:3.77953005;stroke-linecap:butt;stroke-linejoin:miter;stroke-miterlimit:4;stroke-dasharray:none;stroke-opacity:1"
         d="m 1791.99,1374.37 -14.18,-14.17 49.61,14.17 -49.61,14.15 z" /><path
         id="path118"
         style="fill:none;stroke:#000000;stroke-width:7.5;stroke-linecap:butt;stroke-linejoin:miter;stroke-miterlimit:4;stroke-dasharray:none;stroke-opacity:1"
         d="m 2184.8,1699.1 h 294.61" /><path
         id="path120"
         style="fill:#000000;fill-opacity:1;fill-rule:evenodd;stroke:none"
         d="m 2449.41,1699.1 -15,-15 52.5,15 -52.5,15 z" /><path
         id="path122"
         style="fill:none;stroke:#000000;stroke-width:4;stroke-linecap:butt;stroke-linejoin:miter;stroke-miterlimit:4;stroke-dasharray:none;stroke-opacity:1"
         d="m 2449.41,1699.1 -15,-15 52.5,15 -52.5,15 z" /><path
         id="path124"
         style="fill:none;stroke:#000000;stroke-width:6.66141987;stroke-linecap:butt;stroke-linejoin:miter;stroke-miterlimit:4;stroke-dasharray:19.9842, 19.9842;stroke-dashoffset:0;stroke-opacity:1"
         d="m 1387.97,491.719 h 1100.7 V 269.02" /><path
         id="path126"
         style="fill:#000000;fill-opacity:1;fill-rule:evenodd;stroke:none"
         d="m 2488.67,295.66 -13.32,13.32 13.32,-46.64 13.32,46.64 z" /><path
         id="path128"
         style="fill:none;stroke:#000000;stroke-width:3.55275989;stroke-linecap:butt;stroke-linejoin:miter;stroke-miterlimit:4;stroke-dasharray:none;stroke-opacity:1"
         d="m 2488.67,295.66 -13.32,13.32 13.32,-46.64 13.32,46.64 z" /><path
         id="path130"
         style="fill:none;stroke:#000000;stroke-width:6.66141987;stroke-linecap:butt;stroke-linejoin:miter;stroke-miterlimit:4;stroke-dasharray:19.9842, 19.9842;stroke-dashoffset:0;stroke-opacity:1"
         d="M 2167.38,330.469 H 2407.5 V 269.02" /><path
         id="path132"
         style="fill:#000000;fill-opacity:1;fill-rule:evenodd;stroke:none"
         d="m 2407.5,295.66 -13.32,13.32 13.32,-46.64 13.32,46.64 z" /><path
         id="path134"
         style="fill:none;stroke:#000000;stroke-width:3.55275989;stroke-linecap:butt;stroke-linejoin:miter;stroke-miterlimit:4;stroke-dasharray:none;stroke-opacity:1"
         d="m 2407.5,295.66 -13.32,13.32 13.32,-46.64 13.32,46.64 z" /><path
         id="path136"
         style="fill:none;stroke:#000000;stroke-width:6.66141987;stroke-linecap:butt;stroke-linejoin:miter;stroke-miterlimit:4;stroke-dasharray:19.9842, 19.9842;stroke-dashoffset:0;stroke-opacity:1"
         d="M 2567.54,670.309 V 269.02" /><path
         id="path138"
         style="fill:#000000;fill-opacity:1;fill-rule:evenodd;stroke:none"
         d="m 2567.54,295.66 -13.32,13.32 13.32,-46.64 13.32,46.64 z" /><path
         id="path140"
         style="fill:none;stroke:#000000;stroke-width:3.55275989;stroke-linecap:butt;stroke-linejoin:miter;stroke-miterlimit:4;stroke-dasharray:none;stroke-opacity:1"
         d="m 2567.54,295.66 -13.32,13.32 13.32,-46.64 13.32,46.64 z" /><path
         id="path142"
         style="fill:none;stroke:#000000;stroke-width:7.5;stroke-linecap:butt;stroke-linejoin:miter;stroke-miterlimit:4;stroke-dasharray:none;stroke-opacity:1"
         d="M 274.488,1184.14 V 761.949 h 379.301" /><path
         id="path144"
         style="fill:#000000;fill-opacity:1;fill-rule:evenodd;stroke:none"
         d="m 623.789,761.949 -15,-15 52.5,15 -52.5,15 z" /><path
         id="path146"
         style="fill:none;stroke:#000000;stroke-width:4;stroke-linecap:butt;stroke-linejoin:miter;stroke-miterlimit:4;stroke-dasharray:none;stroke-opacity:1"
         d="m 623.789,761.949 -15,-15 52.5,15 -52.5,15 z" /><path
         id="path148"
         style="fill:none;stroke:#000000;stroke-width:7.5;stroke-linecap:butt;stroke-linejoin:miter;stroke-miterlimit:4;stroke-dasharray:none;stroke-opacity:1"
         d="M 220,1184.14 V 492.852 h 434.922" /><path
         id="path150"
         style="fill:#000000;fill-opacity:1;fill-rule:evenodd;stroke:none"
         d="m 624.922,492.852 -15,-15 52.5,15 -52.5,15 z" /><path
         id="path152"
         style="fill:none;stroke:#000000;stroke-width:4;stroke-linecap:butt;stroke-linejoin:miter;stroke-miterlimit:4;stroke-dasharray:none;stroke-opacity:1"
         d="m 624.922,492.852 -15,-15 52.5,15 -52.5,15 z" /><path
         id="path154"
         style="fill:none;stroke:#000000;stroke-width:7.5;stroke-linecap:butt;stroke-linejoin:miter;stroke-miterlimit:4;stroke-dasharray:none;stroke-opacity:1"
         d="M 165.469,1185.31 V 331.641 H 1435.51" /><path
         id="path156"
         style="fill:#000000;fill-opacity:1;fill-rule:evenodd;stroke:none"
         d="m 1405.51,331.641 -15,-15 52.5,15 -52.5,15 z" /><path
         id="path158"
         style="fill:none;stroke:#000000;stroke-width:4;stroke-linecap:butt;stroke-linejoin:miter;stroke-miterlimit:4;stroke-dasharray:none;stroke-opacity:1"
         d="m 1405.51,331.641 -15,-15 52.5,15 -52.5,15 z" /><path
         id="path160"
         style="fill:none;stroke:#000000;stroke-width:7.5;stroke-linecap:butt;stroke-linejoin:miter;stroke-miterlimit:4;stroke-dasharray:none;stroke-opacity:1"
         d="M 113.281,1182.97 V 172.73 H 2249.77" /><path
         id="path162"
         style="fill:#000000;fill-opacity:1;fill-rule:evenodd;stroke:none"
         d="m 2219.77,172.73 -15,-15 52.5,15 -52.5,15 z" /><path
         id="path164"
         style="fill:none;stroke:#000000;stroke-width:4;stroke-linecap:butt;stroke-linejoin:miter;stroke-miterlimit:4;stroke-dasharray:none;stroke-opacity:1"
         d="m 2219.77,172.73 -15,-15 52.5,15 -52.5,15 z" /><path
         id="path166"
         style="fill:none;stroke:#000000;stroke-width:7.5;stroke-linecap:butt;stroke-linejoin:miter;stroke-miterlimit:4;stroke-dasharray:22.5, 22.5;stroke-dashoffset:0;stroke-opacity:1"
         d="M 1349.69,1164.41 559.84,975.352" /><path
         id="path168"
         style="fill:none;stroke:#000000;stroke-width:7.5;stroke-linecap:butt;stroke-linejoin:miter;stroke-miterlimit:4;stroke-dasharray:22.5, 22.5;stroke-dashoffset:0;stroke-opacity:1"
         d="M 1645.47,1169.06 3468.75,971.879" /><path
         id="path170"
         style="fill:none;stroke:#000000;stroke-width:7.5;stroke-linecap:butt;stroke-linejoin:miter;stroke-miterlimit:4;stroke-dasharray:22.5, 22.5;stroke-dashoffset:0;stroke-opacity:1"
         d="M 2917.85,1167.89 3460.66,997.422" /><path
         id="path172"
         style="fill:none;stroke:#000000;stroke-width:7.5;stroke-linecap:butt;stroke-linejoin:miter;stroke-miterlimit:4;stroke-dasharray:22.5, 22.5;stroke-dashoffset:0;stroke-opacity:1"
         d="M 2649.92,1165.59 620.16,973.051" /><g
         transform="scale(10)"
         id="g174"><text
           id="text204"
           style="font-variant:normal;font-size:6px;font-family:Helvetica;-inkscape-font-specification:f-0-0;writing-mode:lr-tb;fill:#000000;fill-opacity:1;fill-rule:nonzero;stroke:none"
           transform="matrix(1,0,0,-1,13.2152,139.176)"><tspan
             id="tspan176"
             y="0"
             x="0 3.6659999 4.9980001 6.3299999">File</tspan><tspan
             id="tspan178"
             y="6"
             x="-4.5117202 -1.17572 2.16028 5.4962802 8.8503904 12.186391">header</tspan><tspan
             id="tspan180"
             y="-7.3070002"
             x="56.26598 60.59798 63.933979 67.269981 70.623795 72.621796 75.957794 79.293793 80.643715 83.643715 85.311714 88.647713 90.645714 93.981712 97.317719 99.333565 102.66956">Read-only program</tspan><tspan
             id="tspan182"
             y="-1.307"
             x="73.621483 75.619476 78.955482 82.291481 83.641403 86.977402">region</tspan><tspan
             id="tspan184"
             y="4.6929998"
             x="61.779678 63.777679 65.10968 68.445679 69.7957 71.463699 72.7957 76.131699 77.463699 78.7957 81.7957 85.149605 88.485603 90.153603 91.821602 93.819603 97.155602">(initialized from</tspan><tspan
             id="tspan186"
             y="10.693"
             x="61.779678 65.115677 68.115677 71.451683 74.451683 77.787682 79.455681 82.791679 86.145699 87.477699 90.813698 92.481697 94.149696 95.481697 96.813698 100.1497">executable file)</tspan><tspan
             id="tspan188"
             y="-7.539"
             x="185.57068 189.90268 193.23868 196.57468 199.9285 201.9265 206.2585 208.2565 209.60661 211.27461 214.61061 216.27861 219.61462 221.61263 224.94862 228.28462 230.30075 233.63676">Read-write program</tspan><tspan
             id="tspan190"
             y="-1.539"
             x="203.75818 205.75618 209.09218 212.42818 213.77811 217.11411">region</tspan><tspan
             id="tspan192"
             y="4.461"
             x="191.91638 193.91438 195.24638 198.58238 199.9324 201.6004 202.9324 206.2684 207.6004 208.9324 211.9324 215.2863 218.6223 220.2903 221.9583 223.9563 227.2923">(initialized from</tspan><tspan
             id="tspan194"
             y="10.461"
             x="191.91638 195.25238 198.25238 201.58838 204.58838 207.92438 209.59238 212.92838 216.28239 217.6144 220.95039 222.61839 224.28639 225.61839 226.95039 230.28639">executable file)</tspan><tspan
             id="tspan196"
             y="-7.191"
             x="298.53137 302.19739 305.53339 307.53137 310.88528">Zero-</tspan><tspan
             id="tspan198"
             y="-1.191"
             x="293.35754 294.68954 298.02554 299.35754 301.02554 302.35754 305.71146 307.04346 308.37546 311.37546 314.71146">initialized</tspan><tspan
             id="tspan200"
             y="4.809"
             x="297.3595 299.35751 302.69351 306.02951 307.37943 310.71542">region</tspan><tspan
             id="tspan202"
             y="10.809"
             x="299.03528 301.03329 304.36929 307.36929 310.36929">(bss)</tspan></text>
<text
           id="text214"
           style="font-variant:normal;font-size:6px;font-family:Helvetica;-inkscape-font-specification:f-0-0;writing-mode:lr-tb;fill:#000000;fill-opacity:1;fill-rule:nonzero;stroke:none"
           transform="matrix(0,1,1,0,147.91,122.563)"><tspan
             id="tspan206"
             y="0"
             x="0 4.0019999 6 9.3539076 12.353908 15.689908 19.025908 22.361908 24.377743">Procedure</tspan><tspan
             id="tspan208"
             y="6"
             x="4.3418002 5.6738 7.0057998 10.3418 13.3418 16.695707 20.031708">linkage</tspan><tspan
             id="tspan210"
             y="129.422"
             x="0.41679999 4.4187999 6.4168 9.7707081 12.770708 16.106709 19.442707 22.778708 24.794542">Procedure</tspan><tspan
             id="tspan212"
             y="135.422"
             x="4.7586002 6.0906 7.4225998 10.7586 13.7586 17.112507 20.448507">linkage</tspan></text>
<text
           id="text234"
           style="font-variant:normal;font-size:6px;font-family:Helvetica;-inkscape-font-specification:f-0-0;writing-mode:lr-tb;fill:#000000;fill-opacity:1;fill-rule:nonzero;stroke:none"
           transform="matrix(1,0,0,-1,150.901,74.3391)"><tspan
             id="tspan216"
             y="0"
             x="0 4.3319998 7.3319998 10.668 14.004 19.01992 20.351919 23.351919 25.01992 27.01792 30.35392 31.685921 35.039841 38.039841 41.375839 43.043839 44.375839 47.711842 51.04784 52.715839 56.051838 59.38784 61.05584">Dynamic relocation data</tspan><tspan
             id="tspan218"
             y="26.444901"
             x="-64.542999 -60.541 -57.541 -54.205002 -50.868999 -48.853153 -47.185154 -45.517155 -43.849152 -40.513153 -37.177155 -35.845154">Export table</tspan><tspan
             id="tspan220"
             y="42.798801"
             x="14.4976 16.1656 21.163601 24.499599 27.8356 29.851507 31.519508 33.187508 34.855507 38.191509 41.527508 42.859509">Import table</tspan><tspan
             id="tspan222"
             y="59.153099"
             x="94.414398 98.416397 101.4164 106.4144 109.7683 113.10429 114.43629 116.10429 117.77229 121.1083 124.4443 125.7763">Symbol table</tspan><tspan
             id="tspan224"
             y="21.573"
             x="129.3933 133.7253 136.7253 140.06129 143.39729 148.41322 149.74522 152.74522 154.41322 157.41322 160.74922 165.74722 169.08322 172.43704 175.77304 179.10904 182.44504 184.11304">Dynamic components</tspan><tspan
             id="tspan226"
             y="27.573"
             x="141.73309 143.73109 146.73109 150.06709 153.40311 155.07111 158.4071 159.75693 163.09293 164.76093 168.09692 171.09692 174.43292 177.76892 182.78503 184.11703">(contain dynamic</tspan><tspan
             id="tspan228"
             y="33.573002"
             x="154.74091 156.07291 157.40491 160.74091 163.74091 165.0909 168.4269 171.76289 173.43089 176.76689 180.10289 181.77089 185.10689">linking data)</tspan><tspan
             id="tspan230"
             y="-96.268997"
             x="108.5221 112.5241 115.8601 117.5281 120.8641 122.87992 124.87792 128.21393 132.54593 134.21393 137.54993 140.88593 144.24008 147.57608 149.24408 152.58009 155.58009 157.24809 160.58409 162.25209 164.25009 167.58609 169.25409 172.59009 174.60611 177.94211 181.27811 184.27811">An arrow denotes a reference</tspan><tspan
             id="tspan232"
             y="-90.268997"
             x="108.5221 111.8581 115.1941 118.5301 120.1981 121.5301 123.1981 126.1981 127.8661 131.2021 132.5341 134.55022 137.88622 140.88622 142.55421 143.88622 147.22221">and its direction</tspan></text>
</g></g></g></svg>