<?xml version="1.0" encoding="UTF-8" standalone="no"?>
<svg
   xmlns:dc="http://purl.org/dc/elements/1.1/"
   xmlns:cc="http://creativecommons.org/ns#"
   xmlns:rdf="http://www.w3.org/1999/02/22-rdf-syntax-ns#"
   xmlns:svg="http://www.w3.org/2000/svg"
   xmlns="http://www.w3.org/2000/svg"
   viewBox="0 0 446.66666 393.33334"
   height="393.33334"
   width="446.66666"
   xml:space="preserve"
   id="svg2"
   version="1.1"><metadata
     id="metadata8"><rdf:RDF><cc:Work
         rdf:about=""><dc:format>image/svg+xml</dc:format><dc:type
           rdf:resource="http://purl.org/dc/dcmitype/StillImage" /></cc:Work></rdf:RDF></metadata><defs
     id="defs6" /><g
     transform="matrix(1.3333333,0,0,-1.3333333,0,393.33333)"
     id="g10"><g
       transform="scale(0.1)"
       id="g12"><path
         id="path14"
         style="fill:#fec996;fill-opacity:1;fill-rule:nonzero;stroke:none"
         d="m 4.26172,1841.83 h 809.098 V 2945.74 H 4.26172 Z" /><path
         id="path16"
         style="fill:none;stroke:#090000;stroke-width:8.50393963;stroke-linecap:butt;stroke-linejoin:miter;stroke-miterlimit:4;stroke-dasharray:none;stroke-opacity:1"
         d="m 4.26172,1841.83 h 809.098 V 2945.74 H 4.26172 Z" /><path
         id="path18"
         style="fill:#fec996;fill-opacity:1;fill-rule:nonzero;stroke:none"
         d="m 869.801,1841.84 h 1560.2 v 862.422 h -1560.2 z" /><path
         id="path20"
         style="fill:none;stroke:#090000;stroke-width:8.50393963;stroke-linecap:butt;stroke-linejoin:miter;stroke-miterlimit:4;stroke-dasharray:none;stroke-opacity:1"
         d="m 869.801,1841.84 h 1560.2 v 862.422 h -1560.2 z" /><path
         id="path22"
         style="fill:#fec996;fill-opacity:1;fill-rule:nonzero;stroke:none"
         d="m 2483.44,1841.95 h 860.617 V 2945.62 H 2483.44 Z" /><path
         id="path24"
         style="fill:none;stroke:#090000;stroke-width:8.72789955;stroke-linecap:butt;stroke-linejoin:miter;stroke-miterlimit:4;stroke-dasharray:none;stroke-opacity:1"
         d="m 2483.44,1841.95 h 860.617 V 2945.62 H 2483.44 Z" /><path
         id="path26"
         style="fill:#d6d6d6;fill-opacity:1;fill-rule:nonzero;stroke:none"
         d="M 4.26172,844.57 H 3344.1817 V 1794.8 H 4.26172 Z" /><path
         id="path28"
         style="fill:none;stroke:#090000;stroke-width:8.50393963;stroke-linecap:butt;stroke-linejoin:miter;stroke-miterlimit:4;stroke-dasharray:none;stroke-opacity:1"
         d="M 4.26172,844.57 H 3344.1817 V 1794.8 H 4.26172 Z" /><path
         id="path30"
         style="fill:#8ac0ff;fill-opacity:1;fill-rule:nonzero;stroke:none"
         d="M 4.26172,8.82813 H 3344.1817 v 787.152 H 4.26172 Z" /><path
         id="path32"
         style="fill:none;stroke:#090000;stroke-width:8.50393963;stroke-linecap:butt;stroke-linejoin:miter;stroke-miterlimit:4;stroke-dasharray:none;stroke-opacity:1"
         d="M 4.26172,8.82813 H 3344.1817 v 787.152 H 4.26172 Z" /><path
         id="path34"
         style="fill:#ffffff;fill-opacity:1;fill-rule:nonzero;stroke:none"
         d="m 247.301,2316.96 h 539.41 v 578.629 h -539.41 z" /><path
         id="path36"
         style="fill:none;stroke:#090000;stroke-width:8.50393963;stroke-linecap:butt;stroke-linejoin:miter;stroke-miterlimit:4;stroke-dasharray:none;stroke-opacity:1"
         d="m 247.301,2316.96 h 539.41 v 578.629 h -539.41 z" /><path
         id="path38"
         style="fill:#ffffff;fill-opacity:1;fill-rule:nonzero;stroke:none"
         d="m 179.879,2189.96 h 537.813 v 577.027 H 179.879 Z" /><path
         id="path40"
         style="fill:none;stroke:#090000;stroke-width:8.50393963;stroke-linecap:butt;stroke-linejoin:miter;stroke-miterlimit:4;stroke-dasharray:none;stroke-opacity:1"
         d="m 179.879,2189.96 h 537.813 v 577.027 H 179.879 Z" /><path
         id="path42"
         style="fill:#ffffff;fill-opacity:1;fill-rule:nonzero;stroke:none"
         d="M 109.301,2058.24 H 651.84 V 2638.4 H 109.301 Z" /><path
         id="path44"
         style="fill:none;stroke:#090000;stroke-width:8.50393963;stroke-linecap:butt;stroke-linejoin:miter;stroke-miterlimit:4;stroke-dasharray:none;stroke-opacity:1"
         d="M 109.301,2058.24 H 651.84 V 2638.4 H 109.301 Z" /><path
         id="path46"
         style="fill:#ffffff;fill-opacity:1;fill-rule:nonzero;stroke:none"
         d="m 971.719,2059.8 h 539.41 v 567.621 h -539.41 z" /><path
         id="path48"
         style="fill:none;stroke:#090000;stroke-width:8.50393963;stroke-linecap:butt;stroke-linejoin:miter;stroke-miterlimit:4;stroke-dasharray:none;stroke-opacity:1"
         d="m 971.719,2059.8 h 539.41 v 567.621 h -539.41 z" /><path
         id="path50"
         style="fill:#ffffff;fill-opacity:1;fill-rule:nonzero;stroke:none"
         d="m 1783.98,2061.37 h 536.25 v 564.488 h -536.25 z" /><path
         id="path52"
         style="fill:none;stroke:#090000;stroke-width:8.50393963;stroke-linecap:butt;stroke-linejoin:miter;stroke-miterlimit:4;stroke-dasharray:none;stroke-opacity:1"
         d="m 1783.98,2061.37 h 536.25 v 564.488 h -536.25 z" /><path
         id="path54"
         style="fill:#ffffff;fill-opacity:1;fill-rule:nonzero;stroke:none"
         d="m 2705.98,2327.93 h 539.41 v 578.629 h -539.41 z" /><path
         id="path56"
         style="fill:none;stroke:#090000;stroke-width:8.50393963;stroke-linecap:butt;stroke-linejoin:miter;stroke-miterlimit:4;stroke-dasharray:none;stroke-opacity:1"
         d="m 2705.98,2327.93 h 539.41 v 578.629 h -539.41 z" /><path
         id="path58"
         style="fill:#ffffff;fill-opacity:1;fill-rule:nonzero;stroke:none"
         d="m 2640.12,2199.38 h 537.848 v 577.031 H 2640.12 Z" /><path
         id="path60"
         style="fill:none;stroke:#090000;stroke-width:8.50393963;stroke-linecap:butt;stroke-linejoin:miter;stroke-miterlimit:4;stroke-dasharray:none;stroke-opacity:1"
         d="m 2640.12,2199.38 h 537.848 v 577.031 H 2640.12 Z" /><path
         id="path62"
         style="fill:#ffffff;fill-opacity:1;fill-rule:nonzero;stroke:none"
         d="m 2574.26,2072.35 h 537.848 v 577.027 H 2574.26 Z" /><path
         id="path64"
         style="fill:none;stroke:#090000;stroke-width:8.50393963;stroke-linecap:butt;stroke-linejoin:miter;stroke-miterlimit:4;stroke-dasharray:none;stroke-opacity:1"
         d="m 2574.26,2072.35 h 537.848 v 577.027 H 2574.26 Z" /><path
         id="path66"
         style="fill:#ffffff;fill-opacity:1;fill-rule:nonzero;stroke:none"
         d="m 57.5781,1115.86 h 801.25 v 620.941 h -801.25 z" /><path
         id="path68"
         style="fill:none;stroke:#090000;stroke-width:8.50393963;stroke-linecap:butt;stroke-linejoin:miter;stroke-miterlimit:4;stroke-dasharray:none;stroke-opacity:1"
         d="m 57.5781,1115.86 h 801.25 v 620.941 h -801.25 z" /><path
         id="path70"
         style="fill:#ffffff;fill-opacity:1;fill-rule:nonzero;stroke:none"
         d="m 858.828,1115.86 h 804.41 v 620.941 h -804.41 z" /><path
         id="path72"
         style="fill:none;stroke:#090000;stroke-width:8.50393963;stroke-linecap:butt;stroke-linejoin:miter;stroke-miterlimit:4;stroke-dasharray:none;stroke-opacity:1"
         d="m 858.828,1115.86 h 804.41 v 620.941 h -804.41 z" /><path
         id="path74"
         style="fill:#ffffff;fill-opacity:1;fill-rule:nonzero;stroke:none"
         d="m 1661.68,1115.86 h 821.641 v 620.941 H 1661.68 Z" /><path
         id="path76"
         style="fill:none;stroke:#090000;stroke-width:8.51189995;stroke-linecap:butt;stroke-linejoin:miter;stroke-miterlimit:4;stroke-dasharray:none;stroke-opacity:1"
         d="m 1661.68,1115.86 h 821.641 v 620.941 H 1661.68 Z" /><path
         id="path78"
         style="fill:#ffffff;fill-opacity:1;fill-rule:nonzero;stroke:none"
         d="m 2483.32,1115.86 h 807.539 v 620.941 H 2483.32 Z" /><path
         id="path80"
         style="fill:none;stroke:#090000;stroke-width:8.51461029;stroke-linecap:butt;stroke-linejoin:miter;stroke-miterlimit:4;stroke-dasharray:none;stroke-opacity:1"
         d="m 2483.32,1115.86 h 807.539 v 620.941 H 2483.32 Z" /><path
         id="path82"
         style="fill:#ffffff;fill-opacity:1;fill-rule:nonzero;stroke:none"
         d="m 57.5391,980.98 h 1604.14 v 134.879 H 57.5391 Z" /><path
         id="path84"
         style="fill:none;stroke:#090000;stroke-width:8.47593975;stroke-linecap:butt;stroke-linejoin:miter;stroke-miterlimit:4;stroke-dasharray:none;stroke-opacity:1"
         d="m 57.5391,980.98 h 1604.14 v 134.879 H 57.5391 Z" /><path
         id="path86"
         style="fill:#ffffff;fill-opacity:1;fill-rule:nonzero;stroke:none"
         d="m 1661.68,981.02 h 1629.18 v 134.84 H 1661.68 Z" /><path
         id="path88"
         style="fill:none;stroke:#090000;stroke-width:8.48351955;stroke-linecap:butt;stroke-linejoin:miter;stroke-miterlimit:4;stroke-dasharray:none;stroke-opacity:1"
         d="m 1661.68,981.02 h 1629.18 v 134.84 H 1661.68 Z" /><path
         id="path90"
         style="fill:#ffffff;fill-opacity:1;fill-rule:nonzero;stroke:none"
         d="m 109.301,175.039 h 1052.19 V 742.66 H 109.301 Z" /><path
         id="path92"
         style="fill:none;stroke:#090000;stroke-width:8.50393963;stroke-linecap:butt;stroke-linejoin:miter;stroke-miterlimit:4;stroke-dasharray:none;stroke-opacity:1"
         d="m 109.301,175.039 h 1052.19 V 742.66 H 109.301 Z" /><path
         id="path94"
         style="fill:#ffffff;fill-opacity:1;fill-rule:nonzero;stroke:none"
         d="m 1161.48,171.879 h 997.27 V 742.66 h -997.27 z" /><path
         id="path96"
         style="fill:none;stroke:#090000;stroke-width:8.50393963;stroke-linecap:butt;stroke-linejoin:miter;stroke-miterlimit:4;stroke-dasharray:none;stroke-opacity:1"
         d="m 1161.48,171.879 h 997.27 V 742.66 h -997.27 z" /><path
         id="path98"
         style="fill:#ffffff;fill-opacity:1;fill-rule:nonzero;stroke:none"
         d="M 2158.75,171.879 H 3235.98 V 742.66 H 2158.75 Z" /><path
         id="path100"
         style="fill:none;stroke:#090000;stroke-width:8.50393963;stroke-linecap:butt;stroke-linejoin:miter;stroke-miterlimit:4;stroke-dasharray:none;stroke-opacity:1"
         d="M 2158.75,171.879 H 3235.98 V 742.66 H 2158.75 Z" /><g
         transform="scale(10)"
         id="g102"><text
           id="text110"
           style="font-variant:normal;font-size:6px;font-family:Helvetica;-inkscape-font-specification:f-0-0;writing-mode:lr-tb;fill:#000000;fill-opacity:1;fill-rule:nonzero;stroke:none"
           transform="matrix(1,0,0,-1,36.407,279.992)"><tspan
             id="tspan104"
             y="0"
             x="0 4.3319998 7.9980001 12.666 16.667999 18.336 20.004 21.672001 23.34 25.007999">RTOS ... N</tspan><tspan
             id="tspan106"
             y="12.5445"
             x="-4.95508 -0.62308002 3.0429201 7.7109199 11.71292 13.38092">RTOS 2</tspan><tspan
             id="tspan108"
             y="26.855"
             x="-9.9726601 -5.6406598 -1.97466 2.6933401 6.6953402 8.3633404">RTOS 1</tspan></text>
<text
           id="text120"
           style="font-variant:normal;font-size:6px;font-family:Helvetica;-inkscape-font-specification:f-1-0;writing-mode:lr-tb;fill:#000000;fill-opacity:1;fill-rule:nonzero;stroke:none"
           transform="matrix(1,0,0,-1,23.33981,235.4597)"><tspan
             id="tspan112"
             y="0"
             x="0 4.3319998 7.6680002 11.004 12.353908 15.353908 18.689907 20.357908 23.693907">Choice of</tspan><tspan
             id="tspan114"
             y="6"
             x="1.66406 5.66606 9.6680603 13.687888 18.019888 22.021889">AAPCS,</tspan><tspan
             id="tspan116"
             y="12"
             x="-5.6718798 -0.67387998 2.6621201 7.6781201 11.01412 13.01212 16.012119 17.68012 22.67812 26.01412 29.367968">memory map,</tspan><tspan
             id="tspan118"
             y="18"
             x="6.1816201 9.5176201 11.18562 14.18562 15.85362 17.52162">etc...</tspan></text>
<text
           id="text128"
           style="font-variant:normal;font-size:6px;font-family:Helvetica;-inkscape-font-specification:f-0-0;writing-mode:lr-tb;fill:#000000;fill-opacity:1;fill-rule:nonzero;stroke:none"
           transform="matrix(1,0,0,-1,13.66833,196.3335)"><tspan
             id="tspan122"
             y="0"
             x="0 4.3319998 7.6680002 10.002 13.338 15.006 17.004 19.866018 23.532017 26.868017 29.202017 32.538017 34.206017 39.540016 42.876019 44.874016 48.210018 49.878017 52.722019">Bare (&quot;bare metal&quot;)</tspan><tspan
             id="tspan124"
             y="6"
             x="5.8593798 9.5253801 11.19338 14.52938 16.52738 18.525379 22.209379 24.543381 29.87738 31.54538 33.543381 36.879379 42.213379 43.881378 45.549381">platform family</tspan><tspan
             id="tspan126"
             y="-56.803501"
             x="89.78318 93.785179 97.121178 98.789177 104.12318 105.79118 110.45918 114.46118 116.12918 120.46118 124.79318">Palm OS ABI</tspan></text>
<text
           id="text138"
           style="font-variant:normal;font-size:6px;font-family:Helvetica;-inkscape-font-specification:f-1-0;writing-mode:lr-tb;fill:#000000;fill-opacity:1;fill-rule:nonzero;stroke:none"
           transform="matrix(1,0,0,-1,270.33551,237.4979)"><tspan
             id="tspan130"
             y="0"
             x="0 4.0019999 7.3379998 10.674 12.023822 13.355823 16.355822 19.691822 21.359823 22.691822 26.027822">Application</tspan><tspan
             id="tspan132"
             y="6"
             x="-1.07813 1.92187 3.58987 6.9258699 10.26187 13.59787 16.93387 18.949986 22.285986 25.285986 26.953985">standards +</tspan><tspan
             id="tspan134"
             y="12"
             x="8.34375 11.67975 15.01575 16.34775 17.697645">build</tspan><tspan
             id="tspan136"
             y="18"
             x="-0.49805 2.83795 6.1739502 8.1719503 11.525772 16.523773 19.859772 21.527773 24.863771 26.861773">parameters</tspan></text>
<text
           id="text144"
           style="font-variant:normal;font-size:6px;font-family:Helvetica;-inkscape-font-specification:f-0-0;writing-mode:lr-tb;fill:#000000;fill-opacity:1;fill-rule:nonzero;stroke:none"
           transform="matrix(1,0,0,-1,187.37696,253.137)"><tspan
             id="tspan140"
             y="0"
             x="0 4.0019999 7.3379998 12.672 16.337999 18.006001 21.341999 25.007999 26.676001 31.344">Symbian OS</tspan><tspan
             id="tspan142"
             y="6"
             x="12.5098 16.841801 21.1738">ABI</tspan></text>
<text
           id="text162"
           style="font-variant:normal;font-size:6px;font-family:Helvetica;-inkscape-font-specification:f-1-0;writing-mode:lr-tb;fill:#000000;fill-opacity:1;fill-rule:nonzero;stroke:none"
           transform="matrix(1,0,0,-1,110.08016,238.57059)"><tspan
             id="tspan146"
             y="0"
             x="0 4.0019999 7.3379998 10.674 12.023834 13.355834 16.355835 19.691835 21.359835 22.691835 26.027834">Application</tspan><tspan
             id="tspan148"
             y="6"
             x="-1.07813 1.92187 3.58987 6.9258699 10.26187 13.59787 16.93387 18.949997 22.285997 25.285997 26.953997">standards +</tspan><tspan
             id="tspan150"
             y="12"
             x="8.34375 11.67975 15.01575 16.34775 17.697659">build</tspan><tspan
             id="tspan152"
             y="18"
             x="-0.49805 2.83795 6.1739502 8.1719503 11.525784 16.523785 19.859785 21.527784 24.863785 26.861784">parameters</tspan><tspan
             id="tspan154"
             y="0.1566"
             x="79.029251 83.03125 86.367249 89.703247 91.053085 92.385086 95.385086 98.721085 100.38908 101.72108 105.05708">Application</tspan><tspan
             id="tspan156"
             y="6.1566"
             x="77.951118 80.951118 82.619118 85.955116 89.291122 92.627121 95.96312 97.979233 101.31524 104.31524 105.98324">standards +</tspan><tspan
             id="tspan158"
             y="12.1566"
             x="87.373001 90.709 94.044998 95.376999 96.726898">build</tspan><tspan
             id="tspan160"
             y="18.156601"
             x="78.531197 81.867203 85.203201 87.201202 90.555031 95.553032 98.889038 100.55704 103.89304 105.89104">parameters</tspan></text>
<text
           id="text186"
           style="font-variant:normal;font-size:6px;font-family:Helvetica;-inkscape-font-specification:f-0-0;writing-mode:lr-tb;fill:#000000;fill-opacity:1;fill-rule:nonzero;stroke:none"
           transform="matrix(1,0,0,-1,295.70036,281.08979)"><tspan
             id="tspan164"
             y="0"
             x="0 1.668 3.336">...</tspan><tspan
             id="tspan166"
             y="13.3285"
             x="-11.0641 -6.3961 -2.0641">QNX</tspan><tspan
             id="tspan168"
             y="27.9527"
             x="-28.020399 -23.6884 -21.354401 -16.020399 -14.3524 -10.6864 -9.0184002 -5.3523998 -1.6864001">Arm Linux</tspan><tspan
             id="tspan170"
             y="33.952702"
             x="-18.35243 -14.02043 -9.6884298">ABI</tspan><tspan
             id="tspan172"
             y="118.2238"
             x="-272.47443 -269.63043 -265.29843 -261.96243 -259.62842 -256.29242 -254.62444 -250.95844 -249.29044 -245.95444 -243.93849 -241.94049 -238.27449 -235.94049 -230.60649 -182.14438 -177.81238 -174.14638 -170.48038 -168.48238 -166.81438 -165.14638 -161.81038 -99.821732 -95.489731 -91.82373 -88.15773 -86.159729 -84.49173 -82.82373 -79.487732 -20.075611 -16.073612 -12.071611 -9.7376118 -6.4016118 -4.3857651 -2.7177651 -1.049765 2.2862349">&quot;Bare platform&quot;DLL-likeDLL-likeSVr4-like</tspan><tspan
             id="tspan174"
             y="177.8093"
             x="-241.45453 -237.45253 -235.78453 -232.11853 -228.45253 -226.78453 -223.44853 -221.78053 -218.44453 -214.77853 -211.11253 -208.77853 -205.44254 -202.08852 -198.75252 -197.08452 -193.74852 -190.08252 -186.74651 -183.41051 -91.74791 -86.749916 -83.083916 -81.415909 -79.417915 -77.749916 -74.083916 -72.415909 -69.07991 -67.411911 -64.075912 -62.407913 -60.073914 -58.075912 -54.409912 -51.073914 -49.405914 -47.737911 -44.401913 -40.735912 -37.069912 -34.735912 -31.381895 -28.045895 -24.709894 -23.041895 -19.705894 -16.039894 -12.703895 -9.3678951 -6.013926">Single address spaceMultiple virtual address spaces</tspan><tspan
             id="tspan176"
             y="191.9281"
             x="-180.38184 -176.04984 -172.38383 -168.71783 -166.38383 -163.04784 -159.71182 -156.358 -154.69 -151.35399 -147.68799 -144.35199 -141.01599 -137.67999 -136.01199 -130.67799 -127.342 -123.67599 -120.32205 -116.65605 -113.32005 -107.98605 -104.65005 -100.98405 -98.986053 -97.318054 -95.302132 -91.966133 -88.300133">Address space management type</tspan><tspan
             id="tspan178"
             y="84.756104"
             x="-145.20523 -140.87323 -137.20723 -133.54123 -131.54323 -127.85914 -124.52314 -121.18714 -117.85114">DLL-based</tspan><tspan
             id="tspan180"
             y="90.756104"
             x="-151.19937 -147.53337 -145.86537 -142.52937 -140.53137 -138.53337 -134.84937 -132.51537 -127.18137 -125.51337 -123.51537 -120.17937 -114.84537 -113.17737 -111.50937">platform family</tspan><tspan
             id="tspan182"
             y="84.756104"
             x="-14.09037 -10.08837 -6.08637 -3.7523701">SVr4</tspan><tspan
             id="tspan184"
             y="90.756104"
             x="-28.756371 -25.09037 -23.422371 -20.08637 -18.088369 -16.09037 -12.406377 -10.072377 -4.7383766 -3.0703769 -1.0723768 2.2636232 7.5976233 9.2656231 10.933623">platform family</tspan></text>
<text
           id="text242"
           style="font-variant:normal;font-size:6px;font-family:Helvetica;-inkscape-font-specification:f-1-0;writing-mode:lr-tb;fill:#000000;fill-opacity:1;fill-rule:nonzero;stroke:none"
           transform="matrix(1,0,0,-1,12.97099,148.65319)"><tspan
             id="tspan188"
             y="0"
             x="0 4.3319998 7.6680002 9.3360004 12.672 15.672 19.007999 22.362112 27.360113 28.692112 31.692112 35.028111 36.360111 37.710159 40.710159 42.378159 43.710159 47.046162 50.38216 53.718159 57.072269">No dynamically loaded</tspan><tspan
             id="tspan190"
             y="6"
             x="0 3.336 6.336 9.6719999 12.672 16.007999 17.676001 21.011999 24.366018 25.698017 29.034018 32.034019 33.702019 35.370018 39.036018 42.372017">executables. The</tspan><tspan
             id="tspan192"
             y="12"
             x="0 4.3319998 7.9980001 12.666 16.667999 18.336 19.667999 22.667999 24.336 27.336 29.004 32.34 34.007999 35.34 38.34 41.675999 43.007999 44.357815">RTOS is statically</tspan><tspan
             id="tspan194"
             y="18"
             x="0 1.332 2.664 6 9 12.353908 15.689908 17.357908 21.689907 23.021908 24.689907 29.693752 31.361752 34.69775">linked withthe</tspan><tspan
             id="tspan196"
             y="24"
             x="0 3.336 6.336 9.6719999 12.672 16.007999 17.676001 21.011999 24.366018 25.698017 29.034018 30.702017 32.034019 35.370018 37.038017 41.370018 46.038017 51.036018">executable in ROM.</tspan><tspan
             id="tspan198"
             y="0"
             x="80.2836 84.285599 85.953598 88.953598 92.289597 95.625603 97.641411 100.97741 104.31341 105.98141 107.31341 108.64541 111.98141 113.99727 117.33327 119.33127 122.33127 123.99927 125.99727 130.34727 133.68327 137.01927">A shared library (DLL)</tspan><tspan
             id="tspan200"
             y="6"
             x="80.2836 83.2836 86.619598 89.955597 91.623596 94.959602 98.295601 99.9636 101.6316 104.9676 106.9656 110.31954 113.65555 116.99155 120.32755 123.66354 125.33154 128.66754">can be threaded by</tspan><tspan
             id="tspan202"
             y="12"
             x="80.2836 85.281601 88.617599 89.9496 91.617599 92.9496 96.30352 97.635521 100.97152 102.63952 105.97552 107.97352 111.32735 114.32735 117.66335 120.66335 123.66335 126.99935 129.99936 131.66736 132.99936">multiple processes in</tspan><tspan
             id="tspan204"
             y="18"
             x="80.2836 83.619598 86.955597 90.291603 91.959602 95.295601 98.64962 101.98562 103.98362 107.31962 110.31962 113.31962 114.98762 117.98762 121.32362 124.65961 127.65961 131.01369">one address space.</tspan><tspan
             id="tspan206"
             y="0"
             x="160.88091 164.8829 166.5509 170.8829 174.2189 177.5549 178.7188 181.7188 183.3868 186.3868 189.72279 193.05879 198.05679 201.39279 204.74692 206.41492 209.41492 211.08292 214.41891 216.41692">A DLL's segments are</tspan><tspan
             id="tspan208"
             y="6"
             x="160.88091 165.87891 169.2149 172.5509 175.90474 179.24074 182.57674 184.24474 187.58073 189.24873 190.91673 192.58473 195.92073 199.25673 200.92473 203.92473 207.26073 212.25873">mapped at the same</tspan><tspan
             id="tspan210"
             y="12"
             x="160.88091 164.2169 167.5529 170.8889 172.90474 176.24074 179.24074 182.24074 183.90874 185.24074 188.57674 190.24474 195.24274 198.57874 199.92856 201.59656 202.92856 206.26456 207.59656">address in multiple</tspan><tspan
             id="tspan212"
             y="18"
             x="160.88091 163.88091 165.21291 167.21091 168.87891 172.2149 175.5509 176.90082 178.56882 181.90482 185.24081 188.57681 190.57481 193.92894 196.92894 199.92894 201.59694 204.59694 207.93294 211.26894 214.26894 217.60493 220.60493">virtual address spaces.</tspan><tspan
             id="tspan214"
             y="0"
             x="242.2621 246.2641 247.9321 252.2641 256.26611 260.93411 262.60211 265.60211 268.93811 272.27411 273.94211 277.27811 280.63202 282.30002 287.29803 290.63403 293.97003 297.30603 300.64203">A DSO can be mapped</tspan><tspan
             id="tspan216"
             y="6"
             x="242.2621 245.5981 247.2661 248.9341 252.2701 253.9381 257.27411 258.60611 260.27411 261.94211 265.27811 267.27609 270.61209 273.94809 275.61609 277.28409 280.62009 283.95609 287.31015 289.30814 292.64413 295.64413">at a different address</tspan><tspan
             id="tspan218"
             y="12"
             x="242.2621 243.5941 246.9301 248.5981 251.9341 255.2701 258.27011 261.62421 263.29221 266.6282 268.62622 271.96222 274.96222 278.29822 281.29822 284.29822 285.96622 287.9642 291.98438">in each process (VA</tspan><tspan
             id="tspan220"
             y="18"
             x="242.2621 245.2621 248.5981 251.9341 254.9341 258.27011 260.28592 261.95392 263.62192 266.95792 270.29391 271.96191 273.62991 275.29791 278.63391 280.63193 283.96793 287.30392 290.63992 293.63992 295.30792 296.63992 298.30792">space) that threads it.</tspan><tspan
             id="tspan222"
             y="102.1035"
             x="4.3910999 8.7230997 12.0591 13.7271 17.063101 18.7311 22.067101 24.0651 27.419228 29.087227 32.423229 35.759228 39.095226 41.093227 44.447353 47.447353 50.447353 53.783356 57.119354 58.787354 62.123356 63.455357 65.471184 68.807182 71.807182 73.475182 74.807182">Data are addressed directly</tspan><tspan
             id="tspan224"
             y="108.1035"
             x="4.3910999 7.7270999 10.7271 12.0591 15.3951 18.748913 20.416914 23.752913 27.088913 30.424913 32.422913 35.758915 38.758915 41.758915 43.426914 44.572914 47.572914 50.92704 54.263039 57.263039 58.931042 62.26704 65.603043 67.271042 70.271042 71.417038 73.085037 74.753044 76.085037 79.085037 82.421043">using address 'constants' fixed</tspan><tspan
             id="tspan226"
             y="114.1035"
             x="4.3910999 7.7270999 9.3950996 11.0631 14.0631 15.7311 19.067101 20.7351 22.067101 25.067101 26.7351 30.0711 33.071098 36.407101 39.743099 44.7411 46.073101 49.073101 50.7411 52.073101 53.423138 56.759136 59.759136 61.427135 63.095135 64.427139 69.425133 72.761139">at static/dynamic link time.</tspan><tspan
             id="tspan228"
             y="102.1035"
             x="109.1361 113.4681 116.8041 118.4721 121.8081 123.4761 126.8121 128.8101 132.16423 133.83223 137.16823 140.50423 143.84023 145.83823 149.19235 152.19235 155.19235 158.52835 161.86435 163.53235 166.86836 169.86836 171.20035 174.53636">Data are addressed using</tspan><tspan
             id="tspan230"
             y="108.1035"
             x="109.1361 112.4721 114.1401 115.8081 118.8081 122.1441 123.8121 126.8121 128.4801 130.1481 132.1461 135.4821 140.4801 142.1481 143.2941 146.6301 149.96609 151.98221 155.31821 156.4642 158.1322 159.8002 164.4682 166.1362 167.78612 170.78612 174.12212 175.79012">offsets from 'here'. Offsets</tspan><tspan
             id="tspan232"
             y="114.1035"
             x="109.1361 112.4721 114.4701 117.8061 119.4741 121.1421 122.4741 125.4741 128.8101 132.16423 133.83223 137.16823 138.83623 140.50423 143.50423 145.17223 148.50822 150.17622 151.50822 154.50822 156.17622 157.50822 158.84023 162.17622 165.17622 166.84422 168.51222 169.84422 174.84222 178.17822">are fixed at static link time.</tspan><tspan
             id="tspan234"
             y="102.1035"
             x="208.7068 214.3708 216.3688 217.70081 219.3688 222.7048 226.0408 227.3728 230.72672 232.39471 235.73071 239.06673 240.73473 244.07072 245.73872 249.07472 251.07272 254.40872 256.07672 259.41272 262.76657 266.10257 268.10056 271.43655 274.43655 277.43655 280.79037">Writable data are addressed</tspan><tspan
             id="tspan236"
             y="108.1035"
             x="208.7068 212.0428 215.0428 216.3748 219.7108 223.06462 224.73262 228.06862 229.73662 231.40462 234.40462 237.74062 239.40862 242.40862 244.07663 245.72673 247.72473 251.06073 256.07672 257.74472 261.74673 265.74872 267.41672 269.08472 270.75272 274.08871 277.42471 279.09271 282.09271 283.76071 287.09671 288.76471 290.09671">using offsets from SB, the static</tspan><tspan
             id="tspan238"
             y="114.1035"
             x="208.7068 212.0428 215.3788 218.3788 221.7148 223.3828 225.3808 228.73491 232.07092 233.40291 236.40291 238.07092 241.40692 243.40492 245.07292 246.74092 251.40892 253.07692 254.74492 257.7449 261.0809 262.7489 265.7489 267.4169 270.75293 272.75092 276.08691 277.75491 279.42291 280.75491 283.75491 287.09091">base register. Offsets are fixed</tspan><tspan
             id="tspan240"
             y="120.1035"
             x="208.7068 212.0428 213.7108 215.3788 218.3788 220.0468 223.3828 225.0508 226.3828 229.3828 231.0508 234.3868 237.72279 241.05881 242.72681 246.06281 249.06281 252.3988 255.7348 260.75095 262.08295 265.08295 266.75095 268.08295 269.41495 272.75095 275.75095 277.41895 279.08694 280.41895 285.41693 288.77087 291.77087">at static and dynamic link times.</tspan></text>
<text
           id="text248"
           style="font-variant:normal;font-size:6px;font-family:Helvetica;-inkscape-font-specification:f-0-0;writing-mode:lr-tb;fill:#000000;fill-opacity:1;fill-rule:nonzero;stroke:none"
           transform="matrix(1,0,0,-1,32.20479,62.93489)"><tspan
             id="tspan244"
             y="0"
             x="0 4.3319998 7.9980001 11.334 15 16.667999 20.334 22.35 25.686001 27.354 30.690001 34.355999 38.021999 40.355999 43.692001 47.028 50.363998 52.032001 55.698002 100.65 104.652 108.984 110.982 113.316 116.66992 118.33792 121.67392 123.67192 125.33992 128.67592 132.01192 133.67992 137.01591 140.68192 144.34792 146.68192 150.01791 153.37187 156.70787 158.37587 162.04187 204.45311 208.45512 212.78711 214.80312 217.13712 220.47311 222.14111 225.47711 227.47511 229.14311 232.47911 235.81511 237.48311 240.81911 244.48511 248.15111 250.48511 253.82111 257.17499 260.51099 262.17899 265.84497">Absolute addressingPC-relative addressingSB-relative addressing</tspan><tspan
             id="tspan246"
             y="55.938301"
             x="56.609402 60.611401 62.9454 66.611397 69.947403 73.283401 76.967209 80.633209 82.967209 86.303207 87.971207 91.307213 94.643211 96.311211 97.97921 99.647209 102.98321 104.98121 108.31721 111.98321 115.64921 118.98521 121.31921 124.98521 126.65321 128.32121 129.98921 133.65521 137.32121 141.98921 143.65721 146.99321 150.65921 154.32521 157.66121 159.32921 162.66521 166.33121 169.99721 172.33121 175.68518 179.02118 182.35718 185.69318 189.02917 190.69717 194.03317 196.04924 199.38524 201.38324 203.05124 206.38725 208.05525 211.72125 215.05725 217.07307">Procedure call standard / how code addresses static data</tspan></text>
</g></g></g></svg>