<?xml version="1.0" encoding="UTF-8" standalone="no"?>
<svg
   xmlns:dc="http://purl.org/dc/elements/1.1/"
   xmlns:cc="http://creativecommons.org/ns#"
   xmlns:rdf="http://www.w3.org/1999/02/22-rdf-syntax-ns#"
   xmlns:svg="http://www.w3.org/2000/svg"
   xmlns="http://www.w3.org/2000/svg"
   viewBox="0 0 442.66666 177.33333"
   height="177.33333"
   width="442.66666"
   xml:space="preserve"
   id="svg2"
   version="1.1"><metadata
     id="metadata8"><rdf:RDF><cc:Work
         rdf:about=""><dc:format>image/svg+xml</dc:format><dc:type
           rdf:resource="http://purl.org/dc/dcmitype/StillImage" /></cc:Work></rdf:RDF></metadata><defs
     id="defs6" /><g
     transform="matrix(1.3333333,0,0,-1.3333333,0,177.33333)"
     id="g10"><g
       transform="scale(0.1)"
       id="g12"><path
         id="path14"
         style="fill:none;stroke:#000000;stroke-width:7.51180983;stroke-linecap:butt;stroke-linejoin:miter;stroke-miterlimit:4;stroke-dasharray:none;stroke-opacity:1"
         d="m 3.75,1081.52 h 518.48 v 244.73 H 3.75 Z" /><path
         id="path16"
         style="fill:#ffffff;fill-opacity:1;fill-rule:nonzero;stroke:none"
         d="m 3.75,1081.52 h 518.48 v 244.73 H 3.75 Z" /><path
         id="path18"
         style="fill:none;stroke:#000000;stroke-width:7.51180983;stroke-linecap:butt;stroke-linejoin:miter;stroke-miterlimit:4;stroke-dasharray:none;stroke-opacity:1"
         d="m 3.75,1081.52 h 518.48 v 244.73 H 3.75 Z" /><path
         id="path20"
         style="fill:none;stroke:#000000;stroke-width:7.5;stroke-linecap:butt;stroke-linejoin:miter;stroke-miterlimit:4;stroke-dasharray:none;stroke-opacity:1"
         d="M 270.512,1058.32 V 921.449" /><path
         id="path22"
         style="fill:none;stroke:#000000;stroke-width:7.5;stroke-linecap:butt;stroke-linejoin:miter;stroke-miterlimit:4;stroke-dasharray:none;stroke-opacity:1"
         d="M 270.512,770.66 269.801,494.609 H 741.879" /><path
         id="path24"
         style="fill:#000000;fill-opacity:1;fill-rule:evenodd;stroke:none"
         d="m 702.66,512.77 49.141,-18.079 -49.141,-18.089 c 7.852,10.699 7.809,25.277 0,36.168 z" /><path
         id="path26"
         style="fill:none;stroke:#000000;stroke-width:2.8125;stroke-linecap:butt;stroke-linejoin:round;stroke-miterlimit:4;stroke-dasharray:none;stroke-opacity:1"
         d="m 702.66,512.77 49.141,-18.079 -49.141,-18.089 c 7.852,10.699 7.809,25.269 0,36.168 z" /><g
         transform="scale(10)"
         id="g28"><text
           id="text34"
           style="font-variant:normal;font-size:6px;font-family:Helvetica;-inkscape-font-specification:f-0-0;writing-mode:lr-tb;fill:#000000;fill-opacity:1;fill-rule:nonzero;stroke:none"
           transform="matrix(1,0,0,-1,24.3027,122.07)"><tspan
             id="tspan30"
             y="0"
             x="0">X</tspan><tspan
             id="tspan32"
             y="6"
             x="-10.8926 -8.8945999 -2.8046 1.2152131 5.2172132 9.5492134 12.885213">(@VER1)</tspan></text>
</g><path
         id="path36"
         style="fill:none;stroke:#000000;stroke-width:7.51180983;stroke-linecap:butt;stroke-linejoin:miter;stroke-miterlimit:4;stroke-dasharray:none;stroke-opacity:1"
         d="m 761.129,1081.52 h 518.48 v 244.73 h -518.48 z" /><path
         id="path38"
         style="fill:#ffffff;fill-opacity:1;fill-rule:nonzero;stroke:none"
         d="m 761.129,1081.52 h 518.48 v 244.73 h -518.48 z" /><path
         id="path40"
         style="fill:none;stroke:#000000;stroke-width:7.51180983;stroke-linecap:butt;stroke-linejoin:miter;stroke-miterlimit:4;stroke-dasharray:none;stroke-opacity:1"
         d="m 761.129,1081.52 h 518.48 v 244.73 h -518.48 z" /><path
         id="path42"
         style="fill:none;stroke:#000000;stroke-width:7.5;stroke-linecap:butt;stroke-linejoin:miter;stroke-miterlimit:4;stroke-dasharray:none;stroke-opacity:1"
         d="M 1027.93,1058.32 V 921.449" /><path
         id="path44"
         style="fill:none;stroke:#000000;stroke-width:7.5;stroke-linecap:butt;stroke-linejoin:miter;stroke-miterlimit:4;stroke-dasharray:none;stroke-opacity:1"
         d="m 1027.93,770.66 -1.17,-114.801" /><path
         id="path46"
         style="fill:#000000;fill-opacity:1;fill-rule:evenodd;stroke:none"
         d="m 1045.31,694.879 -18.59,-48.981 -17.58,49.372 c 10.59,-7.969 25.2,-8.079 36.17,-0.391 z" /><path
         id="path48"
         style="fill:none;stroke:#000000;stroke-width:2.8125;stroke-linecap:butt;stroke-linejoin:round;stroke-miterlimit:4;stroke-dasharray:none;stroke-opacity:1"
         d="m 1045.31,694.887 -18.6,-48.989 -17.57,49.375 c 10.58,-7.968 25.19,-8.085 36.17,-0.386 z" /><g
         transform="scale(10)"
         id="g50"><text
           id="text56"
           style="font-variant:normal;font-size:6px;font-family:Helvetica;-inkscape-font-specification:f-0-0;writing-mode:lr-tb;fill:#000000;fill-opacity:1;fill-rule:nonzero;stroke:none"
           transform="matrix(1,0,0,-1,100.042,122.07)"><tspan
             id="tspan52"
             y="0"
             x="0">Y</tspan><tspan
             id="tspan54"
             y="6"
             x="-13.9395 -11.9415 -5.8515 0.2385 4.258554 8.2605543 12.592554 15.928555">(@@VER1)</tspan></text>
</g><path
         id="path58"
         style="fill:none;stroke:#000000;stroke-width:7.51180983;stroke-linecap:butt;stroke-linejoin:miter;stroke-miterlimit:4;stroke-dasharray:none;stroke-opacity:1"
         d="m 1580,1081.52 h 518.48 v 244.73 H 1580 Z" /><path
         id="path60"
         style="fill:#ffffff;fill-opacity:1;fill-rule:nonzero;stroke:none"
         d="m 1580,1081.52 h 518.48 v 244.73 H 1580 Z" /><path
         id="path62"
         style="fill:none;stroke:#000000;stroke-width:7.51180983;stroke-linecap:butt;stroke-linejoin:miter;stroke-miterlimit:4;stroke-dasharray:none;stroke-opacity:1"
         d="m 1580,1081.52 h 518.48 v 244.73 H 1580 Z" /><path
         id="path64"
         style="fill:none;stroke:#000000;stroke-width:7.5;stroke-linecap:butt;stroke-linejoin:miter;stroke-miterlimit:4;stroke-dasharray:none;stroke-opacity:1"
         d="M 1846.8,1058.32 V 921.449" /><path
         id="path66"
         style="fill:none;stroke:#000000;stroke-width:7.5;stroke-linecap:butt;stroke-linejoin:miter;stroke-miterlimit:4;stroke-dasharray:none;stroke-opacity:1"
         d="m 1846.8,770.66 -1.18,-114.801" /><path
         id="path68"
         style="fill:#000000;fill-opacity:1;fill-rule:evenodd;stroke:none"
         d="m 1864.18,694.879 -18.59,-48.981 -17.58,49.372 c 10.58,-7.969 25.19,-8.079 36.17,-0.391 z" /><path
         id="path70"
         style="fill:none;stroke:#000000;stroke-width:2.8125;stroke-linecap:butt;stroke-linejoin:round;stroke-miterlimit:4;stroke-dasharray:none;stroke-opacity:1"
         d="M 1864.18,694.887 1845.59,645.898 1828,695.27 c 10.6,-7.965 25.21,-8.082 36.18,-0.383 z" /><g
         transform="scale(10)"
         id="g72"><text
           id="text78"
           style="font-variant:normal;font-size:6px;font-family:Helvetica;-inkscape-font-specification:f-0-0;writing-mode:lr-tb;fill:#000000;fill-opacity:1;fill-rule:nonzero;stroke:none"
           transform="matrix(1,0,0,-1,181.928,122.07)"><tspan
             id="tspan74"
             y="0"
             x="0">X</tspan><tspan
             id="tspan76"
             y="6"
             x="-13.9395 -11.9415 -5.8515 0.2385 4.258554 8.2605543 12.592554 15.928555">(@@VER2)</tspan></text>
</g><path
         id="path80"
         style="fill:#ffffff;fill-opacity:1;fill-rule:nonzero;stroke:none"
         d="m 761.129,385.578 h 518.48 v 244.73 h -518.48 z" /><path
         id="path82"
         style="fill:none;stroke:#000000;stroke-width:7.51180983;stroke-linecap:butt;stroke-linejoin:miter;stroke-miterlimit:4;stroke-dasharray:none;stroke-opacity:1"
         d="m 761.129,385.578 h 518.48 v 244.73 h -518.48 z" /><path
         id="path84"
         style="fill:#ffffff;fill-opacity:1;fill-rule:nonzero;stroke:none"
         d="m 1580,385.578 h 518.48 v 244.73 H 1580 Z" /><path
         id="path86"
         style="fill:none;stroke:#000000;stroke-width:7.51180983;stroke-linecap:butt;stroke-linejoin:miter;stroke-miterlimit:4;stroke-dasharray:none;stroke-opacity:1"
         d="m 1580,385.578 h 518.48 v 244.73 H 1580 Z" /><path
         id="path88"
         style="fill:#ffffff;fill-opacity:1;fill-rule:nonzero;stroke:none"
         d="m 760.469,11.4492 h 518.98 v 163.75 h -518.98 z" /><path
         id="path90"
         style="fill:none;stroke:#000000;stroke-width:6.14760017;stroke-linecap:butt;stroke-linejoin:miter;stroke-miterlimit:4;stroke-dasharray:none;stroke-opacity:1"
         d="m 760.469,11.4492 h 518.98 v 163.75 h -518.98 z" /><path
         id="path92"
         style="fill:#ffffff;fill-opacity:1;fill-rule:nonzero;stroke:none"
         d="m 1580.16,11.4492 h 518.98 v 163.75 h -518.98 z" /><path
         id="path94"
         style="fill:none;stroke:#000000;stroke-width:6.14760017;stroke-linecap:butt;stroke-linejoin:miter;stroke-miterlimit:4;stroke-dasharray:none;stroke-opacity:1"
         d="m 1580.16,11.4492 h 518.98 v 163.75 h -518.98 z" /><path
         id="path96"
         style="fill:none;stroke:#000000;stroke-width:7.51180983;stroke-linecap:butt;stroke-linejoin:miter;stroke-miterlimit:4;stroke-dasharray:none;stroke-opacity:1"
         d="m 1028.05,379.922 -1.17,-195.121" /><path
         id="path98"
         style="fill:#000000;fill-opacity:1;fill-rule:evenodd;stroke:none"
         d="m 1045.27,223.98 -18.39,-49.101 -17.82,49.34 c 10.67,-7.93 25.28,-7.969 36.21,-0.239 z" /><path
         id="path100"
         style="fill:none;stroke:#000000;stroke-width:2.81693006;stroke-linecap:butt;stroke-linejoin:round;stroke-miterlimit:4;stroke-dasharray:none;stroke-opacity:1"
         d="m 1045.27,223.988 -18.4,-49.101 -17.81,49.336 c 10.67,-7.934 25.28,-7.969 36.21,-0.235 z" /><path
         id="path102"
         style="fill:none;stroke:#000000;stroke-width:7.51180983;stroke-linecap:butt;stroke-linejoin:miter;stroke-miterlimit:4;stroke-dasharray:none;stroke-opacity:1"
         d="m 1846.68,379.922 -1.17,-195.121" /><path
         id="path104"
         style="fill:#000000;fill-opacity:1;fill-rule:evenodd;stroke:none"
         d="m 1863.91,223.98 -18.4,-49.101 -17.81,49.34 c 10.66,-7.93 25.27,-7.969 36.21,-0.239 z" /><path
         id="path106"
         style="fill:none;stroke:#000000;stroke-width:2.81693006;stroke-linecap:butt;stroke-linejoin:round;stroke-miterlimit:4;stroke-dasharray:none;stroke-opacity:1"
         d="m 1863.9,223.984 -18.39,-49.105 -17.82,49.34 c 10.67,-7.934 25.27,-7.973 36.21,-0.235 z" /><path
         id="path108"
         style="fill:none;stroke:#000000;stroke-width:7.5;stroke-linecap:butt;stroke-linejoin:miter;stroke-miterlimit:4;stroke-dasharray:none;stroke-opacity:1"
         d="m 1290.51,494.609 h 274.88" /><path
         id="path110"
         style="fill:#000000;fill-opacity:1;fill-rule:evenodd;stroke:none"
         d="m 1526.13,512.77 49.18,-18.079 -49.18,-18.089 c 7.85,10.699 7.82,25.277 0,36.168 z" /><path
         id="path112"
         style="fill:none;stroke:#000000;stroke-width:2.8125;stroke-linecap:butt;stroke-linejoin:round;stroke-miterlimit:4;stroke-dasharray:none;stroke-opacity:1"
         d="m 1526.13,512.77 49.18,-18.079 -49.18,-18.089 c 7.85,10.699 7.82,25.269 0,36.168 z" /><g
         transform="scale(10)"
         id="g114"><text
           id="text120"
           style="font-variant:normal;font-size:6px;font-family:Helvetica;-inkscape-font-specification:f-0-0;writing-mode:lr-tb;fill:#000000;fill-opacity:1;fill-rule:nonzero;stroke:none"
           transform="matrix(1,0,0,-1,16.5469,82.6344)"><tspan
             id="tspan116"
             y="0"
             x="0 3.336 6.336 9.6719999 13.008 16.362112 80.169113 83.505112 86.505112 162.51971 165.85571 168.85571">0x80020x20x3</tspan><tspan
             id="tspan118"
             y="74.927299"
             x="76.306297 78.436302 82.438301 86.4403 90.790283 94.126282 157.38068 159.51068 163.51268 167.51468 171.86465 175.20067">&quot;VER1&quot;&quot;VER2&quot;</tspan></text>
</g><path
         id="path122"
         style="fill:#b3b3b3;fill-opacity:1;fill-rule:nonzero;stroke:none"
         d="m 2327.11,11.4492 h 518.98 v 163.75 h -518.98 z" /><path
         id="path124"
         style="fill:none;stroke:#000000;stroke-width:6.14760017;stroke-linecap:butt;stroke-linejoin:miter;stroke-miterlimit:4;stroke-dasharray:none;stroke-opacity:1"
         d="m 2327.11,11.4492 h 518.98 v 163.75 h -518.98 z" /><g
         transform="scale(10)"
         id="g126"><text
           id="text142"
           style="font-variant:normal;font-size:6px;font-family:Helvetica;-inkscape-font-specification:f-0-0;writing-mode:lr-tb;fill:#000000;fill-opacity:1;fill-rule:nonzero;stroke:none"
           transform="matrix(1,0,0,-1,248.739,7.70703)"><tspan
             id="tspan128"
             y="0"
             x="0 2.1300001 6.132 10.134 14.483994 17.819994">&quot;VER1&quot;</tspan><tspan
             id="tspan130"
             y="-41.174999"
             x="-160.94501 -157.94501 -154.60899 -151.27299 -147.937 -144.58289 -141.58289 -139.91489 -136.41089 -134.74289 -77.784828 -74.784828 -71.448822 -68.112823 -64.776825 -61.42271 -58.42271 -56.754711 -53.25071 -51.58271">vd_ndx = 2vd_ndx = 3</tspan><tspan
             id="tspan132"
             y="-115.175"
             x="53.780998 57.783001 60.783001 65.780998 69.134895 72.470894">Symbol</tspan><tspan
             id="tspan134"
             y="-77.595299"
             x="54.129436 58.131439 61.467438 63.483334 66.48333 67.815331 71.151337">Version</tspan><tspan
             id="tspan136"
             y="-71.595299"
             x="54.129436 55.461437 58.79744 62.133438 65.487259">index</tspan><tspan
             id="tspan138"
             y="-42.683201"
             x="54.129436 58.131439 61.467438 63.483334 67.815331 71.151337">VerDef</tspan><tspan
             id="tspan140"
             y="2.3195"
             x="54.129436 58.131439 61.467438 63.483334 67.815331 71.151337 72.819336 76.821335 80.157333">VerDefAux</tspan></text>
</g><path
         id="path144"
         style="fill:none;stroke:#000000;stroke-width:7.5;stroke-linecap:butt;stroke-linejoin:miter;stroke-miterlimit:4;stroke-dasharray:none;stroke-opacity:1"
         d="m 2110.78,96.7188 h 197.19" /><path
         id="path146"
         style="fill:#000000;fill-opacity:1;fill-rule:evenodd;stroke:none"
         d="m 2268.71,114.879 49.18,-18.0782 -49.18,-18.0899 c 7.85,10.668 7.81,25.2691 0,36.1681 z" /><path
         id="path148"
         style="fill:none;stroke:#000000;stroke-width:2.8125;stroke-linecap:butt;stroke-linejoin:round;stroke-miterlimit:4;stroke-dasharray:none;stroke-opacity:1"
         d="m 2268.71,114.879 49.18,-18.0782 -49.18,-18.0899 c 7.85,10.6602 7.81,25.2691 0,36.1681 z" /></g></g></svg>