<?xml version="1.0" encoding="UTF-8" standalone="no"?>
<svg
   xmlns:dc="http://purl.org/dc/elements/1.1/"
   xmlns:cc="http://creativecommons.org/ns#"
   xmlns:rdf="http://www.w3.org/1999/02/22-rdf-syntax-ns#"
   xmlns:svg="http://www.w3.org/2000/svg"
   xmlns="http://www.w3.org/2000/svg"
   viewBox="0 0 437.33334 350.66666"
   height="350.66666"
   width="437.33334"
   xml:space="preserve"
   id="svg2"
   version="1.1"><metadata
     id="metadata8"><rdf:RDF><cc:Work
         rdf:about=""><dc:format>image/svg+xml</dc:format><dc:type
           rdf:resource="http://purl.org/dc/dcmitype/StillImage" /></cc:Work></rdf:RDF></metadata><defs
     id="defs6" /><g
     transform="matrix(1.3333333,0,0,-1.3333333,0,350.66667)"
     id="g10"><g
       transform="scale(0.1)"
       id="g12"><path
         id="path14"
         style="fill:#fdffff;fill-opacity:1;fill-rule:nonzero;stroke:none"
         d="m 137.93,1676.6 h 757.852 v 949.137 H 137.93 Z" /><path
         id="path16"
         style="fill:none;stroke:#000000;stroke-width:8.50393963;stroke-linecap:butt;stroke-linejoin:miter;stroke-miterlimit:4;stroke-dasharray:none;stroke-opacity:1"
         d="m 137.93,1676.6 h 757.852 v 949.137 H 137.93 Z" /><path
         id="path18"
         style="fill:none;stroke:#000000;stroke-width:8.50393963;stroke-linecap:butt;stroke-linejoin:miter;stroke-miterlimit:4;stroke-dasharray:none;stroke-opacity:1"
         d="m 192.148,2204.69 h 640.863 v 284.02 H 192.148 Z" /><path
         id="path20"
         style="fill:none;stroke:#000000;stroke-width:8.50393963;stroke-linecap:butt;stroke-linejoin:miter;stroke-miterlimit:4;stroke-dasharray:none;stroke-opacity:1"
         d="M 190.699,1815.08 H 833 v 349.652 H 190.699 Z" /><path
         id="path22"
         style="fill:#fdffff;fill-opacity:1;fill-rule:nonzero;stroke:none"
         d="m 163.59,9.57031 h 760.738 v 650.82 H 163.59 Z" /><path
         id="path24"
         style="fill:none;stroke:#000000;stroke-width:8.50393963;stroke-linecap:butt;stroke-linejoin:miter;stroke-miterlimit:4;stroke-dasharray:none;stroke-opacity:1"
         d="m 163.59,9.57031 h 760.738 v 650.82 H 163.59 Z" /><path
         id="path26"
         style="fill:#fdffff;fill-opacity:1;fill-rule:nonzero;stroke:none"
         d="m 1352.5,5.26953 h 760.738 v 653.711 H 1352.5 Z" /><path
         id="path28"
         style="fill:none;stroke:#000000;stroke-width:8.50393963;stroke-linecap:butt;stroke-linejoin:miter;stroke-miterlimit:4;stroke-dasharray:none;stroke-opacity:1"
         d="m 1352.5,5.26953 h 760.738 v 653.711 H 1352.5 Z" /><path
         id="path30"
         style="fill:#fdffff;fill-opacity:1;fill-rule:nonzero;stroke:none"
         d="m 2517.19,15.2695 h 757.848 v 640.859 H 2517.19 Z" /><path
         id="path32"
         style="fill:none;stroke:#000000;stroke-width:8.50393963;stroke-linecap:butt;stroke-linejoin:miter;stroke-miterlimit:4;stroke-dasharray:none;stroke-opacity:1"
         d="m 2517.19,15.2695 h 757.848 v 640.859 H 2517.19 Z" /><path
         id="path34"
         style="fill:#fdffff;fill-opacity:1;fill-rule:nonzero;stroke:none"
         d="m 1353.95,815.98 h 757.891 v 944.84 H 1353.95 Z" /><path
         id="path36"
         style="fill:none;stroke:#000000;stroke-width:8.50393963;stroke-linecap:butt;stroke-linejoin:miter;stroke-miterlimit:4;stroke-dasharray:none;stroke-opacity:1"
         d="m 1353.95,815.98 h 757.891 v 944.84 H 1353.95 Z" /><path
         id="path38"
         style="fill:none;stroke:#000000;stroke-width:8.50393963;stroke-linecap:butt;stroke-linejoin:miter;stroke-miterlimit:4;stroke-dasharray:none;stroke-opacity:1"
         d="m 1409.61,1339.77 h 633.711 v 286.91 H 1409.61 Z" /><path
         id="path40"
         style="fill:none;stroke:#000000;stroke-width:8.50393963;stroke-linecap:butt;stroke-linejoin:miter;stroke-miterlimit:4;stroke-dasharray:none;stroke-opacity:1"
         d="m 1411.05,1005.78 h 633.668 v 299.73 H 1411.05 Z" /><path
         id="path42"
         style="fill:none;stroke:#000000;stroke-width:7.5;stroke-linecap:butt;stroke-linejoin:miter;stroke-miterlimit:4;stroke-dasharray:none;stroke-opacity:1"
         d="M 215,436.332 H 60.8594 V 1950.66 H 330.59" /><path
         id="path44"
         style="fill:#000000;fill-opacity:1;fill-rule:evenodd;stroke:none"
         d="m 300.59,1950.66 -15,-15 52.5,15 -52.5,15 z" /><path
         id="path46"
         style="fill:none;stroke:#000000;stroke-width:4;stroke-linecap:butt;stroke-linejoin:miter;stroke-miterlimit:4;stroke-dasharray:none;stroke-opacity:1"
         d="m 300.59,1950.66 -15,-15 52.5,15 -52.5,15 z" /><path
         id="path48"
         style="fill:none;stroke:#000000;stroke-width:7.5;stroke-linecap:butt;stroke-linejoin:miter;stroke-miterlimit:4;stroke-dasharray:none;stroke-opacity:1"
         d="M 213.551,279.34 H 3.75 v 1995.31 h 335.391" /><path
         id="path50"
         style="fill:#000000;fill-opacity:1;fill-rule:evenodd;stroke:none"
         d="m 309.141,2274.65 -15,-15 52.5,15 -52.5,15 z" /><path
         id="path52"
         style="fill:none;stroke:#000000;stroke-width:4;stroke-linecap:butt;stroke-linejoin:miter;stroke-miterlimit:4;stroke-dasharray:none;stroke-opacity:1"
         d="m 309.141,2274.65 -15,-15 52.5,15 -52.5,15 z" /><path
         id="path54"
         style="fill:none;stroke:#000000;stroke-width:7.5;stroke-linecap:butt;stroke-linejoin:miter;stroke-miterlimit:4;stroke-dasharray:none;stroke-opacity:1"
         d="m 658.871,1949.22 h 315.43 v 325.43 h -269.77" /><path
         id="path56"
         style="fill:#000000;fill-opacity:1;fill-rule:evenodd;stroke:none"
         d="m 734.531,2274.65 15,15 -52.5,-15 52.5,-15 z" /><path
         id="path58"
         style="fill:none;stroke:#000000;stroke-width:4;stroke-linecap:butt;stroke-linejoin:miter;stroke-miterlimit:4;stroke-dasharray:none;stroke-opacity:1"
         d="m 734.531,2274.65 15,15 -52.5,-15 52.5,-15 z" /><path
         id="path60"
         style="fill:none;stroke:#000000;stroke-width:7.5;stroke-linecap:butt;stroke-linejoin:miter;stroke-miterlimit:4;stroke-dasharray:none;stroke-opacity:1"
         d="M 1379.65,279.34 H 1168.4 v 1133.24 h 353.94" /><path
         id="path62"
         style="fill:#000000;fill-opacity:1;fill-rule:evenodd;stroke:none"
         d="m 1492.34,1412.58 -15,-15 52.5,15 -52.5,15 z" /><path
         id="path64"
         style="fill:none;stroke:#000000;stroke-width:4;stroke-linecap:butt;stroke-linejoin:miter;stroke-miterlimit:4;stroke-dasharray:none;stroke-opacity:1"
         d="m 1492.34,1412.58 -15,-15 52.5,15 -52.5,15 z" /><path
         id="path66"
         style="fill:none;stroke:#000000;stroke-width:7.5;stroke-linecap:butt;stroke-linejoin:miter;stroke-miterlimit:4;stroke-dasharray:none;stroke-opacity:1"
         d="m 1382.5,360.66 h -134.18 v 726.49 h 305.43" /><path
         id="path68"
         style="fill:#000000;fill-opacity:1;fill-rule:evenodd;stroke:none"
         d="m 1523.75,1087.15 -15,-15 52.5,15 -52.5,15 z" /><path
         id="path70"
         style="fill:none;stroke:#000000;stroke-width:4;stroke-linecap:butt;stroke-linejoin:miter;stroke-miterlimit:4;stroke-dasharray:none;stroke-opacity:1"
         d="m 1523.75,1087.15 -15,-15 52.5,15 -52.5,15 z" /><path
         id="path72"
         style="fill:none;stroke:#000000;stroke-width:7.5;stroke-linecap:butt;stroke-linejoin:miter;stroke-miterlimit:4;stroke-dasharray:none;stroke-opacity:1"
         d="m 1874.88,1090 h 319.73 v 325.43 h -285.47" /><path
         id="path74"
         style="fill:#000000;fill-opacity:1;fill-rule:evenodd;stroke:none"
         d="m 1939.14,1415.43 15,15 -52.5,-15 52.5,-15 z" /><path
         id="path76"
         style="fill:none;stroke:#000000;stroke-width:4;stroke-linecap:butt;stroke-linejoin:miter;stroke-miterlimit:4;stroke-dasharray:none;stroke-opacity:1"
         d="m 1939.14,1415.43 15,15 -52.5,-15 52.5,-15 z" /><path
         id="path78"
         style="fill:none;stroke:#000000;stroke-width:7.5;stroke-linecap:butt;stroke-linejoin:miter;stroke-miterlimit:4;stroke-dasharray:none;stroke-opacity:1"
         d="M 2542.85,279.34 H 2305.94 V 1090 h -74.22" /><path
         id="path80"
         style="fill:#000000;fill-opacity:1;fill-rule:evenodd;stroke:none"
         d="m 2261.72,1090 15,15 -52.5,-15 52.5,-15 z" /><path
         id="path82"
         style="fill:none;stroke:#000000;stroke-width:4;stroke-linecap:butt;stroke-linejoin:miter;stroke-miterlimit:4;stroke-dasharray:none;stroke-opacity:1"
         d="m 2261.72,1090 15,15 -52.5,-15 52.5,-15 z" /><path
         id="path84"
         style="fill:none;stroke:#000000;stroke-width:7.5;stroke-linecap:butt;stroke-linejoin:miter;stroke-miterlimit:4;stroke-dasharray:none;stroke-opacity:1"
         d="M 2542.85,357.809 H 2385.86 V 1415.43 h -148.44" /><path
         id="path86"
         style="fill:#000000;fill-opacity:1;fill-rule:evenodd;stroke:none"
         d="m 2267.42,1415.43 15,15 -52.5,-15 52.5,-15 z" /><path
         id="path88"
         style="fill:none;stroke:#000000;stroke-width:4;stroke-linecap:butt;stroke-linejoin:miter;stroke-miterlimit:4;stroke-dasharray:none;stroke-opacity:1"
         d="m 2267.42,1415.43 15,15 -52.5,-15 52.5,-15 z" /><path
         id="path90"
         style="fill:none;stroke:#000000;stroke-width:7.5;stroke-linecap:butt;stroke-linejoin:miter;stroke-miterlimit:4;stroke-dasharray:none;stroke-opacity:1"
         d="M 2544.3,440.59 H 2440.08 V 1869.3 H 399.102" /><path
         id="path92"
         style="fill:#000000;fill-opacity:1;fill-rule:evenodd;stroke:none"
         d="m 429.102,1869.3 15,15 -52.5,-15 52.5,-15 z" /><path
         id="path94"
         style="fill:none;stroke:#000000;stroke-width:4;stroke-linecap:butt;stroke-linejoin:miter;stroke-miterlimit:4;stroke-dasharray:none;stroke-opacity:1"
         d="m 429.102,1869.3 15,15 -52.5,-15 52.5,-15 z" /><path
         id="path96"
         style="fill:none;stroke:#ff0000;stroke-width:7.51180983;stroke-linecap:butt;stroke-linejoin:miter;stroke-miterlimit:4;stroke-dasharray:22.5354, 22.5354;stroke-dashoffset:0;stroke-opacity:1"
         d="M 627.461,1923.52 1441.02,1535.31" /><path
         id="path98"
         style="fill:#ff0000;fill-opacity:1;fill-rule:evenodd;stroke:none"
         d="m 1413.91,1548.24 -20.04,-7.07 53.9,-9.1 -40.97,36.21 z" /><path
         id="path100"
         style="fill:none;stroke:#ff0000;stroke-width:4.00629997;stroke-linecap:butt;stroke-linejoin:miter;stroke-miterlimit:4;stroke-dasharray:none;stroke-opacity:1"
         d="m 1413.91,1548.25 -20.04,-7.08 53.9,-9.1 -40.97,36.22 z" /><g
         transform="scale(10)"
         id="g102"><text
           id="text158"
           style="font-variant:normal;font-size:6px;font-family:Helvetica;-inkscape-font-specification:f-0-0;writing-mode:lr-tb;fill:#000000;fill-opacity:1;fill-rule:nonzero;stroke:none"
           transform="matrix(1,0,0,-1,41.8156,254.439)"><tspan
             id="tspan104"
             y="0"
             x="0 4.3319998 7.6680002 11.004 13.01992">DLL-B</tspan><tspan
             id="tspan106"
             y="16.6992"
             x="-1.25703 3.07497 4.40697 7.74297 10.74297 13.74297 15.41097">Class A</tspan><tspan
             id="tspan108"
             y="22.6992"
             x="-13.10473 -11.10673 -7.77073 -4.4347301 -2.7667301 0.23327 3.5692699 6.5692701 8.2372704 9.9052696 13.24127 16.577271 19.577271 21.24527 22.577271 25.931208 29.267208">(no key function)</tspan><tspan
             id="tspan110"
             y="28.6992"
             x="-0.58912998 3.7428701 7.4088702 11.07487 12.74287 14.74087">RTTI-A</tspan><tspan
             id="tspan112"
             y="49.669102"
             x="-0.82897401 3.503026 4.8350258 8.1710262 11.171026 15.844852">ClassB</tspan><tspan
             id="tspan114"
             y="55.669102"
             x="-14.674674 -12.676674 -8.3446741 -7.0126739 -5.3446741 -2.0086739 -0.34067401 2.6593261 5.995326 8.995326 10.663326 12.331326 15.667326 19.003326 22.003326 23.671326 25.003326 28.357363 31.693361">(with key function)</tspan><tspan
             id="tspan116"
             y="61.669102"
             x="-0.160974 4.1710262 7.8370261 11.503026 13.171026 15.169026">RTTI-B</tspan><tspan
             id="tspan118"
             y="197.81911"
             x="-2.987144 1.014856 3.012856 6.3667636 9.7027636 11.700764 15.036764 20.052702 21.720701">Program B</tspan><tspan
             id="tspan120"
             y="213.09061"
             x="-15.894944 -11.562944 -8.226944 -6.5589442 -3.222944 -1.224944 2.1288843 5.4648843 8.4648848 11.800884 13.468884 15.136885 18.472885 20.140884 24.472885 28.138884 31.804884 33.472885 35.470886">Reference to RTTI-B</tspan><tspan
             id="tspan122"
             y="228.5054"
             x="-16.323069 -11.991069 -8.6550694 -6.9870691 -3.6510689 -1.653069 1.7007594 5.0367594 8.0367594 11.37276 13.040759 14.708759 18.04476 19.712759 24.04476 27.71076 31.376759 33.044758 35.042759">Reference to RTTI-A</tspan><tspan
             id="tspan124"
             y="244.9187"
             x="-1.408569 2.593431 4.5914311 7.9453387 10.945338 14.281339 17.28134 20.28134 21.949339">Process 1</tspan><tspan
             id="tspan126"
             y="198.3898"
             x="117.16743 121.16943 123.16743 126.52134 129.85735 131.85533 135.19135 140.20729 141.87529">Program C</tspan><tspan
             id="tspan128"
             y="220.3699"
             x="103.11783 107.44983 110.78583 112.45383 115.78983 117.78783 121.14166 124.47767 127.47767 130.81366 132.48166 134.14966 137.48567 139.15367 143.48567 147.15167 150.81767 152.48567 154.48366">Reference to RTTI-C</tspan><tspan
             id="tspan130"
             y="228.7906"
             x="103.13892 107.47092 110.80692 112.47492 115.81093 117.80892 121.16276 124.49876 127.49876 130.83476 132.50276 134.17076 137.50676 139.17476 143.50676 147.17276 150.83876 152.50676 154.50476">Reference to RTTI-A</tspan><tspan
             id="tspan132"
             y="244.4906"
             x="117.19753 121.19952 123.19753 126.55143 129.55144 132.88744 135.88744 138.88744 140.55544">Process 2</tspan><tspan
             id="tspan134"
             y="199.1035"
             x="232.62752 236.62953 238.62752 241.98141 245.31741 247.31541 250.65141 255.66736 257.33536 261.33737">Program BC</tspan><tspan
             id="tspan136"
             y="212.66251"
             x="219.88962 224.22162 227.55762 229.22563 232.56163 234.55963 237.91345 241.24945 244.24945 247.58545 249.25345 250.92145 254.25745 255.92545 260.25745 263.92346 267.58945 269.25745 271.25543">Reference to RTTI-B</tspan><tspan
             id="tspan138"
             y="220.65547"
             x="219.74666 224.07866 227.41466 229.08266 232.41866 234.41666 237.77048 241.10648 244.10648 247.44247 249.11047 250.77847 254.11447 255.78247 260.11447 263.78049 267.44647 269.11447 271.11249">Reference to RTTI-A</tspan><tspan
             id="tspan140"
             y="228.3625"
             x="219.29744 223.62944 226.96544 228.63344 231.96944 233.96744 237.32126 240.65726 243.65726 246.99326 248.66125 250.32925 253.66525 255.33325 259.66525 263.33127 266.99725 268.66525 270.66327">Reference to RTTI-C</tspan><tspan
             id="tspan142"
             y="244.63361"
             x="233.23413 237.23613 239.23413 242.58803 245.58803 248.92403 251.92403 254.92403 256.59204">Process 3</tspan><tspan
             id="tspan144"
             y="87.633598"
             x="122.29514 126.62714 129.96313 133.29913 135.31506">DLL-C</tspan><tspan
             id="tspan146"
             y="103.3336"
             x="119.48927 123.82127 125.15327 128.48927 131.48927 134.48927 136.15727">Class A</tspan><tspan
             id="tspan148"
             y="109.3336"
             x="107.64158 109.63958 112.97558 116.31158 117.97958 120.97958 124.31557 127.31557 128.98358 130.65158 133.98758 137.32358 140.32358 141.99158 143.32358 146.67752 150.01352">(no key function)</tspan><tspan
             id="tspan150"
             y="115.3336"
             x="120.15717 124.48917 128.15518 131.82118 133.48918 135.48718">RTTI-A</tspan><tspan
             id="tspan152"
             y="135.73241"
             x="119.75327 124.08527 125.41727 128.75327 131.75327 134.75327 136.42126">Class C</tspan><tspan
             id="tspan154"
             y="141.73241"
             x="106.07167 108.06967 112.40167 113.73367 115.40167 118.73767 120.40567 123.40567 126.74167 129.74167 131.40967 133.07767 136.41367 139.74966 142.74966 144.41766 145.74966 149.1037 152.4397">(with key function)</tspan><tspan
             id="tspan156"
             y="147.73241"
             x="120.42127 124.75327 128.41927 132.08527 133.75327 135.75127">RTTI-C</tspan></text>
</g></g></g></svg>